<svg width="95.000000" height="80.000000" viewBox="0 0 95 80" fill="none" xmlns="http://www.w3.org/2000/svg" xmlns:xlink="http://www.w3.org/1999/xlink">
	<desc>
			Created with Pixso.
	</desc>
	<defs>
		<clipPath id="clip1_829">
			<rect id="Frame" rx="0.000000" width="94.000000" height="79.000000" transform="translate(0.500000 0.500000)" fill="white" fill-opacity="0"/>
		</clipPath>
	</defs>
	<rect id="Frame" rx="0.000000" width="94.000000" height="79.000000" transform="translate(0.500000 0.500000)" fill="#FFFFFF" fill-opacity="0"/>
	<g clip-path="url(#clip1_829)">
		<path id="Vector" d="M1.88 3.27C1.89 3.27 1.89 3.27 1.89 3.27C1.89 3.27 1.88 3.27 1.88 3.27Z" fill="#043C3A" fill-opacity="1.000000" fill-rule="nonzero"/>
		<path id="Vector" d="M57.3 25.85C57.05 25.67 56.86 25.39 56.64 25.13C56.63 25.12 56.62 25.1 56.62 25.08C56.58 25 56.51 24.95 56.43 24.91C56.3 24.79 56.15 24.69 55.97 24.63C55.95 24.62 56 24.51 55.98 24.49C55.96 24.47 55.94 24.44 55.92 24.42C55.92 24.38 55.92 24.33 55.93 24.27C55.98 24.03 55.63 24.1 55.55 23.99C55.35 23.7 55.17 23.38 54.83 23.25C54.75 23.18 54.67 23.11 54.59 23.04C54.48 22.85 54.42 22.61 54.17 22.61C53.94 22.31 53.74 21.99 53.4 21.81C53.39 21.76 53.39 21.71 53.39 21.65C53.39 21.62 53.26 21.74 53.25 21.73C53.2 21.68 53.15 21.63 53.1 21.59C53.1 21.57 53.1 21.56 53.1 21.56C52.94 21.31 52.73 21.13 52.51 20.94C52.52 20.91 52.53 20.88 52.52 20.88C52.48 20.88 52.45 20.87 52.41 20.86C52.31 20.78 52.21 20.69 52.12 20.59C52.04 20.47 51.97 20.33 51.86 20.25C51.82 20.19 51.79 20.13 51.77 20.07C51.76 20.05 51.71 20.08 51.7 20.07C51.62 20.05 51.56 20.02 51.5 19.99C51.39 19.82 51.3 19.62 51.12 19.57C51.07 19.49 51.02 19.42 50.97 19.34C50.96 19.26 50.93 19.22 50.88 19.21C50.77 19.07 50.62 18.96 50.41 18.92C50.34 18.85 50.27 18.79 50.2 18.73C50.09 17.93 48.98 18.07 48.97 17.18C48.97 17.15 48.88 17.18 48.84 17.17C48.74 17.15 48.64 17.12 48.56 17.09C48.51 17.05 48.47 17.01 48.42 16.98C48.3 16.9 48.2 16.75 48.06 16.67C48 16.64 47.94 16.6 47.88 16.55C47.7 16.33 47.56 16.09 47.41 15.88C47.22 15.59 46.87 15.45 46.58 15.24C46.51 15.14 46.43 15.05 46.33 15.03C46.3 14.99 46.27 14.96 46.25 14.92C46.25 14.91 46.25 14.89 46.24 14.89C46.22 14.87 46.2 14.84 46.18 14.82C46.12 14.71 46.08 14.57 46.07 14.4C46.04 14.09 45.54 14.02 45.37 13.81C44.95 13.3 44.55 12.74 43.97 12.4C43.39 12.06 43.32 11.2 42.49 11.13C42.47 11.13 42.51 11.03 42.5 11C42.23 10.35 41.35 10.28 41.24 9.49C41.24 9.45 41.07 9.53 41.03 9.5C40.56 9.05 40.09 8.58 39.62 8.11C39.6 8.09 39.66 7.98 39.63 7.97C38.96 7.71 38.77 6.95 38.18 6.61C37.6 6.27 37.46 5.49 36.72 5.33C36.71 5.32 36.72 5.28 36.73 5.26C36.8 4.79 36.38 4.84 36.19 4.64C35.75 4.18 35.24 3.77 34.8 3.31C34.31 2.79 33.8 2.29 33.29 1.8L33.25 1.76L33.01 1.54L32.71 1.54C32.1 1.55 31.49 1.46 30.87 1.52C30.58 1.55 30.28 1.51 29.97 1.55C29.38 1.63 28.76 1.67 28.19 1.54C27.87 1.47 27.46 1.42 26.98 1.57C26.44 1.75 25.82 1.37 25.24 1.65C25.21 1.66 25.18 1.55 25.14 1.55C24.45 1.52 23.75 1.43 23.06 1.51C22.42 1.57 21.77 1.21 21.13 1.6C21.11 1.62 21.07 1.52 21.03 1.51C20.37 1.35 19.7 1.68 19.04 1.4C19.02 1.39 19.01 1.44 18.99 1.45C18.84 1.54 18.68 1.56 18.52 1.55C18.5 1.54 18.48 1.52 18.45 1.51C18.4 1.48 18.35 1.5 18.31 1.52C18.12 1.48 17.93 1.43 17.75 1.42C17.69 1.31 17.62 1.36 17.56 1.42C17.5 1.43 17.43 1.45 17.37 1.48C17.18 1.43 16.97 1.37 16.8 1.46C16.64 1.39 16.47 1.4 16.3 1.43C16.26 1.42 16.21 1.42 16.18 1.45C16.1 1.47 16.02 1.49 15.95 1.51C15.84 1.46 15.76 1.52 15.68 1.56C15.6 1.57 15.52 1.57 15.44 1.55C15.39 1.52 15.34 1.48 15.28 1.41C15.27 1.39 15.28 1.46 15.28 1.51C15.19 1.48 15.1 1.42 15.01 1.33C14.99 1.31 14.95 1.39 14.92 1.42C14.81 1.49 14.7 1.55 14.58 1.59C14.56 1.57 14.51 1.49 14.51 1.5C14.4 1.77 13.99 1.41 13.83 1.58C13.76 1.66 13.61 1.61 13.48 1.58C13.41 1.56 13.34 1.55 13.3 1.57C13.19 1.55 13.09 1.53 12.99 1.51C12.35 1.39 11.69 2.01 10.99 1.42C10.76 1.22 10.35 1.52 10.09 1.49C9.43 1.43 8.75 1.32 8.1 1.49C7.44 1.66 6.79 1.1 6.16 1.63C6.14 1.65 6.1 1.54 6.06 1.53C5.42 1.26 4.75 1.84 4.11 1.35C4.08 1.33 4.02 1.51 3.97 1.51C3.31 1.53 2.65 1.53 1.99 1.53C1.96 1.53 1.92 1.41 1.9 1.42C1.3 1.55 0.73 1.84 0.37 2.34C0.19 2.59 0.08 2.89 0.06 3.21C0.05 3.37 0.07 3.53 0.11 3.68L0.12 3.74C0.13 3.76 0.13 3.76 0.13 3.77L0.16 3.83C0.18 3.86 0.19 3.9 0.21 3.94C0.54 4.51 0.26 5.25 0.81 5.76C0.82 5.77 0.78 5.8 0.77 5.82C0.46 6.17 0.84 6.36 0.89 6.61C1.02 7.24 1.23 7.84 1.34 8.47C1.46 9.17 1.6 9.86 1.75 10.55C1.87 11.16 1.87 11.79 2.04 12.4C2.11 12.68 2.13 12.98 2.21 13.28C2.36 13.84 2.49 14.45 2.44 15.03C2.41 15.38 2.36 15.62 2.5 15.78C2.53 15.87 2.57 15.98 2.61 16.11C2.76 16.66 2.54 17.28 2.88 17.82C2.89 17.85 2.78 17.9 2.78 17.93C2.82 18.62 2.8 19.31 2.93 19.99C3.05 20.62 2.73 21.29 3.17 21.9C3.19 21.92 3.09 21.96 3.08 22C2.98 22.66 3.33 23.31 3.09 23.98C3.08 24 3.13 24.01 3.14 24.03C3.34 24.32 3.26 24.65 3.2 24.96C3.14 25.28 3.11 25.6 3.45 25.89C3.46 25.91 3.38 25.95 3.35 25.99C2.84 26.65 3.79 27.32 3.16 27.98C3.15 28 3.23 28.04 3.25 28.07C3.7 28.69 3.48 29.39 3.37 29.98C3.25 30.62 3.87 31.28 3.28 31.97C3.08 32.2 3.37 32.61 3.34 32.86C3.27 33.52 3.16 34.2 3.31 34.84C3.46 35.5 2.88 36.13 3.4 36.78C3.41 36.8 3.3 36.83 3.29 36.87C2.99 37.5 3.54 38.19 3.03 38.8C3 38.83 3.18 38.9 3.18 38.95C3.16 39.6 3.13 40.26 3.09 40.92C3.09 40.95 2.97 40.98 2.97 41C3.22 41.68 2.77 42.32 2.91 42.99C3.04 43.64 2.52 44.25 2.88 44.92C2.89 44.93 2.85 44.95 2.83 44.96C2.42 45.2 2.73 45.49 2.7 45.76C2.63 46.39 2.65 47.04 2.57 47.67C2.48 48.38 2.42 49.08 2.36 49.79C2.3 50.41 2.15 51.02 2.13 51.66C2.13 51.95 2.06 52.24 2.06 52.55C2.06 53.14 2.02 53.77 1.82 54.31C1.71 54.61 1.61 55.01 1.7 55.51C1.8 56.06 1.34 56.62 1.53 57.24C1.54 57.26 1.42 57.28 1.42 57.31C1.3 58 1.1 58.67 1.07 59.36C1.03 60 0.57 60.58 0.86 61.27C0.87 61.3 0.76 61.32 0.75 61.35C0.49 61.97 0.69 62.69 0.3 63.29C0.29 63.3 0.33 63.32 0.34 63.34C0.47 63.68 0.31 63.97 0.18 64.27C0.12 64.42 0.06 64.57 0.05 64.72C0.05 64.8 0.06 64.88 0.08 64.97C0.09 65.01 0.11 65.05 0.13 65.09C0.16 65.14 0.18 65.17 0.21 65.25C0.23 65.28 0.12 65.34 0.1 65.4C-0.06 65.67 -0.04 66.03 0.11 66.31C0.25 66.61 0.51 66.83 0.79 66.96C1.07 67.1 1.37 67.16 1.66 67.19L1.77 67.2C1.8 67.21 1.81 67.21 1.83 67.22C1.88 67.23 1.92 67.24 1.96 67.26C2.04 67.29 2.12 67.35 2.2 67.43C2.22 67.45 2.27 67.37 2.3 67.34C2.93 66.9 3.63 67.14 4.22 67.25C4.87 67.37 5.52 66.75 6.22 67.34C6.46 67.54 6.87 67.24 7.12 67.27C7.79 67.33 8.47 67.44 9.12 67.27C9.77 67.1 10.43 67.66 11.06 67.13C11.08 67.11 11.12 67.22 11.15 67.23C11.8 67.5 12.47 66.92 13.11 67.41C13.14 67.43 13.2 67.25 13.25 67.25C13.91 67.23 14.57 67.23 15.23 67.23C15.26 67.23 15.3 67.35 15.32 67.34C15.98 67.05 16.66 67.46 17.32 67.28C17.96 67.11 18.61 67.56 19.25 67.16C19.26 67.15 19.29 67.19 19.3 67.21C19.57 67.59 19.84 67.26 20.11 67.27C20.75 67.28 21.4 67.21 22.04 67.23C22.75 67.25 23.47 67.24 24.18 67.22C24.81 67.21 25.44 67.3 26.07 67.24C26.36 67.21 26.66 67.25 26.98 67.21C27.56 67.14 28.13 67.06 28.7 67.19L28.7 65.7C28.14 65.79 27.48 65.53 26.9 65.81C26.87 65.82 26.84 65.71 26.8 65.7C26.11 65.68 25.41 65.59 24.72 65.67C24.07 65.73 23.42 65.37 22.79 65.76C22.76 65.78 22.72 65.68 22.69 65.67C22.03 65.51 21.36 65.84 20.69 65.56C20.68 65.55 20.66 65.6 20.65 65.61C20.03 65.98 19.37 65.19 18.76 65.83C18.74 65.85 18.7 65.76 18.66 65.74C18.01 65.21 17.32 66.12 16.67 65.49C16.65 65.48 16.61 65.55 16.57 65.58C15.94 66.02 15.24 65.78 14.65 65.67C14 65.55 13.35 66.17 12.65 65.58C12.41 65.38 12.01 65.68 11.75 65.65C11.09 65.59 10.4 65.48 9.75 65.65C9.1 65.82 8.45 65.26 7.81 65.79C7.8 65.81 7.75 65.7 7.72 65.69C7.07 65.42 6.41 66 5.76 65.51C5.73 65.49 5.67 65.67 5.62 65.67C4.96 65.69 4.3 65.69 3.64 65.69C3.61 65.69 3.58 65.57 3.55 65.58C3.22 65.72 2.89 65.69 2.55 65.65C2.39 65.63 2.22 65.61 2.05 65.6C1.97 65.59 1.89 65.59 1.8 65.6C1.77 65.6 1.78 65.6 1.77 65.6C1.77 65.61 1.77 65.61 1.77 65.61C1.76 65.62 1.75 65.62 1.74 65.64C1.71 65.67 1.67 65.66 1.66 65.63C1.64 65.6 1.65 65.56 1.67 65.53C1.68 65.51 1.69 65.5 1.68 65.48C1.68 65.49 1.68 65.45 1.68 65.43L1.68 65.37C1.68 65.33 1.68 65.29 1.67 65.25C1.66 65.16 1.64 65.08 1.6 64.99C1.6 64.98 1.64 64.96 1.67 64.95C2.1 64.76 1.82 64.42 1.87 64.16C2 63.53 2.05 62.88 2.18 62.25C2.31 61.54 2.42 60.84 2.52 60.13C2.61 59.5 2.8 58.9 2.83 58.26C2.85 57.97 2.92 57.67 2.93 57.35C2.94 56.76 2.98 56.14 3.19 55.59C3.31 55.29 3.41 54.88 3.32 54.38C3.21 53.83 3.67 53.26 3.46 52.64C3.45 52.61 3.57 52.59 3.57 52.56C3.68 51.87 3.85 51.19 3.85 50.49C3.86 49.84 4.29 49.23 3.95 48.55C3.94 48.52 4.05 48.49 4.06 48.46C4.28 47.81 4.02 47.11 4.36 46.48C4.36 46.46 4.32 46.44 4.31 46.43C3.99 45.78 4.84 45.18 4.24 44.52C4.23 44.5 4.32 44.46 4.35 44.43C4.93 43.82 4.07 43.06 4.74 42.45C4.76 42.43 4.68 42.39 4.66 42.35C4.26 41.69 4.55 41 4.69 40.42C4.84 39.78 4.27 39.09 4.88 38.42C5.09 38.19 4.81 37.77 4.84 37.51C4.94 36.85 5.06 36.17 4.92 35.51C4.77 34.85 5.34 34.21 4.81 33.56C4.8 33.54 4.9 33.5 4.92 33.47C5.19 32.82 4.63 32.15 5.11 31.5C5.13 31.47 4.96 31.41 4.95 31.37C4.94 30.7 4.94 30.04 4.93 29.38C4.93 29.34 5.05 29.31 5.04 29.28C4.74 28.62 5.13 27.94 4.94 27.28C4.75 26.63 5.18 25.96 4.75 25.34C4.75 25.33 4.78 25.3 4.8 25.29C5.18 25 4.84 24.74 4.82 24.47C4.81 23.82 4.7 23.18 4.69 22.54C4.65 21.82 4.59 21.11 4.53 20.39C4.47 19.76 4.5 19.13 4.38 18.5C4.32 18.21 4.33 17.9 4.27 17.59C4.12 17.01 4.01 16.4 4.07 15.81C4.11 15.45 4.16 15.21 4.02 15.04C3.98 14.95 3.94 14.85 3.9 14.71C3.73 14.16 3.94 13.53 3.58 12.98C3.57 12.96 3.68 12.91 3.67 12.87C3.59 12.18 3.56 11.47 3.37 10.79C3.33 10.64 3.31 10.48 3.3 10.31C3.29 10.15 3.29 9.98 3.27 9.82C3.24 9.49 3.17 9.18 2.92 8.9C2.9 8.88 2.99 8.82 2.99 8.78C3 8.44 2.91 8.12 2.81 7.8C2.71 7.47 2.62 7.15 2.69 6.79C2.69 6.78 2.64 6.77 2.63 6.76C2.38 6.49 2.41 6.16 2.41 5.83C2.41 5.5 2.35 5.18 1.97 4.96C1.95 4.94 2.02 4.88 2.04 4.84C2.21 4.46 2.04 4.15 1.87 3.84C1.78 3.69 1.7 3.53 1.67 3.37C1.67 3.35 1.67 3.32 1.67 3.31C1.67 3.31 1.67 3.3 1.68 3.29C1.68 3.28 1.7 3.27 1.72 3.26C1.75 3.25 1.81 3.24 1.88 3.26C1.86 3.25 1.82 3.24 1.8 3.23C1.7 3.19 1.66 3.11 1.67 3.04C1.68 2.98 1.73 2.94 1.79 2.94C1.82 2.93 1.85 2.94 1.87 2.95C1.94 2.96 2.03 2.98 2.11 2.99C2.26 3.02 2.42 3.06 2.57 3.09C3.21 3.21 3.87 2.59 4.56 3.18C4.8 3.38 5.21 3.08 5.47 3.1C6.13 3.17 6.81 3.28 7.46 3.11C8.11 2.94 8.77 3.49 9.4 2.96C9.42 2.95 9.46 3.05 9.49 3.07C9.66 3.14 9.83 3.15 10 3.14C10.02 3.34 10.05 3.55 10.15 3.73C10.19 3.81 10.19 3.85 10.19 3.91C10.18 3.96 10.17 4.02 10.17 4.07C10.17 4.18 10.2 4.28 10.42 4.32C10.44 4.32 10.34 4.36 10.34 4.37C10.25 4.62 10.61 4.74 10.4 5.01C10.39 5.02 10.44 5.01 10.45 5.01C10.87 5.11 10.15 5.51 10.82 5.54C10.84 5.54 10.76 5.57 10.73 5.59C10.27 5.91 11.21 5.91 10.64 6.26C10.63 6.27 10.71 6.26 10.73 6.27C11.21 6.36 11.03 6.64 10.96 6.84C10.88 7.07 11.53 7.15 11 7.48C10.81 7.59 11.13 7.66 11.12 7.75C11.1 7.96 11.03 8.2 11.23 8.37C11.43 8.55 10.92 8.84 11.48 8.95C11.5 8.96 11.39 8.98 11.38 9C11.14 9.24 11.75 9.36 11.3 9.64C11.28 9.65 11.46 9.64 11.46 9.66C11.5 9.86 11.54 10.07 11.56 10.28C11.56 10.29 11.44 10.31 11.46 10.32C11.77 10.49 11.39 10.75 11.59 10.94C11.79 11.13 11.35 11.38 11.78 11.54C11.78 11.54 11.75 11.55 11.73 11.56C11.35 11.68 11.69 11.74 11.69 11.82C11.69 12.02 11.78 12.22 11.78 12.43C11.78 12.65 11.8 12.88 11.83 13.1C11.85 13.3 11.76 13.5 11.84 13.7C11.87 13.79 11.83 13.89 11.88 13.99C11.95 14.17 12.01 14.37 11.88 14.55C11.8 14.65 11.76 14.78 11.92 14.93C12.09 15.1 11.71 15.3 11.99 15.49C12.01 15.5 11.89 15.51 11.89 15.52C11.87 15.75 11.78 15.97 11.85 16.2C11.92 16.4 11.55 16.61 11.95 16.82C11.96 16.83 11.86 16.84 11.85 16.85C11.7 17.07 12.02 17.28 11.74 17.5C11.74 17.5 11.78 17.51 11.79 17.51C11.98 17.61 11.88 17.71 11.81 17.82C11.8 17.83 11.79 17.84 11.78 17.86C11.78 17.85 11.78 17.9 11.78 17.93C11.78 17.96 11.78 18 11.78 18.03C11.79 18.17 11.84 18.31 11.93 18.43C12.09 18.66 12.39 18.76 12.63 18.66C12.66 18.65 12.69 18.75 12.74 18.78C12.86 18.86 13 18.9 13.15 18.88C13.3 18.86 13.45 18.79 13.55 18.7C13.58 18.68 13.61 18.65 13.62 18.63C13.63 18.63 13.63 18.62 13.63 18.62C13.64 18.6 13.64 18.59 13.65 18.57C13.65 18.54 13.66 18.51 13.66 18.47C13.68 18.34 13.71 18.21 14 18.36C14.02 18.37 13.97 18.3 13.97 18.27C13.8 17.82 14.13 17.83 14.34 17.77C14.57 17.71 14.29 17.12 14.86 17.38C15.06 17.46 14.94 17.16 15.02 17.12C15.21 17.01 15.45 16.93 15.47 16.67C15.5 16.4 16.05 16.64 15.81 16.12C15.81 16.11 15.89 16.17 15.91 16.17C16.25 16.22 15.99 15.66 16.48 15.85C16.51 15.86 16.39 15.72 16.4 15.71C16.5 15.59 16.61 15.49 16.71 15.38C16.72 15.38 16.72 15.38 16.72 15.38C16.73 15.37 16.71 15.41 16.7 15.42C16.49 15.76 16.79 15.58 16.84 15.65C16.98 15.81 17.17 15.91 17.31 16.06C17.46 16.24 17.63 16.39 17.8 16.55C17.95 16.68 18.03 16.89 18.22 16.99C18.31 17.04 18.35 17.13 18.45 17.18C18.64 17.26 18.81 17.37 18.85 17.59C18.87 17.73 18.87 17.83 19 17.79C19.04 17.8 19.08 17.8 19.13 17.82C19.32 17.89 19.25 18.23 19.58 18.17C19.59 18.16 19.52 18.25 19.52 18.26C19.59 18.35 19.65 18.45 19.72 18.54L19.75 18.57L19.75 18.58L19.79 18.61C19.81 18.64 19.84 18.66 19.87 18.68C19.98 18.77 20.12 18.83 20.26 18.86C20.56 18.92 20.85 18.84 21.06 18.67C21.26 18.51 21.42 18.26 21.47 18.01C21.48 17.97 21.48 17.94 21.49 17.91L21.49 17.86L21.5 17.85L21.51 17.82C21.53 17.79 21.54 17.76 21.54 17.74C21.58 17.63 21.57 17.53 21.37 17.43C21.36 17.42 21.46 17.41 21.47 17.4C21.62 17.18 21.3 16.96 21.58 16.75C21.58 16.75 21.54 16.74 21.53 16.74C21.15 16.53 21.95 16.32 21.3 16.12C21.28 16.12 21.37 16.1 21.4 16.09C21.93 15.89 21.01 15.66 21.64 15.45C21.66 15.44 21.58 15.43 21.56 15.42C21.11 15.22 21.35 14.98 21.46 14.79C21.58 14.57 20.96 14.37 21.54 14.13C21.74 14.04 21.43 13.92 21.46 13.83C21.51 13.61 21.61 13.38 21.43 13.18C21.26 12.97 21.79 12.72 21.25 12.55C21.23 12.54 21.34 12.52 21.35 12.51C21.61 12.28 21.01 12.1 21.48 11.85C21.5 11.84 21.32 11.84 21.32 11.82C21.29 11.61 21.26 11.39 21.24 11.17C21.24 11.16 21.36 11.14 21.35 11.13C21.04 10.95 21.42 10.68 21.21 10.49C21.02 10.3 21.45 10.02 21.02 9.87C21.01 9.86 21.05 9.85 21.07 9.85C21.44 9.71 21.09 9.66 21.09 9.57C21.07 9.36 20.98 9.16 20.96 8.95C20.94 8.72 20.89 8.48 20.84 8.26C20.79 8.05 20.85 7.83 20.75 7.64C20.7 7.55 20.72 7.45 20.66 7.35C20.55 7.18 20.47 6.98 20.56 6.78C20.61 6.66 20.63 6.52 20.44 6.39C20.23 6.26 20.56 5.97 20.24 5.85C20.23 5.85 20.34 5.81 20.33 5.8C20.31 5.57 20.34 5.32 20.21 5.12C20.09 4.93 20.39 4.63 19.96 4.53C19.94 4.53 20.03 4.49 20.04 4.48C20.13 4.22 19.76 4.1 19.97 3.81C19.97 3.81 19.93 3.81 19.92 3.81C19.5 3.72 20.2 3.28 19.53 3.28C19.51 3.28 19.59 3.24 19.61 3.22C19.69 3.16 19.72 3.12 19.73 3.07C19.95 3.07 20.17 3.06 20.39 3.07C21.1 3.08 21.81 3.08 22.52 3.06C23.15 3.05 23.78 3.14 24.41 3.08C24.71 3.05 25.01 3.09 25.32 3.05C25.91 2.97 26.53 2.93 27.1 3.06C27.41 3.13 27.83 3.18 28.3 3.02C28.84 2.85 29.47 3.23 30.05 2.95C30.07 2.94 30.11 3.05 30.14 3.05C30.84 3.08 31.53 3.16 32.23 3.09C32.25 3.09 32.28 3.09 32.31 3.09C32.32 3.1 32.33 3.12 32.35 3.14C32.34 3.29 32.33 3.45 32.34 3.64C32.37 4.03 32.17 4.05 32.36 4.73C32.37 4.76 32.31 4.69 32.31 4.7C32.22 4.92 32.38 5.54 32.21 5.65C32.21 5.66 32.24 5.71 32.24 5.72C32.34 6.04 32.28 6.12 32.23 6.23C32.19 6.34 32.15 6.48 32.34 6.9C32.35 6.92 32.3 6.87 32.28 6.87C32.12 6.83 32.17 7.09 32.21 7.33C32.26 7.58 32.3 7.81 32.09 7.73C32.08 7.73 32.13 7.82 32.15 7.85C32.42 8.53 32.26 8.71 32.17 8.94C32.13 9.07 32.21 9.33 32.25 9.55C32.29 9.77 32.29 9.95 32.07 9.93C31.92 9.92 32.13 10.35 32.11 10.46C32.06 10.77 31.96 11.07 32.08 11.52C32.2 11.97 31.75 11.99 32.17 12.64C32.18 12.66 32.09 12.62 32.08 12.63C31.97 12.73 32.03 12.95 32.06 13.15C32.1 13.36 32.12 13.54 31.91 13.58C31.89 13.59 32.04 13.72 32.04 13.74C32.04 14.1 32.04 14.46 32.03 14.81C32.03 14.83 31.92 14.79 31.93 14.81C32.18 15.3 31.81 15.47 31.97 15.91C32.12 16.32 31.69 16.49 32.06 16.99C32.07 17 32.03 16.99 32.01 16.99C31.65 17 31.96 17.27 31.95 17.41C31.93 17.75 31.99 18.12 31.97 18.45C31.95 18.83 31.96 19.21 31.97 19.6C31.98 19.94 31.88 20.25 31.94 20.6C31.97 20.77 31.93 20.92 31.97 21.09C32.04 21.42 32.08 21.75 31.95 22.04C31.88 22.19 31.83 22.41 31.98 22.68C32.16 22.98 31.78 23.28 32.06 23.61C32.07 23.63 31.95 23.64 31.95 23.66C31.93 24.02 31.84 24.4 31.91 24.76C31.92 24.81 31.92 24.85 31.92 24.89C31.92 24.92 31.91 24.94 31.91 24.96L31.91 24.99L31.9 25.04C31.88 25.17 31.87 25.31 31.88 25.44C31.9 25.71 32.03 26 32.33 26.1C32.36 26.11 32.29 26.19 32.3 26.21C32.39 26.48 32.63 26.66 32.87 26.79C33.11 26.92 33.35 27.01 33.59 27.21C33.6 27.22 33.62 27.17 33.64 27.16C33.78 27.1 33.9 27.09 34.03 27.11L34.08 27.11C34.09 27.12 34.1 27.12 34.11 27.12C34.13 27.13 34.15 27.13 34.17 27.14L34.29 27.2C34.45 27.27 34.62 27.31 34.78 26.98C34.78 26.97 34.81 27.05 34.83 27.08C35.16 27.61 35.52 26.69 35.85 27.32C35.86 27.34 35.88 27.26 35.9 27.24C36.23 26.8 36.59 27.04 36.89 27.15C37.22 27.27 37.56 26.65 37.92 27.24C38.04 27.44 38.25 27.14 38.38 27.16C38.72 27.23 39.08 27.34 39.41 27.17C39.75 27 40.08 27.55 40.41 27.02C40.42 27.01 40.44 27.11 40.45 27.13C40.79 27.39 41.13 26.82 41.46 27.3C41.48 27.33 41.51 27.15 41.53 27.15C41.87 27.13 42.21 27.13 42.55 27.13C42.57 27.13 42.58 27.25 42.6 27.24C42.94 26.95 43.29 27.35 43.63 27.18C43.96 27 44.29 27.46 44.62 27.05C44.63 27.05 44.64 27.09 44.64 27.11C44.78 27.49 44.93 27.16 45.06 27.16C45.39 27.18 45.72 27.11 46.06 27.12C46.42 27.14 46.79 27.13 47.15 27.12C47.48 27.11 47.8 27.2 48.13 27.14C48.28 27.11 48.43 27.15 48.59 27.11C48.89 27.03 49.22 26.99 49.51 27.12C49.69 27.2 49.81 27.27 49.9 27.15C49.95 27.13 50.01 27.1 50.08 27.08C50.37 26.99 50.67 27.29 50.97 27.01C50.99 27 51.01 27.11 51.02 27.11C51.38 27.14 51.74 27.22 52.1 27.15C52.43 27.08 52.76 27.45 53.09 27.05C53.1 27.04 53.12 27.14 53.14 27.15C53.48 27.3 53.82 26.98 54.17 27.26C54.17 27.27 54.18 27.22 54.19 27.21C54.51 26.83 54.85 27.63 55.16 26.98C55.17 26.97 55.19 27.05 55.21 27.08C55.54 27.61 55.9 26.69 56.24 27.32C56.24 27.33 56.25 27.32 56.26 27.3C56.27 27.29 56.26 27.27 56.28 27.26C56.3 27.25 56.33 27.24 56.35 27.23C56.54 27.17 56.73 27.05 56.86 26.9C56.99 26.76 57.07 26.59 57.1 26.42C57.13 26.29 57.13 26.16 57.11 26.03L57.3 25.85Z" fill="#87D8C8" fill-opacity="1.000000" fill-rule="nonzero"/>
		<path id="Vector" d="M56.51 9.65C56.51 9.66 56.53 9.55 56.53 9.55C56.46 9.51 56.4 9.4 56.31 9.45C56.22 9.5 56.22 9.12 56.07 9.5C56.06 9.51 56.08 9.41 56.07 9.4C56.03 9.24 55.89 9.55 55.86 9.26C55.86 9.25 55.85 9.3 55.85 9.31C55.73 9.67 55.75 8.87 55.6 9.5C55.6 9.52 55.61 9.43 55.6 9.4C55.6 9.13 55.54 9.23 55.5 9.31C55.45 9.39 55.41 9.46 55.39 9.14C55.39 9.12 55.38 9.2 55.38 9.23C55.28 9.66 55.22 9.42 55.15 9.31C55.07 9.18 55 9.79 54.92 9.21C54.89 9.01 54.84 9.31 54.81 9.29C54.74 9.22 54.65 9.12 54.58 9.29C54.52 9.46 54.4 8.91 54.38 9.45C54.38 9.46 54.36 9.36 54.36 9.35C54.25 9.09 54.24 9.67 54.11 9.2C54.1 9.18 54.12 9.36 54.12 9.36C54.04 9.38 53.97 9.4 53.89 9.4C53.89 9.4 53.87 9.29 53.86 9.3C53.84 9.59 53.69 9.22 53.65 9.41C53.62 9.59 53.44 9.16 53.46 9.57C53.46 9.58 53.45 9.54 53.44 9.52C53.32 9.16 53.37 9.49 53.34 9.49C53.26 9.49 53.21 9.57 53.14 9.58C53.06 9.59 52.98 9.63 52.91 9.66C52.85 9.7 52.75 9.63 52.7 9.71C52.69 9.73 52.67 9.73 52.65 9.74C52.62 9.7 52.59 9.67 52.6 9.66C52.7 9.6 52.84 9.55 52.73 9.39C52.61 9.24 53.16 9.37 52.7 9.07C52.69 9.07 52.79 9.1 52.8 9.1C53.09 9.12 52.59 8.81 53.08 8.9C53.1 8.9 52.93 8.83 52.94 8.82C52.96 8.73 52.99 8.63 53.03 8.54C53.03 8.54 53.14 8.58 53.13 8.57C52.9 8.37 53.31 8.43 53.18 8.27C53.05 8.12 53.51 8.18 53.16 7.96C53.15 7.96 53.19 7.97 53.21 7.97C53.59 8.06 53.29 7.91 53.31 7.88C53.35 7.79 53.32 7.68 53.36 7.59C53.41 7.49 53.43 7.39 53.45 7.28C53.47 7.19 53.58 7.12 53.55 7.02C53.53 6.97 53.58 6.93 53.56 6.88C53.51 6.77 53.49 6.67 53.63 6.62C53.72 6.59 53.78 6.54 53.64 6.43C53.49 6.32 53.89 6.31 53.63 6.16C53.62 6.16 53.73 6.17 53.73 6.17C53.78 6.07 53.88 5.98 53.83 5.86C53.78 5.76 54.16 5.72 53.78 5.56C53.77 5.55 53.87 5.56 53.88 5.56C54.05 5.48 53.74 5.33 54.03 5.27C54.04 5.27 53.99 5.26 53.98 5.26C53.62 5.12 54.42 5.1 53.79 4.94C53.77 4.94 53.86 4.94 53.89 4.94C54.42 4.88 53.52 4.7 54.16 4.65C54.17 4.65 54.1 4.64 54.07 4.63C53.64 4.51 53.88 4.42 53.99 4.33C54.12 4.23 53.5 4.12 54.09 4.02C54.3 3.98 53.99 3.92 54.02 3.88C54.08 3.77 54.18 3.66 54.01 3.57C53.93 3.52 54.02 3.46 54.07 3.41C54.12 3.35 54.12 3.3 53.85 3.27C53.83 3.27 53.94 3.25 53.95 3.25C54.21 3.11 53.63 3.07 54.09 2.9C54.11 2.89 53.93 2.91 53.93 2.9C53.9 2.8 53.88 2.69 53.86 2.58C53.85 2.57 53.97 2.54 53.96 2.54C53.65 2.5 54.02 2.29 53.81 2.22C53.71 2.19 53.76 2.12 53.78 2.05C53.8 1.98 53.79 1.91 53.58 1.94C53.57 1.94 53.61 1.92 53.63 1.91C53.96 1.72 53.64 1.8 53.62 1.75C53.59 1.64 53.47 1.56 53.42 1.45C53.37 1.32 53.28 1.21 53.18 1.11C53.1 1.02 53.08 0.86 52.94 0.82C52.88 0.8 52.85 0.73 52.78 0.72C52.64 0.7 52.52 0.68 52.49 0.51C52.47 0.39 52.45 0.31 52.37 0.4C52.34 0.41 52.31 0.43 52.27 0.43C52.2 0.45 52.17 0.38 52.13 0.33C52.08 0.29 52.03 0.26 51.93 0.38C51.92 0.39 51.95 0.27 51.94 0.27C51.82 0.21 51.7 0.09 51.56 0.14C51.49 0.17 51.44 0.08 51.38 0.04C51.33 0 51.26 0.01 51.19 0.2C51.19 0.22 51.19 0.11 51.18 0.11C51.06 -0.05 50.94 0.27 50.82 0C50.82 -0.01 50.82 0.04 50.81 0.05C50.77 0.24 50.71 0.13 50.65 0.07C50.59 0 50.52 -0.03 50.51 0.3C50.51 0.32 50.49 0.23 50.48 0.2C50.39 -0.05 50.35 0.05 50.3 0.15C50.26 0.24 50.22 0.32 50.11 0.02C50.1 0 50.11 0.08 50.11 0.1C50.09 0.56 49.94 0.34 49.82 0.26C49.69 0.17 49.76 0.79 49.49 0.25C49.39 0.07 49.42 0.38 49.37 0.37C49.26 0.34 49.12 0.27 49.08 0.46C49.05 0.65 48.76 0.16 48.85 0.69C48.86 0.7 48.81 0.61 48.8 0.6C48.62 0.38 48.73 0.95 48.46 0.54C48.45 0.52 48.51 0.69 48.5 0.69C48.41 0.74 48.32 0.78 48.23 0.82C48.22 0.82 48.17 0.71 48.17 0.72C48.2 1.03 47.94 0.7 47.92 0.9C47.9 1.1 47.62 0.72 47.71 1.13C47.71 1.14 47.69 1.11 47.68 1.09C47.48 0.76 47.58 1.08 47.54 1.09C47.45 1.12 47.39 1.22 47.3 1.25C47.19 1.29 47.1 1.35 47.01 1.41C46.94 1.47 46.81 1.43 46.75 1.53C46.73 1.58 46.67 1.57 46.65 1.63C46.61 1.74 46.56 1.82 46.42 1.76C46.34 1.72 46.26 1.71 46.28 1.88C46.3 2.07 46.02 1.8 46.1 2.09C46.1 2.1 46.03 2.01 46.03 2.01C45.93 2.04 45.79 2.03 45.75 2.15C45.71 2.26 45.41 2.02 45.57 2.4C45.57 2.41 45.51 2.33 45.5 2.33C45.33 2.27 45.44 2.59 45.19 2.42C45.18 2.42 45.21 2.46 45.22 2.47C45.37 2.82 44.8 2.26 45.13 2.82C45.14 2.83 45.08 2.77 45.06 2.75C44.65 2.4 45.15 3.18 44.67 2.75C44.65 2.74 44.7 2.81 44.71 2.83C44.93 3.23 44.69 3.11 44.55 3.09C44.4 3.06 44.74 3.58 44.27 3.22C44.1 3.1 44.26 3.36 44.22 3.37C44.1 3.39 43.95 3.39 43.99 3.57C44.04 3.76 43.58 3.44 43.89 3.89C43.9 3.9 43.82 3.83 43.81 3.82C43.54 3.71 43.89 4.18 43.47 3.91C43.45 3.9 43.58 4.03 43.57 4.04C43.52 4.12 43.45 4.2 43.38 4.27C43.38 4.27 43.29 4.2 43.29 4.21C43.45 4.48 43.07 4.29 43.14 4.48C43.21 4.66 42.8 4.45 43.05 4.78C43.06 4.79 43.02 4.76 43 4.75C42.68 4.55 42.91 4.79 42.88 4.81C42.81 4.88 42.8 5 42.73 5.07C42.66 5.15 42.6 5.24 42.55 5.33C42.5 5.41 42.37 5.44 42.37 5.55C42.36 5.61 42.31 5.62 42.31 5.68C42.33 5.8 42.35 5.91 42.19 5.91L43.44 6.72C43.41 6.61 43.67 6.68 43.48 6.46C43.48 6.45 43.57 6.51 43.58 6.51C43.65 6.44 43.77 6.42 43.77 6.3C43.77 6.19 44.11 6.34 43.84 6.03C43.83 6.02 43.92 6.08 43.93 6.08C44.1 6.1 43.89 5.83 44.17 5.94C44.18 5.94 44.14 5.91 44.14 5.9C43.9 5.6 44.57 6.03 44.12 5.56C44.11 5.55 44.18 5.6 44.2 5.61C44.66 5.89 44.02 5.22 44.56 5.57C44.57 5.58 44.52 5.52 44.5 5.5C44.22 5.15 44.47 5.24 44.6 5.25C44.75 5.27 44.35 4.78 44.85 5.12C45.02 5.23 44.84 4.99 44.88 4.98C44.98 4.96 45.12 4.97 45.07 4.79C45.01 4.61 45.46 4.95 45.15 4.51C45.14 4.5 45.22 4.57 45.23 4.58C45.48 4.72 45.16 4.23 45.54 4.53C45.56 4.54 45.45 4.4 45.45 4.4C45.51 4.33 45.58 4.27 45.64 4.21C45.65 4.21 45.73 4.3 45.72 4.29C45.6 4.01 45.93 4.26 45.88 4.07C45.84 3.88 46.2 4.18 46.01 3.81C46.01 3.8 46.03 3.83 46.05 3.85C46.31 4.13 46.13 3.84 46.17 3.83C46.24 3.78 46.27 3.68 46.35 3.64C46.44 3.6 46.51 3.54 46.58 3.47C46.64 3.41 46.76 3.44 46.8 3.34C46.82 3.3 46.87 3.31 46.88 3.25C46.91 3.14 46.95 3.06 47.09 3.13C47.16 3.17 47.23 3.18 47.21 3.02C47.18 2.83 47.45 3.11 47.37 2.83C47.37 2.82 47.43 2.92 47.43 2.92C47.53 2.89 47.65 2.92 47.7 2.81C47.74 2.71 47.99 2.99 47.88 2.6C47.87 2.59 47.92 2.68 47.93 2.68C48.08 2.78 48.02 2.45 48.22 2.66C48.22 2.67 48.21 2.62 48.2 2.61C48.12 2.24 48.54 2.92 48.33 2.3C48.33 2.28 48.37 2.36 48.39 2.38C48.68 2.83 48.39 1.96 48.73 2.5C48.74 2.51 48.71 2.44 48.71 2.41C48.61 1.97 48.79 2.15 48.9 2.23C49.03 2.31 48.89 1.7 49.19 2.22C49.29 2.39 49.23 2.09 49.27 2.1C49.37 2.13 49.49 2.21 49.52 2.02C49.55 1.83 49.81 2.33 49.72 1.8C49.72 1.78 49.76 1.88 49.77 1.89C49.85 2.01 49.86 1.92 49.89 1.86C49.91 1.8 49.95 1.77 50.05 1.99C50.06 2.01 50.02 1.84 50.03 1.84C50.11 1.8 50.18 1.78 50.26 1.76C50.27 1.76 50.3 1.87 50.3 1.86C50.32 1.56 50.48 1.94 50.52 1.75C50.57 1.57 50.7 2.02 50.73 1.6C50.73 1.59 50.73 1.63 50.74 1.65C50.8 2.03 50.8 1.7 50.83 1.7C50.9 1.71 50.97 1.64 51.04 1.66C51.11 1.68 51.18 1.67 51.25 1.67C51.32 1.66 51.35 1.77 51.42 1.72C51.46 1.7 51.47 1.74 51.51 1.71C51.58 1.66 51.66 1.64 51.64 1.78C51.63 1.87 51.61 1.94 51.68 1.84C51.7 1.82 51.72 1.8 51.74 1.79C51.78 1.77 51.78 1.82 51.78 1.86C51.78 1.9 51.8 1.91 51.91 1.82C51.92 1.81 51.84 1.9 51.85 1.9C51.87 1.96 51.85 2.05 51.94 2.05C51.98 2.04 51.94 2.12 51.93 2.16C51.92 2.2 51.94 2.21 52.12 2.13C52.14 2.12 52.05 2.18 52.05 2.19C52 2.25 52.05 2.26 52.09 2.27C52.13 2.28 52.15 2.31 52.04 2.4C52.03 2.4 52.08 2.38 52.09 2.38C52.27 2.33 52.19 2.4 52.14 2.46C52.08 2.52 52.06 2.55 52.37 2.48C52.39 2.47 52.31 2.51 52.28 2.52C52.04 2.64 52.15 2.64 52.24 2.65C52.33 2.66 52.41 2.68 52.11 2.79C52.1 2.8 52.18 2.78 52.2 2.78C52.65 2.74 52.43 2.89 52.34 2.97C52.28 3.02 52.41 3.04 52.49 3.06C52.56 3.09 52.57 3.14 52.28 3.22C52.09 3.27 52.39 3.28 52.37 3.32C52.32 3.4 52.21 3.49 52.38 3.56C52.55 3.64 52 3.74 52.54 3.81C52.55 3.81 52.45 3.82 52.43 3.82C52.17 3.91 52.75 3.99 52.26 4.07C52.24 4.08 52.42 4.09 52.42 4.09C52.43 4.18 52.43 4.26 52.43 4.35C52.43 4.35 52.31 4.35 52.32 4.35C52.61 4.46 52.2 4.52 52.36 4.62C52.53 4.72 52.07 4.76 52.47 4.88C52.47 4.88 52.43 4.88 52.41 4.88C52.03 4.87 52.35 4.94 52.34 4.98C52.32 5.06 52.37 5.15 52.35 5.24C52.32 5.33 52.31 5.42 52.31 5.51C52.3 5.6 52.19 5.66 52.24 5.76C52.26 5.8 52.22 5.83 52.25 5.88C52.31 5.97 52.33 6.07 52.18 6.11C52.1 6.13 52.04 6.17 52.18 6.27C52.33 6.39 51.95 6.37 52.19 6.52C52.2 6.53 52.09 6.5 52.09 6.5C52.04 6.59 51.93 6.65 51.98 6.76C52.02 6.87 51.64 6.84 51.99 7.04C52.01 7.05 51.91 7.02 51.9 7.02C51.72 7.06 52 7.25 51.71 7.25C51.7 7.25 51.75 7.26 51.76 7.27C52.08 7.47 51.3 7.29 51.88 7.58C51.9 7.59 51.81 7.57 51.79 7.56C51.26 7.47 52.09 7.87 51.47 7.73C51.45 7.73 51.52 7.76 51.54 7.78C51.93 8.01 51.67 8.02 51.53 8.05C51.39 8.09 51.93 8.4 51.35 8.27C51.15 8.23 51.41 8.39 51.37 8.42C51.28 8.48 51.14 8.52 51.26 8.67C51.38 8.82 50.84 8.68 51.29 8.97C51.3 8.98 51.2 8.94 51.19 8.94C50.91 8.91 51.4 9.23 50.92 9.12C50.89 9.11 51.05 9.19 51.05 9.2C51.03 9.29 50.99 9.37 50.95 9.46C50.95 9.46 50.84 9.41 50.85 9.42C50.96 9.52 50.92 9.55 50.86 9.58C50.88 9.53 50.88 9.47 50.83 9.43C50.75 9.38 51.09 9.22 50.69 9.24C50.68 9.25 50.77 9.22 50.78 9.21C50.91 9.1 50.58 9.11 50.83 8.97C50.84 8.96 50.79 8.98 50.78 8.98C50.4 9.01 51.14 8.72 50.51 8.84C50.49 8.84 50.57 8.81 50.6 8.8C51.08 8.57 50.18 8.77 50.76 8.51C50.77 8.5 50.69 8.52 50.67 8.52C50.23 8.6 50.43 8.45 50.51 8.35C50.6 8.23 50 8.4 50.52 8.1C50.69 8 50.39 8.08 50.4 8.04C50.43 7.95 50.5 7.83 50.32 7.83C50.14 7.84 50.61 7.53 50.09 7.7C50.08 7.7 50.17 7.65 50.18 7.64C50.39 7.45 49.84 7.66 50.23 7.36C50.25 7.35 50.09 7.43 50.09 7.42C50.04 7.37 50.01 7.3 49.97 7.24C49.96 7.23 50.06 7.17 50.05 7.17C49.77 7.26 50.07 6.98 49.88 7.01C49.7 7.05 50.04 6.73 49.66 6.9C49.65 6.9 49.69 6.87 49.7 6.86C50 6.62 49.71 6.78 49.69 6.75C49.66 6.69 49.56 6.67 49.53 6.6C49.5 6.52 49.45 6.46 49.38 6.41C49.33 6.36 49.35 6.25 49.26 6.23C49.21 6.23 49.22 6.18 49.16 6.18C49.07 6.18 48.97 6.18 49.02 6.04L47.93 7.07C48.03 7.04 47.88 7.26 48.12 7.11C48.13 7.11 48.05 7.19 48.05 7.19C48.07 7.25 48.04 7.35 48.14 7.35C48.23 7.35 47.97 7.62 48.32 7.42C48.33 7.42 48.25 7.48 48.25 7.49C48.16 7.63 48.46 7.48 48.26 7.69C48.26 7.7 48.3 7.67 48.31 7.67C48.65 7.5 48.03 7.99 48.59 7.67C48.6 7.67 48.53 7.72 48.51 7.73C48.1 8.07 48.9 7.63 48.4 8.01C48.38 8.02 48.45 7.98 48.47 7.97C48.88 7.79 48.71 7.97 48.64 8.07C48.56 8.18 49.13 7.94 48.64 8.27C48.47 8.38 48.76 8.27 48.74 8.3C48.72 8.38 48.65 8.48 48.82 8.46C49 8.44 48.51 8.72 49.02 8.56C49.04 8.55 48.94 8.6 48.93 8.61C48.71 8.76 49.26 8.6 48.83 8.83C48.81 8.84 48.98 8.78 48.99 8.78C49.02 8.83 49.04 8.89 49.06 8.94C49.06 8.95 48.95 8.99 48.96 8.99C49.26 8.94 48.89 9.13 49.08 9.13C49.27 9.13 48.84 9.32 49.25 9.26C49.26 9.26 49.22 9.27 49.2 9.28C48.84 9.41 49.16 9.34 49.16 9.36C49.17 9.42 49.25 9.46 49.25 9.52C49.25 9.58 49.27 9.64 49.3 9.7C49.32 9.75 49.24 9.83 49.31 9.87C49.34 9.89 49.31 9.92 49.36 9.94C49.44 9.98 49.49 10.03 49.37 10.1C49.3 10.14 49.26 10.18 49.42 10.2C49.6 10.23 49.23 10.33 49.51 10.35C49.52 10.35 49.41 10.37 49.41 10.37C49.39 10.44 49.31 10.5 49.38 10.56C49.45 10.61 49.09 10.68 49.49 10.72C49.51 10.73 49.4 10.73 49.4 10.74C49.25 10.8 49.57 10.85 49.29 10.91C49.28 10.91 49.33 10.91 49.34 10.92C49.72 10.97 48.92 11.02 49.56 11.09C49.58 11.09 49.49 11.09 49.47 11.09C48.94 11.13 49.86 11.23 49.22 11.26C49.2 11.26 49.28 11.27 49.31 11.27C49.74 11.35 49.5 11.4 49.38 11.44C49.26 11.49 49.87 11.61 49.28 11.61C49.08 11.61 49.37 11.68 49.34 11.7C49.27 11.75 49.15 11.79 49.31 11.87C49.46 11.96 48.91 11.91 49.43 12.06C49.44 12.07 49.33 12.05 49.32 12.05C49.05 12.05 49.6 12.23 49.11 12.18C49.09 12.18 49.26 12.22 49.26 12.23C49.26 12.29 49.25 12.34 49.24 12.4C49.24 12.4 49.12 12.38 49.13 12.38C49.4 12.51 48.99 12.46 49.14 12.56C49.29 12.67 48.84 12.58 49.21 12.76C49.21 12.77 49.17 12.75 49.15 12.75C48.79 12.65 49.09 12.78 49.08 12.8C49.08 12.81 49.08 12.81 49.08 12.82C49.03 12.82 49 12.83 49.07 12.88C49.07 12.91 49.07 12.94 49.06 12.97C49.02 13.02 49 13.08 48.99 13.14C48.99 13.14 48.99 13.15 48.99 13.15C48.95 13.18 48.9 13.21 48.88 13.26L50.39 13.9C50.4 13.88 50.4 13.86 50.4 13.83C50.4 13.82 50.4 13.81 50.4 13.8C50.43 13.74 50.69 13.78 50.39 13.58C50.4 13.58 50.4 13.58 50.4 13.58C50.42 13.59 50.48 13.61 50.48 13.61C50.51 13.6 50.53 13.6 50.54 13.59C50.59 13.59 50.6 13.58 50.54 13.54C50.53 13.49 50.49 13.42 50.67 13.44C50.68 13.44 50.63 13.42 50.63 13.41C50.56 13.37 50.54 13.35 50.54 13.34C50.56 13.35 50.58 13.35 50.58 13.35C50.61 13.33 50.66 13.32 50.69 13.3C50.7 13.29 50.71 13.29 50.71 13.28C50.71 13.26 50.71 13.25 50.71 13.22C50.68 13.14 51.01 13.29 50.71 13.03C50.69 13.02 50.78 13.07 50.79 13.07C50.87 13.09 50.85 13.04 50.85 13.01C50.86 13.01 50.87 13.01 50.88 13.01C50.89 13.01 50.87 13.01 50.85 13C50.85 12.97 50.87 12.95 50.99 13C50.99 13 50.95 12.97 50.94 12.97C50.68 12.7 51.34 13.13 50.86 12.7C50.85 12.69 50.92 12.74 50.94 12.76C51.17 12.9 51.11 12.81 51.06 12.74C51.01 12.66 50.98 12.59 51.24 12.78C51.25 12.79 51.19 12.73 51.18 12.72C50.88 12.39 51.1 12.5 51.22 12.53C51.34 12.58 50.94 12.11 51.4 12.47C51.55 12.59 51.37 12.36 51.4 12.36C51.49 12.37 51.6 12.41 51.53 12.25C51.46 12.08 51.87 12.46 51.56 12.02C51.55 12.01 51.62 12.09 51.63 12.1C51.84 12.26 51.53 11.79 51.87 12.13C51.89 12.14 51.78 12 51.78 12C51.82 11.95 51.86 11.91 51.91 11.88C51.91 11.88 51.99 11.97 51.98 11.96C51.86 11.69 52.14 11.98 52.08 11.81C52.04 11.63 52.34 11.99 52.16 11.61C52.16 11.61 52.18 11.64 52.19 11.66C52.42 11.97 52.26 11.67 52.28 11.67C52.34 11.65 52.35 11.56 52.4 11.54C52.47 11.53 52.52 11.49 52.57 11.45C52.61 11.41 52.7 11.47 52.72 11.39C52.73 11.35 52.77 11.37 52.78 11.32C52.79 11.24 52.83 11.17 52.93 11.27C52.98 11.33 53.03 11.36 53.01 11.2C52.99 11.02 53.18 11.35 53.13 11.07C53.13 11.06 53.17 11.17 53.17 11.17C53.24 11.16 53.33 11.23 53.36 11.14C53.39 11.06 53.55 11.39 53.49 11C53.49 10.98 53.52 11.08 53.52 11.09C53.62 11.22 53.59 10.88 53.72 11.14C53.72 11.15 53.71 11.1 53.71 11.09C53.67 10.72 53.92 11.48 53.82 10.84C53.82 10.82 53.84 10.91 53.85 10.93C54.01 11.43 53.88 10.52 54.07 11.13C54.07 11.15 54.06 11.07 54.06 11.05C54.03 10.59 54.14 10.83 54.2 10.93C54.27 11.04 54.25 10.42 54.39 11C54.43 11.19 54.43 10.89 54.45 10.91C54.52 10.96 54.58 11.07 54.62 10.9C54.67 10.73 54.75 11.28 54.78 10.75C54.79 10.73 54.79 10.84 54.8 10.85C54.86 11.12 54.91 10.54 54.96 11.02C54.97 11.04 54.97 10.86 54.98 10.86C55.03 10.85 55.09 10.85 55.15 10.86C55.15 10.86 55.15 10.98 55.15 10.97C55.22 10.68 55.25 11.08 55.32 10.91C55.39 10.74 55.4 11.2 55.5 10.8C55.5 10.8 55.5 10.84 55.49 10.86C55.47 11.24 55.53 10.92 55.56 10.93C55.61 10.95 55.67 10.89 55.72 10.91C55.78 10.94 55.84 10.94 55.9 10.94C55.96 10.94 55.99 11.05 56.05 11C56.08 10.98 56.1 11.02 56.13 10.99C56.2 10.93 56.27 10.9 56.27 11.04L56.73 9.62C56.65 9.7 56.66 9.4 56.51 9.65ZM50.79 9.69C50.79 9.7 50.79 9.7 50.8 9.71C50.8 9.71 50.8 9.71 50.8 9.71C50.79 9.71 50.77 9.71 50.75 9.71C50.74 9.71 50.76 9.7 50.79 9.69ZM52.43 9.84C52.4 9.82 52.37 9.8 52.34 9.81C52.35 9.77 52.41 9.76 52.6 9.81C52.57 9.89 52.52 9.93 52.43 9.84Z" fill="#043C3A" fill-opacity="1.000000" fill-rule="nonzero"/>
		<path id="Vector" d="M10.25 40.08C10.25 40.07 10.33 40.15 10.34 40.14C10.52 40.02 10.74 39.96 10.86 39.78C10.97 39.6 11.35 39.77 11.27 39.34C11.27 39.33 11.34 39.4 11.35 39.4C11.6 39.41 11.57 39.02 11.91 39.14C11.91 39.14 11.89 39.1 11.89 39.09C11.83 38.67 12.44 39.21 12.23 38.58C12.23 38.56 12.29 38.62 12.31 38.64C12.77 38.98 12.45 38.09 12.95 38.52C12.97 38.53 12.94 38.45 12.93 38.43C12.86 37.95 13.17 38.04 13.38 38.05C13.61 38.05 13.48 37.41 13.95 37.82C14.11 37.96 14.08 37.64 14.16 37.62C14.36 37.58 14.6 37.59 14.69 37.35C14.79 37.1 15.22 37.51 15.16 36.95C15.16 36.93 15.21 37.02 15.23 37.03C15.52 37.19 15.46 36.58 15.84 36.94C15.86 36.96 15.8 36.78 15.81 36.78C15.99 36.68 16.17 36.59 16.36 36.52C16.37 36.52 16.42 36.62 16.43 36.61C16.5 36.26 16.84 36.56 16.96 36.32C17.08 36.09 17.43 36.45 17.47 36C17.47 35.99 17.49 36.03 17.5 36.05C17.71 36.38 17.67 36.03 17.75 36.01C17.95 35.96 18.11 35.84 18.3 35.79C18.51 35.73 18.72 35.67 18.92 35.59C19.1 35.52 19.31 35.56 19.48 35.45C19.56 35.4 19.65 35.41 19.74 35.35C19.89 35.23 20.07 35.15 20.27 35.24C20.32 35.26 20.38 35.28 20.44 35.26C20.47 35.26 20.5 35.24 20.53 35.22C20.56 35.2 20.6 35.16 20.6 35.12C20.61 35.03 20.66 35.08 20.68 35.12C20.71 35.16 20.7 35.18 20.76 35.06C20.77 35.05 20.73 35.15 20.73 35.15C20.73 35.17 20.71 35.19 20.67 35.18C20.64 35.16 20.62 35.13 20.66 35.12C20.69 35.13 20.62 35.16 20.59 35.2C20.55 35.24 20.55 35.28 20.73 35.39C20.75 35.4 20.65 35.38 20.64 35.39C20.54 35.44 20.57 35.51 20.56 35.61C20.55 35.71 20.53 35.81 20.36 35.85C20.36 35.85 20.4 35.87 20.41 35.88C20.55 36.03 20.42 36.08 20.32 36.14C20.22 36.2 20.15 36.27 20.41 36.48C20.42 36.49 20.34 36.47 20.31 36.47C20.03 36.45 20.08 36.58 20.11 36.7C20.15 36.83 20.17 36.95 19.84 36.9C19.82 36.9 19.89 36.94 19.91 36.96C20.22 37.33 19.91 37.41 19.73 37.51C19.53 37.62 19.97 38.1 19.36 37.99C19.15 37.95 19.34 38.2 19.28 38.26C19.12 38.39 18.92 38.51 18.96 38.76C18.99 39.02 18.42 38.87 18.75 39.33C18.76 39.35 18.67 39.29 18.65 39.3C18.32 39.3 18.67 39.8 18.16 39.68C18.14 39.67 18.27 39.79 18.26 39.81C18.16 39.98 18.04 40.14 17.91 40.3C17.91 40.31 17.81 40.25 17.81 40.26C17.92 40.6 17.47 40.52 17.49 40.79C17.5 41.05 17.01 40.92 17.21 41.33C17.21 41.34 17.18 41.32 17.16 41.31C16.81 41.13 17.01 41.41 16.96 41.47C16.82 41.62 16.75 41.81 16.61 41.96C16.53 42.04 16.46 42.13 16.39 42.21L16.29 42.34L16.24 42.41L16.21 42.45L16.2 42.46L16.19 42.47L16.19 42.48L16.19 42.48L16.19 42.48C18.5 44.47 16.83 43.03 17.34 43.47C17.47 43.32 17.66 43.25 17.75 43.06C17.79 42.98 17.88 42.94 17.92 42.84C17.99 42.66 18.09 42.5 18.31 42.47C18.44 42.45 18.54 42.45 18.5 42.33C18.5 42.29 18.51 42.25 18.53 42.21C18.59 42.03 18.92 42.11 18.86 41.79C18.86 41.77 18.94 41.85 18.95 41.84C19.13 41.72 19.34 41.65 19.45 41.45C19.55 41.27 19.94 41.43 19.84 41C19.83 40.98 19.91 41.05 19.92 41.05C20.17 41.04 20.13 40.66 20.46 40.76C20.47 40.76 20.44 40.72 20.44 40.71C20.36 40.3 21 40.8 20.76 40.18C20.75 40.16 20.82 40.22 20.84 40.24C21.31 40.55 20.94 39.68 21.47 40.08C21.49 40.09 21.45 40.02 21.45 39.99C21.35 39.52 21.67 39.6 21.88 39.59C22.1 39.58 21.94 38.96 22.44 39.34C22.6 39.47 22.55 39.15 22.63 39.13C22.83 39.08 23.07 39.07 23.15 38.82C23.24 38.57 23.69 38.96 23.59 38.4C23.59 38.38 23.65 38.47 23.67 38.48C23.97 38.62 23.87 38.01 24.28 38.36C24.29 38.37 24.23 38.2 24.24 38.2C24.41 38.09 24.59 37.99 24.77 37.91C24.78 37.91 24.84 38.01 24.85 38C24.9 37.65 25.26 37.93 25.37 37.68C25.48 37.44 25.84 37.79 25.86 37.33C25.86 37.33 25.88 37.36 25.89 37.38C26.12 37.7 26.06 37.36 26.14 37.34C26.33 37.28 26.48 37.14 26.67 37.08C26.88 37.02 27.08 36.94 27.28 36.86C27.36 36.82 27.47 36.8 27.54 36.79C27.61 36.79 27.65 36.79 27.63 36.76C27.63 36.74 27.57 36.76 27.55 36.71C27.53 36.66 27.56 36.64 27.57 36.65C27.59 36.66 27.58 36.69 27.52 36.73C27.46 36.77 27.41 36.75 27.57 36.79C27.65 36.81 27.59 36.84 27.55 36.85C27.5 36.86 27.5 36.83 27.56 37.01C27.56 37.02 27.46 36.97 27.45 36.98C27.32 37.15 27.14 37.28 27.09 37.5C27.04 37.7 26.63 37.67 26.86 38.05C26.87 38.06 26.77 38.02 26.76 38.02C26.52 38.1 26.68 38.45 26.33 38.46C26.32 38.46 26.36 38.49 26.37 38.5C26.56 38.87 25.8 38.57 26.21 39.1C26.23 39.11 26.15 39.07 26.12 39.06C25.85 38.98 25.86 39.12 25.87 39.26C25.87 39.28 25.88 39.28 25.87 39.31C25.83 39.38 25.79 39.46 25.77 39.55C25.71 39.72 25.71 39.92 25.76 40.1C25.81 40.27 25.89 40.42 26 40.57C26.11 40.71 26.27 40.85 26.5 40.95C26.55 40.97 26.67 40.89 26.75 40.85C26.84 40.81 26.93 40.75 26.99 40.7C27.02 40.67 27.06 40.63 27.07 40.62C27.07 40.61 27.07 40.59 27.08 40.58C27.08 40.54 27.09 40.5 27.1 40.47C27.12 40.41 27.16 40.38 27.21 40.36C27.31 40.32 27.44 40.34 27.55 40.33C27.79 40.32 27.63 39.69 28.13 40.06C28.3 40.19 28.25 39.87 28.33 39.85C28.54 39.79 28.78 39.76 28.85 39.51C28.93 39.26 29.4 39.61 29.28 39.06C29.28 39.04 29.34 39.12 29.36 39.13C29.67 39.25 29.54 38.65 29.97 38.95C29.99 38.97 29.91 38.81 29.92 38.8C30.08 38.68 30.26 38.57 30.43 38.47C30.44 38.46 30.51 38.56 30.51 38.54C30.54 38.19 30.92 38.44 31 38.18C31.09 37.93 31.49 38.24 31.46 37.78C31.46 37.78 31.48 37.81 31.5 37.83C31.75 38.13 31.67 37.79 31.74 37.76C31.92 37.68 32.06 37.54 32.24 37.47C32.44 37.39 32.63 37.31 32.81 37.21C32.98 37.13 33.18 37.15 33.33 37.03C33.4 36.98 33.49 36.99 33.56 36.93C33.7 36.8 33.84 36.73 34.02 36.82L33.73 35.36C33.64 35.43 33.52 35.4 33.41 35.4C33.3 35.4 33.19 35.42 33.13 35.59C33.13 35.6 33.08 35.5 33.07 35.5C32.96 35.53 32.83 35.54 32.71 35.56C32.59 35.59 32.48 35.63 32.39 35.7C32.29 35.77 32.17 35.74 32.05 35.76C31.94 35.77 31.84 35.82 31.83 36.05C31.83 36.06 31.77 35.97 31.76 35.97C31.49 35.93 31.44 36.31 31.12 36.16C31.11 36.16 31.13 36.2 31.13 36.22C31.12 36.64 30.55 36.04 30.69 36.7C30.69 36.72 30.64 36.65 30.61 36.63C30.17 36.27 30.43 37.18 29.93 36.74C29.92 36.73 29.95 36.8 29.95 36.83C29.99 37.31 29.68 37.22 29.46 37.23C29.22 37.23 29.37 37.86 28.87 37.48C28.7 37.35 28.75 37.68 28.67 37.7C28.46 37.76 28.21 37.79 28.13 38.04C28.05 38.29 27.57 37.94 27.7 38.5C27.7 38.51 27.64 38.43 27.62 38.43C27.3 38.31 27.44 38.91 27.01 38.61C26.99 38.6 27.07 38.76 27.06 38.77C26.89 38.9 26.72 39.01 26.55 39.12C26.54 39.12 26.47 39.03 26.47 39.04C26.46 39.22 26.36 39.25 26.25 39.27L26.23 39.27L26.58 39.84C26.59 39.85 26.59 39.86 26.59 39.86C26.59 39.87 26.59 39.86 26.59 39.86C26.6 39.85 26.58 39.86 26.58 39.86C26.58 39.86 26.59 39.86 26.59 39.86L26.6 39.87L26.61 39.87C26.78 40 26.94 40.13 27.11 40.25L27.11 40.25C27.12 40.22 27.14 40.2 27.16 40.19C27.2 40.15 27.26 40.13 27.31 40.1C27.4 40.04 27.48 39.96 27.37 39.76C27.37 39.75 27.41 39.77 27.42 39.78C27.79 39.93 27.57 39.66 27.62 39.6C27.76 39.43 27.82 39.22 27.95 39.06C28.09 38.88 28.21 38.68 28.32 38.48C28.42 38.3 28.61 38.17 28.66 37.96C28.68 37.87 28.77 37.8 28.78 37.69C28.79 37.67 28.79 37.65 28.79 37.62L28.83 37.5C28.85 37.42 28.88 37.34 28.9 37.26C28.94 37.11 28.99 36.96 29.05 36.8C29.09 36.71 29.11 36.6 29.09 36.48C29.07 36.36 29.01 36.23 28.88 36.13C28.74 36.02 28.7 35.87 28.61 35.71C28.57 35.63 28.51 35.56 28.42 35.5C28.34 35.44 28.23 35.41 28.1 35.43C28.08 35.44 28.1 35.32 28.08 35.31C27.83 35.21 27.56 35.18 27.37 35.2C27.16 35.22 27.02 35.27 26.92 35.34C26.75 35.47 26.43 35.2 26.37 35.64C26.37 35.66 26.32 35.57 26.31 35.56C26.05 35.49 25.97 35.88 25.66 35.7C25.66 35.69 25.67 35.74 25.67 35.75C25.62 36.17 25.12 35.52 25.19 36.19C25.19 36.21 25.14 36.13 25.12 36.11C24.72 35.72 24.88 36.64 24.43 36.16C24.42 36.14 24.44 36.22 24.44 36.25C24.44 36.74 24.14 36.61 23.92 36.6C23.67 36.59 23.77 37.23 23.3 36.81C23.13 36.67 23.16 37 23.07 37.02C22.86 37.06 22.61 37.08 22.51 37.33C22.41 37.58 21.94 37.21 22.04 37.77C22.05 37.79 21.98 37.7 21.96 37.7C21.64 37.57 21.77 38.18 21.33 37.88C21.31 37.87 21.39 38.03 21.38 38.04C21.2 38.17 21.03 38.29 20.85 38.41C20.84 38.41 20.76 38.32 20.76 38.33C20.75 38.7 20.34 38.48 20.27 38.76C20.2 39.02 19.76 38.78 19.84 39.23C19.84 39.24 19.81 39.21 19.79 39.19C19.49 38.94 19.62 39.26 19.55 39.31C19.38 39.43 19.25 39.6 19.09 39.72C18.9 39.86 18.72 40.01 18.56 40.17C18.41 40.31 18.2 40.38 18.09 40.56C18.04 40.65 17.94 40.68 17.89 40.78C17.8 40.97 17.69 41.14 17.46 41.17C17.32 41.19 17.22 41.19 17.26 41.31C17.25 41.35 17.25 41.39 17.23 41.44C17.17 41.63 16.82 41.56 16.89 41.89C16.89 41.91 16.8 41.83 16.79 41.84C16.62 41.99 16.4 42.1 16.3 42.31C16.28 42.36 16.23 42.4 16.17 42.42L17.41 43.49C17.54 43.41 17.72 43.37 17.59 43.07C17.59 43.06 17.67 43.12 17.69 43.11C17.94 43.05 17.82 42.68 18.17 42.69C18.18 42.69 18.14 42.66 18.14 42.65C17.97 42.26 18.72 42.6 18.34 42.04C18.33 42.03 18.41 42.07 18.44 42.08C18.98 42.24 18.4 41.5 19.02 41.73C19.04 41.74 18.98 41.68 18.97 41.65C18.74 41.22 19.07 41.19 19.27 41.11C19.5 41.01 19.12 40.48 19.73 40.64C19.94 40.7 19.77 40.41 19.84 40.36C20.01 40.22 20.23 40.1 20.2 39.83C20.18 39.56 20.76 39.68 20.42 39.22C20.41 39.21 20.51 39.25 20.53 39.25C20.87 39.21 20.48 38.72 21.01 38.79C21.03 38.79 20.89 38.69 20.9 38.67C20.99 38.48 21.09 38.28 21.2 38.09C21.2 38.08 21.31 38.13 21.31 38.12C21.15 37.79 21.61 37.77 21.54 37.49C21.51 37.36 21.62 37.29 21.7 37.21C21.78 37.13 21.84 37.03 21.69 36.85C21.68 36.85 21.72 36.86 21.74 36.86C22.13 36.92 21.86 36.71 21.9 36.63C21.94 36.53 21.97 36.43 21.99 36.32C22.02 36.21 22.04 36.12 22.09 36C22.18 35.74 22.25 35.45 22.22 35.07C22.2 34.9 22.19 34.72 22.12 34.52C22.05 34.31 21.92 34.11 21.73 33.99C21.56 33.89 21.42 33.77 21.23 33.74C20.86 33.69 20.57 33.74 20.26 33.68C20.15 33.63 20 33.61 19.89 33.8C19.76 34.01 19.47 33.68 19.36 34.01C19.35 34.02 19.31 33.91 19.3 33.91C19.08 33.95 18.84 33.92 18.64 34.05C18.46 34.18 18.15 33.89 18.07 34.33C18.07 34.35 18.03 34.25 18.02 34.25C17.76 34.16 17.66 34.55 17.37 34.35C17.36 34.34 17.37 34.39 17.37 34.4C17.3 34.82 16.83 34.14 16.87 34.82C16.87 34.84 16.83 34.76 16.81 34.74C16.42 34.32 16.54 35.25 16.12 34.75C16.1 34.73 16.12 34.81 16.12 34.84C16.1 35.33 15.8 35.19 15.58 35.16C15.34 35.14 15.4 35.79 14.95 35.34C14.79 35.19 14.8 35.52 14.72 35.54C14.5 35.57 14.25 35.57 14.13 35.82C14.02 36.06 13.58 35.67 13.64 36.24C13.65 36.25 13.59 36.16 13.57 36.16C13.25 36.02 13.35 36.63 12.93 36.31C12.91 36.3 12.98 36.46 12.97 36.47C12.79 36.59 12.61 36.71 12.42 36.81C12.41 36.82 12.34 36.72 12.34 36.73C12.31 37.09 11.91 36.86 11.82 37.13C11.75 37.39 11.31 37.12 11.37 37.58C11.37 37.58 11.34 37.55 11.33 37.54C11.04 37.27 11.15 37.6 11.08 37.64C10.9 37.75 10.77 37.92 10.59 38.03C10.4 38.16 10.21 38.3 10.04 38.45C9.89 38.59 9.67 38.64 9.55 38.82C9.49 38.9 9.39 38.93 9.34 39.03C9.24 39.21 9.16 39.38 8.93 39.4L9.9 40.53C9.98 40.34 10.3 40.41 10.25 40.08Z" fill="#043C3A" fill-opacity="1.000000" fill-rule="nonzero"/>
		<path id="Vector" d="M8.5 55.16C8.5 55.15 8.58 55.22 8.59 55.21C8.81 55.05 9.06 54.94 9.21 54.71C9.35 54.5 9.77 54.61 9.7 54.15C9.69 54.14 9.77 54.2 9.79 54.2C10.08 54.16 10.07 53.75 10.44 53.81C10.45 53.81 10.42 53.76 10.42 53.75C10.38 53.31 11.06 53.78 10.85 53.13C10.84 53.11 10.91 53.18 10.94 53.19C11.45 53.46 11.12 52.57 11.69 52.93C11.71 52.95 11.67 52.87 11.67 52.84C11.61 52.34 11.97 52.38 12.21 52.34C12.48 52.31 12.35 51.66 12.89 52C13.08 52.12 13.04 51.78 13.14 51.75C13.39 51.67 13.66 51.62 13.79 51.36C13.92 51.08 14.41 51.43 14.35 50.86C14.35 50.84 14.41 50.92 14.43 50.93C14.78 51.04 14.72 50.41 15.17 50.72C15.19 50.74 15.12 50.57 15.14 50.56C15.35 50.43 15.57 50.3 15.8 50.2C15.81 50.19 15.88 50.29 15.88 50.28C15.98 49.91 16.38 50.15 16.53 49.89C16.68 49.63 17.1 49.94 17.15 49.47C17.15 49.46 17.18 49.5 17.19 49.51C17.44 49.82 17.4 49.47 17.49 49.44C17.72 49.35 17.92 49.2 18.15 49.12C18.22 49.1 18.28 49.08 18.35 49.05L18.44 49.02L18.48 49C18.47 49 18.46 49.01 18.46 49.01C18.37 49.03 18.26 49 18.2 48.95C18.15 48.91 18.1 48.86 18.07 48.78C18.05 48.74 18.05 48.69 18.05 48.66C18.05 48.65 18.06 48.64 18.06 48.65L18.05 48.67L18.04 48.71C18.04 48.74 18.04 48.77 18.04 48.8C18.04 48.91 17.97 49.01 17.98 49.13C17.99 49.36 17.97 49.6 17.77 49.76C17.67 49.85 17.57 49.97 17.66 50.19C17.76 50.45 17.31 50.52 17.49 50.83C17.5 50.84 17.39 50.81 17.38 50.82C17.26 51.05 17.08 51.25 17.03 51.51C16.99 51.76 16.56 51.8 16.8 52.2C16.8 52.21 16.71 52.17 16.7 52.18C16.45 52.32 16.6 52.7 16.23 52.77C16.23 52.77 16.26 52.8 16.27 52.81C16.37 53 16.22 53.05 16.09 53.11C15.97 53.17 15.88 53.25 16.08 53.52C16.09 53.54 16.01 53.5 15.98 53.5C15.7 53.45 15.71 53.6 15.7 53.75C15.7 53.9 15.68 54.05 15.35 53.95C15.33 53.95 15.39 54.01 15.4 54.03C15.62 54.49 15.25 54.55 15.03 54.65C14.87 54.72 14.95 54.99 14.85 55.12L15.79 55.94C15.84 55.87 15.95 55.84 16.16 55.9C16.38 55.96 16.25 55.65 16.34 55.59C16.55 55.44 16.81 55.32 16.85 55.02C16.89 54.71 17.47 54.91 17.24 54.37C17.23 54.35 17.32 54.41 17.34 54.41C17.7 54.41 17.46 53.83 17.98 53.99C18.01 53.99 17.89 53.85 17.9 53.84C18.06 53.64 18.24 53.47 18.42 53.29C18.43 53.28 18.52 53.35 18.52 53.34C18.49 52.95 18.96 53.07 19.02 52.77C19.08 52.47 19.57 52.65 19.48 52.18C19.48 52.17 19.51 52.2 19.53 52.21C19.86 52.43 19.71 52.11 19.79 52.05C19.99 51.9 20.13 51.7 20.32 51.55C20.54 51.4 20.75 51.23 20.95 51.05C21.13 50.91 21.38 50.85 21.54 50.66C21.61 50.57 21.73 50.55 21.8 50.45C21.94 50.27 22.12 50.1 22.37 50.11C22.52 50.12 22.63 50.14 22.63 50C22.65 49.97 22.67 49.92 22.7 49.88C22.84 49.69 23.18 49.87 23.24 49.52C23.25 49.5 23.31 49.6 23.32 49.6C23.56 49.5 23.83 49.49 24.03 49.32C24.13 49.24 24.26 49.27 24.39 49.26C24.51 49.25 24.61 49.21 24.66 48.98C24.66 48.96 24.71 49.06 24.72 49.06C24.79 49.08 24.85 49.06 24.91 49.04C24.96 49.02 25.02 48.99 25.07 48.96C25.18 48.9 25.29 48.86 25.44 48.96C25.45 48.96 25.44 48.92 25.45 48.91C25.51 48.69 25.67 48.76 25.74 48.82C25.77 48.85 25.8 48.87 25.79 48.85C25.79 48.83 25.77 48.76 25.8 48.6C25.81 48.58 25.78 48.67 25.77 48.69C25.7 48.81 25.61 48.81 25.57 48.78C25.53 48.74 25.55 48.68 25.58 48.66C25.62 48.63 25.65 48.61 25.64 48.62C25.63 48.62 25.58 48.65 25.42 48.65C25.4 48.65 25.48 48.65 25.5 48.65C25.56 48.64 25.6 48.68 25.63 48.7C25.67 48.73 25.69 48.76 25.71 48.79C25.74 48.85 25.74 48.9 25.73 48.96C25.7 49.07 25.59 49.16 25.52 49.24C25.44 49.33 25.53 49.46 25.57 49.59C25.61 49.72 25.57 49.84 25.26 49.85C25.04 49.85 25.27 50.08 25.21 50.15C25.07 50.34 24.87 50.49 24.91 50.77C24.92 50.91 24.78 50.96 24.68 51.03C24.57 51.1 24.5 51.18 24.66 51.43C24.67 51.45 24.58 51.4 24.56 51.4C24.38 51.42 24.37 51.56 24.34 51.68C24.31 51.81 24.25 51.92 23.99 51.87C23.97 51.86 24.1 51.99 24.09 52C23.94 52.2 23.79 52.39 23.62 52.58C23.62 52.59 23.52 52.52 23.52 52.54C23.57 52.92 23.1 52.84 23.06 53.14C23.04 53.29 22.91 53.34 22.8 53.4L24 54.58C24.12 54.52 24.22 54.45 24.17 54.22C24.17 54.21 24.2 54.23 24.22 54.25C24.55 54.45 24.4 54.15 24.48 54.08C24.67 53.93 24.81 53.72 25 53.58C25.21 53.42 25.42 53.25 25.62 53.08C25.8 52.92 26.05 52.86 26.2 52.67C26.28 52.59 26.39 52.55 26.46 52.45C26.6 52.27 26.78 52.09 27.03 52.09C27.17 52.09 27.32 52.05 27.4 51.83C27.48 51.57 27.87 51.79 27.93 51.44C27.93 51.42 28 51.51 28.01 51.51C28.25 51.41 28.52 51.36 28.72 51.18C28.9 51.01 29.28 51.24 29.33 50.78C29.33 50.76 29.39 50.85 29.4 50.85C29.69 50.89 29.79 50.49 30.13 50.66C30.13 50.66 30.13 50.65 30.13 50.64C30.13 50.63 30.13 50.63 30.12 50.62C30.12 50.62 30.11 50.61 30.11 50.61C29.95 50.57 29.84 50.55 29.73 50.52C29.62 50.49 29.49 50.45 29.39 50.34C29.34 50.29 29.3 50.22 29.28 50.15L29.27 50.12C29.27 50.12 29.27 50.12 29.27 50.13C29.27 50.13 29.27 50.14 29.27 50.15C29.27 50.16 29.28 50.17 29.28 50.18C29.31 50.23 29.38 50.27 29.54 50.32C29.56 50.32 29.47 50.34 29.45 50.35C29.19 50.46 29.28 50.55 29.36 50.67C29.43 50.78 29.49 50.91 29.17 50.96C29.14 50.96 29.22 50.99 29.25 51C29.45 51.13 29.47 51.26 29.43 51.36C29.38 51.47 29.27 51.54 29.19 51.61C29.1 51.69 29.18 51.83 29.19 51.96C29.2 52.08 29.16 52.2 28.84 52.15C28.64 52.12 28.83 52.37 28.76 52.43C28.61 52.56 28.43 52.64 28.38 52.83L29.7 53.94C29.7 53.91 29.71 53.88 29.71 53.84C29.72 53.7 29.86 53.67 29.97 53.62C30.09 53.57 30.17 53.5 30.05 53.23C30.04 53.22 30.13 53.28 30.15 53.28C30.32 53.29 30.35 53.16 30.4 53.04C30.45 52.92 30.52 52.83 30.77 52.94C30.79 52.95 30.69 52.8 30.7 52.79C30.86 52.62 31.05 52.48 31.24 52.35C31.25 52.34 31.33 52.43 31.33 52.42C31.35 52.23 31.46 52.19 31.58 52.16C31.71 52.14 31.83 52.13 31.89 51.99C31.94 51.85 32.09 51.87 32.21 51.85C32.32 51.83 32.43 51.8 32.45 51.57C32.45 51.56 32.47 51.59 32.49 51.61C32.73 51.92 32.68 51.58 32.77 51.55C32.99 51.48 33.18 51.33 33.4 51.28C33.53 51.25 33.65 51.22 33.77 51.19C33.89 51.15 34.01 51.11 34.13 51.08C34.24 51.06 34.36 51.05 34.47 51.05C34.58 51.05 34.69 51.04 34.8 51C34.9 50.95 35.01 50.99 35.11 50.94C35.31 50.84 35.52 50.8 35.72 50.93L35.74 49.44C35.51 49.53 35.21 49.23 34.98 49.54C34.97 49.55 34.95 49.44 34.93 49.44C34.78 49.44 34.63 49.42 34.48 49.43C34.33 49.44 34.19 49.44 34.05 49.51C33.92 49.57 33.77 49.53 33.62 49.52C33.48 49.52 33.35 49.56 33.27 49.79C33.26 49.81 33.22 49.71 33.2 49.71C33.05 49.67 32.92 49.76 32.8 49.83C32.67 49.89 32.54 49.95 32.36 49.87C32.35 49.87 32.36 49.92 32.36 49.93C32.3 50.15 32.14 50.1 31.99 50.09C31.84 50.08 31.69 50.11 31.71 50.45C31.72 50.47 31.66 50.4 31.64 50.38C31.4 50.21 31.31 50.36 31.22 50.5C31.14 50.65 31.06 50.78 30.77 50.58C30.75 50.57 30.78 50.65 30.78 50.67C30.78 50.93 30.69 51.05 30.57 51.11C30.44 51.17 30.28 51.18 30.15 51.21C30 51.25 29.96 51.43 29.9 51.57C29.84 51.71 29.74 51.8 29.43 51.68C29.21 51.6 29.29 51.95 29.2 52C29.07 52.07 28.94 52.15 28.83 52.25C28.72 52.34 28.63 52.46 28.61 52.63C28.59 52.77 28.46 52.82 28.33 52.89L29.64 54C29.8 53.92 29.95 53.81 29.81 53.5C29.8 53.48 29.9 53.53 29.92 53.53C30.12 53.49 30.15 53.31 30.18 53.16C30.22 53.01 30.27 52.87 30.55 52.84C30.58 52.84 30.43 52.74 30.44 52.72C30.56 52.44 30.67 52.16 30.75 51.87C30.75 51.85 30.87 51.87 30.86 51.86C30.76 51.67 30.83 51.53 30.9 51.39C30.96 51.24 31.04 51.1 30.97 50.93C30.9 50.78 30.98 50.64 31.02 50.48C31.06 50.34 31.07 50.18 30.86 50.05C30.85 50.04 30.89 50.03 30.91 50.02C30.95 50 30.99 49.98 31.02 49.96C31.02 49.96 31.03 49.95 31.04 49.95C31.04 49.94 31.04 49.92 31.05 49.91C31.05 49.88 31.06 49.85 31.05 49.81C31.05 49.69 31 49.57 30.92 49.47C30.77 49.28 30.54 49.19 30.36 49.1C30.14 48.98 29.85 48.96 29.6 49.04C29.57 49.05 29.54 49.06 29.51 49.07C29.5 49.08 29.5 49.08 29.48 49.08L29.44 49.11L29.35 49.15C29.24 49.21 29.12 49.28 29 49.32C28.73 49.42 28.47 49.55 28.22 49.69C27.99 49.81 27.72 49.84 27.53 50.02C27.43 50.1 27.31 50.12 27.22 50.22C27.05 50.4 26.85 50.56 26.59 50.57C26.44 50.57 26.27 50.62 26.19 50.86C26.1 51.12 25.68 50.95 25.64 51.31C25.64 51.32 25.56 51.24 25.55 51.24C25.31 51.38 25.02 51.48 24.84 51.7C24.68 51.91 24.24 51.79 24.29 52.26C24.29 52.28 24.21 52.21 24.2 52.21C23.89 52.26 23.89 52.69 23.5 52.65C23.5 52.65 23.52 52.69 23.52 52.7C23.59 53.15 22.85 52.74 23.11 53.39C23.12 53.4 23.05 53.35 23.02 53.34C22.91 53.3 22.84 53.3 22.79 53.33L24.07 54.57C24.26 54.46 24.04 53.97 24.55 54.15C24.57 54.16 24.52 54.09 24.52 54.07C24.35 53.58 24.72 53.53 24.96 53.42C25.09 53.36 25.08 53.18 25.11 53.03C25.15 52.89 25.22 52.78 25.54 52.84C25.76 52.89 25.63 52.57 25.71 52.49C25.81 52.4 25.93 52.31 26.02 52.2C26.11 52.09 26.18 51.96 26.18 51.8C26.18 51.63 26.33 51.56 26.44 51.46C26.56 51.37 26.63 51.24 26.44 51C26.43 50.98 26.54 51.01 26.56 51C26.74 50.94 26.73 50.77 26.73 50.61C26.74 50.46 26.77 50.32 27.04 50.26C27.07 50.25 26.9 50.17 26.91 50.15C26.98 49.87 27.05 49.58 27.09 49.28C27.09 49.27 27.22 49.27 27.21 49.25C27.09 49.08 27.12 48.94 27.18 48.79C27.21 48.74 27.24 48.59 27.23 48.46C27.23 48.33 27.19 48.2 27.1 48.08C27.02 47.97 26.95 47.86 26.89 47.74C26.82 47.62 26.73 47.48 26.6 47.36C26.47 47.25 26.3 47.16 26.14 47.14C25.98 47.12 25.84 47.16 25.73 47.27C25.73 47.28 25.71 47.24 25.7 47.22C25.59 47.03 25.49 47.03 25.42 47.08C25.35 47.12 25.3 47.22 25.24 47.23C24.98 47.29 24.74 47.43 24.47 47.48C24.19 47.56 23.91 47.67 23.64 47.78C23.4 47.89 23.13 47.91 22.91 48.07C22.81 48.14 22.69 48.17 22.59 48.26C22.41 48.44 22.2 48.58 21.93 48.59C21.77 48.59 21.65 48.57 21.64 48.71C21.62 48.75 21.59 48.8 21.56 48.84C21.4 49.03 21.05 48.92 21 49.28C20.99 49.3 20.92 49.21 20.91 49.22C20.65 49.34 20.38 49.45 20.19 49.67C20.01 49.87 19.58 49.75 19.62 50.22C19.62 50.23 19.55 50.17 19.53 50.17C19.22 50.21 19.23 50.64 18.84 50.59C18.83 50.59 18.86 50.63 18.86 50.65C18.91 51.08 18.19 50.67 18.44 51.32C18.44 51.33 18.37 51.28 18.34 51.27C17.79 51.05 18.22 51.92 17.59 51.64C17.57 51.63 17.62 51.7 17.62 51.73C17.75 52.22 17.39 52.24 17.14 52.33C16.87 52.43 17.14 53.05 16.52 52.84C16.31 52.77 16.42 53.1 16.33 53.15C16.11 53.3 15.84 53.43 15.79 53.73C15.75 54.04 15.16 53.86 15.39 54.4C15.4 54.42 15.31 54.36 15.29 54.36C14.92 54.38 15.18 54.95 14.65 54.83C14.63 54.82 14.74 54.96 14.73 54.97L14.71 55.01L15.89 56.04C16.05 55.84 16.22 55.65 16.38 55.45C16.39 55.44 16.49 55.5 16.49 55.49C16.46 55.29 16.56 55.2 16.68 55.12C16.8 55.03 16.93 54.96 16.93 54.79C16.94 54.64 17.07 54.57 17.18 54.49C17.29 54.4 17.38 54.29 17.28 54.07C17.27 54.07 17.31 54.08 17.33 54.09C17.72 54.2 17.49 53.93 17.56 53.84C17.71 53.63 17.78 53.36 17.93 53.14C18 53.02 18.08 52.89 18.14 52.76C18.21 52.63 18.27 52.5 18.33 52.37C18.43 52.13 18.63 51.94 18.67 51.67C18.69 51.55 18.78 51.46 18.79 51.32C18.81 51.07 18.86 50.82 19.06 50.65C19.18 50.55 19.28 50.41 19.19 50.17C19.09 49.91 19.53 49.78 19.33 49.47C19.32 49.46 19.43 49.47 19.44 49.46C19.49 49.33 19.55 49.2 19.6 49.06L19.61 49.04C19.61 49.03 19.62 49.03 19.62 49C19.63 48.96 19.64 48.92 19.65 48.87C19.66 48.78 19.67 48.69 19.66 48.6C19.64 48.41 19.57 48.23 19.47 48.08C19.37 47.95 19.28 47.82 19.16 47.7C19.04 47.58 18.89 47.47 18.72 47.41C18.55 47.34 18.36 47.32 18.18 47.37C18.1 47.39 18.02 47.43 17.95 47.49C17.93 47.5 17.91 47.52 17.9 47.53C17.9 47.54 17.89 47.55 17.89 47.56C17.88 47.59 17.87 47.61 17.87 47.64C17.87 47.66 17.81 47.57 17.8 47.57C17.49 47.52 17.37 47.92 17.02 47.77C17.01 47.76 17.02 47.81 17.02 47.82C16.94 48.26 16.38 47.64 16.42 48.33C16.42 48.35 16.37 48.28 16.34 48.26C15.89 47.89 16.02 48.83 15.52 48.38C15.5 48.36 15.52 48.44 15.52 48.47C15.49 48.98 15.14 48.89 14.87 48.9C14.59 48.91 14.65 49.58 14.12 49.19C13.94 49.06 13.95 49.4 13.85 49.43C13.58 49.5 13.29 49.54 13.15 49.83C13.02 50.1 12.5 49.76 12.57 50.35C12.57 50.37 12.5 50.29 12.48 50.28C12.12 50.19 12.21 50.82 11.73 50.56C11.71 50.55 11.78 50.71 11.77 50.72C11.56 50.88 11.34 51.03 11.12 51.18C11.11 51.19 11.03 51.1 11.03 51.11C10.98 51.5 10.53 51.33 10.42 51.63C10.32 51.92 9.83 51.71 9.88 52.19C9.88 52.2 9.85 52.17 9.83 52.16C9.51 51.93 9.63 52.26 9.54 52.32C9.33 52.46 9.18 52.68 8.97 52.83C8.74 53 8.53 53.19 8.32 53.39C8.14 53.56 7.89 53.67 7.75 53.88C7.68 53.98 7.57 54.03 7.5 54.15C7.38 54.37 7.28 54.58 7.02 54.64L8.07 55.7C8.17 55.5 8.53 55.52 8.5 55.16Z" fill="#043C3A" fill-opacity="1.000000" fill-rule="nonzero"/>
		<path id="Vector" d="M33.47 77.94L33.47 61.06L39.05 60.18L48.32 59.62L44.73 46.07L39.05 33.37L50.31 39.07L55.23 42.52L66.49 49.81L74.35 50.56L85.99 50.56L76.81 61.06L70.94 68.87L64.03 74.85L38.48 74.29L33.47 77.94Z" fill="#87D8C8" fill-opacity="1.000000" fill-rule="nonzero"/>
		<path id="Vector" d="M77.63 50.63L77.8 49.53L76.85 49.62C76.83 49.62 76.81 49.63 76.8 49.62C76.03 49.61 75.26 49.68 74.49 49.66C73.64 49.65 72.79 49.65 71.94 49.67C71.56 49.68 71.18 49.66 70.81 49.64L70.52 49.63L70.25 49.63C70.14 49.63 70.02 49.61 69.9 49.59C69.68 49.56 69.5 49.41 69.31 49.27C69.22 49.2 69.14 49.12 69.07 49.02C69.04 48.97 69 48.92 68.98 48.86C68.97 48.84 68.95 48.79 68.93 48.75L68.88 48.63C68.75 48.29 68.65 47.95 68.59 47.61C68.52 47.19 68.49 46.91 68.3 46.74C68.25 46.65 68.17 46.53 68.1 46.39C67.78 45.79 67.8 45.02 67.3 44.46C67.28 44.44 67.37 44.36 67.36 44.32C67.09 43.53 66.88 42.72 66.52 41.97C66.19 41.28 66.26 40.42 65.62 39.85C65.6 39.82 65.68 39.75 65.67 39.71C65.65 39.6 65.63 39.5 65.6 39.4L65.51 39.12L65.17 38.94C64.56 38.61 63.83 38.52 63.31 38.01C63.3 38 63.26 38.03 63.24 38.03C62.41 38.06 62.02 37.02 61.09 37.3C61.06 37.31 61.05 37.2 61.03 37.16C60.54 36.36 59.4 36.85 58.96 35.95C58.95 35.92 58.87 35.97 58.82 35.98C57.95 36.07 57.29 35.5 56.69 35.1C56.04 34.67 55.07 34.91 54.56 34.03C54.47 33.88 54.29 33.82 54.09 33.78L54.01 33.77L54 33.76L53.99 33.76L53.94 33.75C53.87 33.72 53.8 33.71 53.72 33.69C53.41 33.65 53.1 33.77 52.9 33.95C52.7 34.13 52.58 34.39 52.57 34.65C52.56 34.78 52.58 34.91 52.62 35.02C52.64 35.06 52.65 35.1 52.67 35.15C52.92 35.9 53.14 36.69 53.6 37.34C54.07 37.99 53.86 38.92 54.65 39.41C54.67 39.42 54.59 39.51 54.6 39.55C54.65 40.32 55.41 40.82 55.37 41.64L55.23 41.64C55.2 41.64 55.15 41.52 55.12 41.53C54.33 41.82 53.53 41.41 52.74 41.59C51.97 41.76 51.19 41.31 50.42 41.71C50.41 41.72 50.39 41.68 50.37 41.66C50.04 41.28 49.72 41.61 49.4 41.6C48.63 41.59 47.86 41.66 47.09 41.64C46.24 41.62 45.39 41.63 44.54 41.65C44.28 41.65 44.03 41.64 43.78 41.63L42.75 41.59L43.03 42.64C43.16 43.12 43.28 43.6 43.47 44.07C43.6 44.39 43.67 44.74 43.82 45.09C44.1 45.74 44.37 46.44 44.44 47.12C44.48 47.51 44.59 47.99 44.91 48.49C45.27 49.05 45.12 49.88 45.6 50.46C45.62 50.48 45.52 50.56 45.53 50.6C45.75 51.4 45.92 52.22 46.23 52.99C46.53 53.7 46.41 54.55 47.01 55.16C47.04 55.18 46.95 55.26 46.96 55.3C47.04 56.09 47.57 56.75 47.56 57.57C47.54 57.57 47.52 57.57 47.5 57.57C47.31 57.59 47.12 57.66 46.94 57.82C46.92 57.84 46.87 57.75 46.83 57.72C46.05 57.2 45.22 58.11 44.44 57.48C44.42 57.46 44.37 57.54 44.33 57.57C43.57 58.01 42.73 57.77 42.03 57.66C41.26 57.54 40.47 58.16 39.64 57.57C39.36 57.37 38.87 57.67 38.56 57.64C37.77 57.58 36.96 57.47 36.18 57.64C35.4 57.81 34.62 57.25 33.86 57.78C33.85 57.8 33.77 57.7 33.7 57.69C33.36 57.64 33.01 57.75 32.73 57.95C32.45 58.15 32.24 58.44 32.13 58.75C32.06 58.91 32.03 59.07 32 59.23C31.98 59.39 31.98 59.59 31.97 59.66C31.95 59.85 31.89 60.05 31.77 60.24C31.75 60.27 31.93 60.34 31.93 60.4C31.95 61.19 31.95 61.98 31.95 62.77C31.95 62.81 31.83 62.85 31.84 62.88C32.13 63.67 31.72 64.47 31.9 65.26C32.08 66.03 31.62 66.81 32.03 67.58C32.03 67.59 31.99 67.61 31.97 67.63C31.59 67.96 31.92 68.28 31.91 68.6C31.9 69.37 31.97 70.14 31.95 70.9C31.94 71.76 31.94 72.61 31.96 73.46C31.97 74.21 31.88 74.96 31.94 75.72C31.97 76.07 31.93 76.42 31.97 76.8C32.05 77.5 32.13 78.18 31.99 78.85C32 79.07 32.07 79.31 32.22 79.51C32.36 79.7 32.56 79.85 32.78 79.93C33 80.01 33.27 80.02 33.52 79.94C33.64 79.9 33.76 79.84 33.86 79.77C33.98 79.67 33.98 79.66 34.03 79.63C34.31 79.39 34.57 79.13 34.72 78.79C34.74 78.76 34.85 78.81 34.88 78.79C35.49 78.22 36.14 77.7 36.68 77.07C37.18 76.48 37.99 76.2 38.26 75.38C38.27 75.35 38.37 75.39 38.41 75.37C39.08 74.92 39.43 74.13 40.19 73.78C40.2 73.77 40.18 73.72 40.19 73.7C40.46 72.91 41.57 72.93 41.64 71.96C41.65 71.93 41.75 71.96 41.79 71.95C42.72 71.78 42.67 70.55 43.66 70.45C43.69 70.45 43.67 70.36 43.69 70.31C43.91 69.47 44.68 69.05 45.26 68.64C45.9 68.18 46.02 67.19 47.03 67.03C47.37 66.97 47.51 66.42 47.75 66.22C48.36 65.71 49.01 65.22 49.45 64.55C49.86 63.93 50.71 63.76 50.96 63L51.08 62.85C51.08 62.79 51.08 62.73 51.08 62.67C51.07 62.64 51.19 62.66 51.22 62.63C51.85 62.11 51.78 61.13 52.59 60.72C52.63 60.7 52.51 60.55 52.54 60.5C52.93 59.82 53.34 59.14 53.75 58.47C53.77 58.44 53.9 58.46 53.9 58.43C54.07 57.6 54.83 57.13 55.09 56.36C55.34 55.61 56.14 55.18 56.18 54.32C56.18 54.3 56.23 54.3 56.26 54.3C56.76 54.22 56.64 53.77 56.81 53.5C57.22 52.85 57.57 52.16 57.98 51.51C58.43 50.79 58.87 50.06 59.3 49.33C59.49 49 59.7 48.69 59.91 48.38C60.01 48.22 60.12 48.06 60.21 47.9C60.22 47.89 60.23 47.88 60.23 47.87C60.62 48.38 61 48.93 61.23 49.51C61.37 49.87 61.59 50.31 62.03 50.71C62.52 51.16 62.6 51.99 63.21 52.43C63.23 52.45 63.16 52.55 63.18 52.58C63.6 53.3 63.97 54.05 64.48 54.71C64.94 55.32 65.05 56.18 65.79 56.61C65.82 56.63 65.76 56.72 65.77 56.76C66.07 57.51 66.77 58.01 66.95 58.83C66.96 58.85 67.01 58.84 67.03 58.85C67.74 59.28 67.49 60.36 68.42 60.64C68.45 60.64 68.4 60.74 68.4 60.79C68.37 61.72 69.59 61.94 69.47 62.93C69.46 62.96 69.56 62.96 69.6 62.98C70.38 63.38 70.62 64.22 70.91 64.87C71.22 65.59 72.16 65.92 72.11 66.94L72.05 68.1L73.71 66.68L73.71 66.68C73.97 66.45 73.8 65.91 73.9 65.62C74.15 64.87 74.45 64.1 74.48 63.31C74.51 62.51 75.23 61.89 74.9 61.02C74.89 61 75.01 60.98 75.03 60.94C75.48 60.26 75.11 59.34 75.77 58.71C75.8 58.69 75.64 58.57 75.66 58.52C75.83 57.75 76.02 56.98 76.22 56.22C76.22 56.18 76.35 56.17 76.35 56.14C76.26 55.3 76.84 54.62 76.86 53.81C76.88 53.02 77.52 52.37 77.31 51.53C77.3 51.52 77.35 51.51 77.37 51.49C77.78 51.29 77.59 50.92 77.63 50.63ZM47.67 57.65C47.67 57.65 47.67 57.65 47.67 57.65L47.68 57.65C47.69 57.64 47.71 57.65 47.71 57.65C47.73 57.65 47.73 57.66 47.72 57.67C47.71 57.67 47.7 57.67 47.68 57.66C47.68 57.66 47.68 57.65 47.67 57.65ZM53.3 35.28L53.29 35.28C53.29 35.28 53.29 35.28 53.29 35.28L53.3 35.28C53.34 35.3 53.39 35.31 53.44 35.33C53.41 35.32 53.38 35.32 53.36 35.31C53.34 35.3 53.32 35.29 53.3 35.28Z" fill="#043C3A" fill-opacity="1.000000" fill-rule="nonzero"/>
		<path id="Vector" d="M37.49 75.14C37.5 75.13 37.51 75.25 37.53 75.25C37.82 75.27 38.11 75.36 38.41 75.29C38.68 75.22 38.95 75.58 39.22 75.19C39.23 75.17 39.25 75.28 39.26 75.28C39.54 75.44 39.83 75.11 40.11 75.4C40.11 75.4 40.12 75.35 40.13 75.34C40.39 74.97 40.67 75.76 40.93 75.12C40.93 75.1 40.95 75.19 40.97 75.22C41.24 75.74 41.54 74.83 41.81 75.46C41.82 75.48 41.84 75.4 41.85 75.37C42.12 74.93 42.41 75.17 42.66 75.28C42.94 75.4 43.21 74.79 43.51 75.37C43.61 75.57 43.78 75.27 43.89 75.3C44.17 75.36 44.46 75.47 44.73 75.3C45.01 75.14 45.28 75.69 45.55 75.16C45.56 75.14 45.58 75.25 45.59 75.26C45.86 75.53 46.15 74.96 46.42 75.44C46.43 75.46 46.46 75.28 46.48 75.28C46.76 75.27 47.03 75.26 47.31 75.27C47.33 75.27 47.34 75.39 47.35 75.38C47.63 75.08 47.92 75.49 48.2 75.31C48.47 75.14 48.74 75.6 49.02 75.19C49.02 75.18 49.03 75.22 49.03 75.24C49.15 75.63 49.26 75.29 49.38 75.3C49.65 75.31 49.92 75.25 50.19 75.26C50.5 75.28 50.8 75.27 51.1 75.25C51.36 75.24 51.63 75.34 51.9 75.27C52.02 75.24 52.15 75.28 52.28 75.24C52.53 75.17 52.79 75.12 53.03 75.25C53.16 75.33 53.34 75.37 53.54 75.22C53.77 75.04 54.03 75.42 54.28 75.14C54.29 75.13 54.3 75.25 54.32 75.25C54.61 75.27 54.91 75.36 55.2 75.29C55.47 75.22 55.75 75.58 56.02 75.19C56.03 75.17 56.04 75.28 56.06 75.28C56.34 75.44 56.62 75.11 56.9 75.4C56.91 75.4 56.91 75.35 56.92 75.34C57.18 74.97 57.46 75.76 57.72 75.12C57.73 75.1 57.74 75.19 57.76 75.22C58.03 75.74 58.33 74.83 58.6 75.46C58.61 75.48 58.63 75.4 58.64 75.37C58.91 74.93 59.21 75.17 59.46 75.28C59.73 75.4 60 74.79 60.3 75.37C60.4 75.57 60.57 75.27 60.68 75.3C60.96 75.36 61.25 75.47 61.52 75.3C61.8 75.14 62.08 75.69 62.34 75.16C62.35 75.14 62.37 75.25 62.38 75.26C62.66 75.53 62.94 74.96 63.21 75.44C63.22 75.46 63.25 75.28 63.27 75.28C63.55 75.27 63.83 75.26 64.11 75.27C64.12 75.27 64.14 75.39 64.15 75.38C64.37 75.15 64.59 75.35 64.81 75.36L65.14 75.37L65.42 75.11C65.47 75.06 65.5 75.01 65.52 74.95C65.59 74.63 66.11 74.76 66.01 74.28C66.01 74.27 66.04 74.3 66.06 74.31C66.41 74.5 66.26 74.18 66.34 74.11C66.55 73.92 66.69 73.68 66.89 73.5C67.12 73.3 67.33 73.08 67.53 72.86C67.71 72.66 67.96 72.54 68.11 72.31C68.17 72.2 68.29 72.14 68.35 72.02C68.48 71.79 68.63 71.57 68.9 71.5C69.06 71.45 69.18 71.43 69.15 71.29C69.16 71.25 69.18 71.2 69.2 71.14C69.31 70.91 69.69 70.94 69.67 70.57C69.67 70.55 69.76 70.62 69.77 70.61C70 70.42 70.27 70.27 70.42 70.02C70.57 69.78 71.02 69.84 70.93 69.37C70.93 69.35 71.01 69.41 71.03 69.41C71.33 69.32 71.3 68.89 71.7 68.89C71.71 68.89 71.68 68.85 71.68 68.84C71.6 68.39 72.36 68.76 72.08 68.12C72.08 68.1 72.15 68.15 72.18 68.16C72.75 68.34 72.31 67.48 72.95 67.73C72.97 67.74 72.93 67.67 72.92 67.64C72.8 67.17 73.13 67.11 73.38 67.02L73.48 66.9C73.5 66.89 73.51 66.88 73.52 66.88C73.77 66.71 73.41 66.14 74.06 66.22C74.29 66.25 74.13 65.94 74.21 65.86C74.42 65.66 74.67 65.48 74.68 65.16C74.69 64.84 75.31 64.91 75.01 64.4C75 64.38 75.1 64.43 75.11 64.42C75.49 64.34 75.16 63.79 75.72 63.83C75.74 63.83 75.61 63.71 75.62 63.69C75.76 63.45 75.91 63.22 76.07 62.99C76.07 62.98 76.18 63.03 76.18 63.01C76.09 62.62 76.58 62.6 76.59 62.27C76.59 61.95 77.13 61.97 76.94 61.52C76.93 61.51 76.97 61.53 76.99 61.54C77.37 61.65 77.16 61.37 77.23 61.28C77.39 61.06 77.48 60.8 77.64 60.58C77.82 60.34 77.98 60.08 78.14 59.82C78.27 59.59 78.5 59.42 78.59 59.17C78.64 59.05 78.74 58.96 78.78 58.83C78.85 58.58 78.96 58.34 79.2 58.21C79.33 58.14 79.47 58.02 79.45 57.76C79.43 57.48 79.89 57.47 79.79 57.11C79.79 57.09 79.9 57.14 79.9 57.13C80.09 56.9 80.32 56.7 80.42 56.42C80.51 56.15 80.97 56.12 80.79 55.68C80.78 55.66 80.87 55.71 80.89 55.7C81.17 55.55 81.06 55.13 81.45 55.06C81.46 55.05 81.42 55.02 81.42 55.01C81.25 54.59 82.06 54.79 81.67 54.22C81.66 54.21 81.74 54.24 81.77 54.24C82.36 54.3 81.76 53.55 82.44 53.67C82.46 53.68 82.4 53.62 82.39 53.59C82.17 53.12 82.53 53.01 82.76 52.86C83.01 52.7 82.65 52.13 83.3 52.21C83.52 52.23 83.37 51.92 83.45 51.85C83.65 51.65 83.9 51.47 83.92 51.15C83.92 51.02 84.01 50.96 84.11 50.9L85.02 50.31L83.41 49.6C83.24 49.53 83.07 49.44 82.9 49.77C82.9 49.79 82.88 49.68 82.87 49.67C82.59 49.4 82.31 49.97 82.04 49.49C82.03 49.47 82 49.65 81.98 49.65C81.7 49.66 81.42 49.66 81.14 49.66C81.13 49.66 81.11 49.54 81.1 49.55C80.82 49.84 80.54 49.44 80.26 49.62C79.99 49.79 79.71 49.33 79.44 49.74C79.44 49.75 79.43 49.71 79.42 49.69C79.31 49.3 79.19 49.64 79.08 49.63C78.81 49.61 78.54 49.68 78.26 49.67C77.96 49.65 77.66 49.66 77.36 49.67C77.09 49.69 76.83 49.59 76.56 49.66C76.44 49.68 76.31 49.65 76.18 49.69C75.93 49.76 75.69 49.81 75.45 49.68L75.45 51.17C75.69 51.08 75.97 51.37 76.21 51.09C76.22 51.08 76.24 51.19 76.25 51.19C76.55 51.22 76.84 51.3 77.13 51.23C77.4 51.17 77.68 51.53 77.95 51.13C77.96 51.12 77.97 51.22 77.99 51.23C78.27 51.38 78.55 51.06 78.83 51.34C78.84 51.35 78.85 51.3 78.85 51.29C79.12 50.92 79.39 51.71 79.65 51.07C79.66 51.05 79.68 51.14 79.69 51.16C79.97 51.69 80.26 50.77 80.53 51.41C80.54 51.42 80.56 51.34 80.58 51.32C80.84 50.88 81.14 51.12 81.39 51.23C81.66 51.35 81.94 50.73 82.23 51.32C82.33 51.52 82.5 51.22 82.61 51.25C82.88 51.3 83.15 51.41 83.41 51.28L82.71 49.98C82.71 49.99 82.71 50.01 82.7 50.03C82.69 50.35 82.08 50.28 82.38 50.79C82.38 50.81 82.29 50.77 82.27 50.77C81.89 50.85 82.22 51.4 81.66 51.36C81.64 51.36 81.77 51.48 81.76 51.5C81.62 51.74 81.47 51.97 81.32 52.21C81.31 52.22 81.2 52.16 81.2 52.18C81.29 52.57 80.8 52.59 80.79 52.92C80.79 53.24 80.25 53.22 80.45 53.67C80.45 53.68 80.41 53.66 80.39 53.65C80.01 53.54 80.22 53.82 80.16 53.91C79.99 54.13 79.9 54.39 79.74 54.61C79.56 54.85 79.4 55.11 79.25 55.37C79.11 55.6 78.88 55.77 78.79 56.02C78.75 56.14 78.64 56.23 78.61 56.36C78.53 56.61 78.42 56.85 78.18 56.98C78.05 57.05 77.91 57.17 77.93 57.43C77.95 57.71 77.49 57.73 77.59 58.08C77.59 58.1 77.49 58.05 77.48 58.06C77.3 58.29 77.06 58.49 76.96 58.77C76.87 59.04 76.41 59.07 76.59 59.51C76.6 59.53 76.51 59.48 76.49 59.49C76.21 59.64 76.32 60.06 75.93 60.13C75.93 60.14 75.96 60.17 75.97 60.18C76.13 60.6 75.32 60.4 75.71 60.97C75.72 60.98 75.64 60.95 75.61 60.95C75.02 60.89 75.62 61.64 74.94 61.52C74.92 61.52 74.98 61.57 74.99 61.6C75.22 62.07 74.85 62.18 74.62 62.33C74.37 62.49 74.73 63.06 74.08 62.98C73.86 62.96 74.01 63.27 73.93 63.34C73.73 63.54 73.48 63.72 73.47 64.04C73.46 64.37 72.84 64.29 73.14 64.81C73.15 64.82 73.05 64.78 73.03 64.78C72.65 64.86 72.98 65.42 72.43 65.38C72.4 65.37 72.54 65.5 72.53 65.51C72.42 65.7 72.31 65.87 72.19 66.05L72.29 65.93L72.14 66.07C72.13 66.08 72.04 66.01 72.04 66.02C72.05 66.43 71.56 66.34 71.49 66.67C71.42 66.98 70.9 66.85 71 67.33C71 67.34 70.96 67.32 70.94 67.31C70.59 67.12 70.75 67.43 70.66 67.51C70.46 67.69 70.31 67.93 70.11 68.11C69.89 68.31 69.68 68.53 69.48 68.75C69.3 68.95 69.04 69.07 68.9 69.3C68.83 69.41 68.72 69.48 68.65 69.6C68.53 69.82 68.37 70.04 68.11 70.12C67.94 70.17 67.83 70.18 67.86 70.32C67.84 70.37 67.83 70.42 67.8 70.47C67.7 70.7 67.31 70.68 67.34 71.05C67.34 71.06 67.24 70.99 67.23 71C67.01 71.19 66.74 71.34 66.58 71.6C66.44 71.84 65.98 71.77 66.07 72.24C66.08 72.26 65.99 72.2 65.98 72.2C65.67 72.29 65.7 72.72 65.3 72.72C65.29 72.72 65.32 72.76 65.33 72.77C65.41 73.22 64.65 72.86 64.92 73.5C64.93 73.51 64.85 73.46 64.82 73.45C64.32 73.3 64.61 73.95 64.24 73.93L64.81 73.69C64.78 73.65 64.74 73.6 64.71 73.53C64.7 73.51 64.68 73.59 64.67 73.61C64.4 74.05 64.11 73.81 63.86 73.7C63.59 73.58 63.31 74.2 63.01 73.61C62.91 73.41 62.74 73.71 62.63 73.69C62.35 73.62 62.06 73.51 61.79 73.68C61.51 73.85 61.24 73.29 60.97 73.83C60.96 73.84 60.94 73.74 60.93 73.72C60.66 73.45 60.37 74.03 60.1 73.54C60.09 73.52 60.06 73.7 60.04 73.7C59.76 73.72 59.49 73.72 59.21 73.72C59.19 73.72 59.18 73.6 59.17 73.61C58.89 73.9 58.6 73.5 58.32 73.67C58.05 73.85 57.78 73.39 57.51 73.8C57.5 73.8 57.49 73.76 57.49 73.74C57.37 73.36 57.26 73.69 57.15 73.69C56.87 73.67 56.6 73.74 56.33 73.72C56.03 73.71 55.73 73.71 55.43 73.73C55.16 73.74 54.89 73.65 54.63 73.71C54.5 73.74 54.38 73.7 54.24 73.74C53.99 73.82 53.73 73.86 53.49 73.73C53.36 73.66 53.18 73.61 52.98 73.76C52.75 73.94 52.49 73.56 52.24 73.84C52.23 73.85 52.22 73.74 52.2 73.73C51.91 73.71 51.61 73.62 51.32 73.7C51.05 73.76 50.78 73.4 50.51 73.79C50.5 73.81 50.48 73.71 50.46 73.7C50.18 73.54 49.9 73.87 49.62 73.59C49.62 73.58 49.61 73.63 49.6 73.64C49.34 74.01 49.06 73.22 48.8 73.86C48.8 73.88 48.78 73.79 48.76 73.77C48.49 73.24 48.19 74.15 47.92 73.52C47.91 73.51 47.89 73.59 47.88 73.61C47.61 74.05 47.32 73.81 47.07 73.7C46.79 73.58 46.52 74.2 46.22 73.61C46.12 73.41 45.95 73.71 45.84 73.68C45.56 73.62 45.27 73.51 45 73.68C44.72 73.85 44.44 73.29 44.18 73.82C44.17 73.84 44.15 73.73 44.14 73.72C43.86 73.45 43.58 74.03 43.31 73.54C43.3 73.52 43.27 73.7 43.25 73.7C42.97 73.72 42.69 73.72 42.41 73.72C42.4 73.72 42.39 73.6 42.38 73.61C42.09 73.9 41.81 73.49 41.53 73.67C41.26 73.85 40.98 73.39 40.71 73.79C40.71 73.8 40.7 73.76 40.69 73.74C40.58 73.36 40.46 73.69 40.35 73.68C40.08 73.67 39.81 73.74 39.53 73.72C39.23 73.71 38.93 73.71 38.63 73.73C38.36 73.74 38.1 73.65 37.83 73.71C37.71 73.74 37.58 73.7 37.45 73.74C37.2 73.81 36.96 73.89 36.72 73.76L36.72 75.25C36.96 75.17 37.24 75.42 37.49 75.14Z" fill="#043C3A" fill-opacity="1.000000" fill-rule="nonzero"/>
		<path id="Vector" d="M64.3 73.43C64.3 73.43 64.29 73.31 64.28 73.3C64.09 73.11 63.91 72.87 63.72 72.78C63.55 72.7 63.39 72.19 63.21 72.44C63.2 72.44 63.19 72.33 63.19 72.32C63.02 72.01 62.82 72.18 62.67 71.75C62.66 71.74 62.66 71.78 62.65 71.79C62.46 72.02 62.35 71.08 62.13 71.58C62.13 71.6 62.12 71.5 62.12 71.46C62 70.79 61.72 71.54 61.62 70.77C61.61 70.74 61.59 70.81 61.58 70.83C61.36 71.12 61.2 70.72 61.06 70.48C60.91 70.21 60.63 70.67 60.55 69.93C60.52 69.68 60.36 69.88 60.3 69.8C60.13 69.59 59.98 69.33 59.77 69.34C59.56 69.36 59.52 68.67 59.22 69.04C59.22 69.05 59.23 68.94 59.23 68.92C59.13 68.51 58.8 68.92 58.76 68.3C58.75 68.27 58.69 68.43 58.68 68.42C58.5 68.29 58.32 68.14 58.15 67.99C58.14 67.98 58.17 67.86 58.16 67.87C57.89 67.99 57.84 67.46 57.61 67.47C57.38 67.49 57.37 66.91 57.05 67.15C57.05 67.15 57.06 67.11 57.06 67.09C57.13 66.67 56.94 66.92 56.87 66.86C56.7 66.7 56.51 66.61 56.34 66.46C56.16 66.28 55.97 66.13 55.77 65.98C55.6 65.85 55.48 65.62 55.28 65.53C55.19 65.49 55.13 65.39 55.03 65.36C54.84 65.29 54.64 65.19 54.56 64.95C54.51 64.81 54.43 64.68 54.22 64.71C53.99 64.74 54.02 64.27 53.72 64.38C53.7 64.38 53.75 64.28 53.75 64.27C53.57 64.09 53.44 63.86 53.21 63.77C53 63.68 53.04 63.23 52.64 63.42C52.63 63.42 52.67 63.33 52.67 63.32C52.58 63.04 52.21 63.15 52.2 62.78C52.2 62.77 52.17 62.81 52.16 62.81C51.77 62.97 52.08 62.19 51.52 62.57C51.5 62.58 51.55 62.5 51.55 62.47C51.71 61.91 50.95 62.47 51.17 61.83C51.18 61.81 51.12 61.87 51.09 61.88C51 61.92 50.92 61.94 50.85 61.94L51.06 62.67C50.98 62.45 51.2 62.33 51.34 62.19C51.52 62.01 51.01 61.6 51.65 61.54C51.87 61.53 51.63 61.29 51.68 61.21C51.81 61.01 52 60.81 51.91 60.54C51.82 60.26 52.42 60.21 51.99 59.83C51.98 59.82 52.08 59.84 52.1 59.83C52.43 59.69 51.96 59.29 52.49 59.22C52.51 59.21 52.35 59.14 52.35 59.12L52.39 59L51.38 59.49C51.56 59.54 51.75 59.61 51.93 59.68C51.94 59.68 51.91 59.8 51.92 59.79C52.24 59.6 52.33 60.06 52.62 59.98C52.89 59.89 52.96 60.41 53.31 60.1C53.32 60.1 53.31 60.14 53.31 60.16C53.27 60.55 53.48 60.27 53.56 60.31C53.78 60.4 54.02 60.42 54.23 60.51C54.46 60.61 54.71 60.69 54.95 60.77C55.17 60.83 55.35 61 55.58 61.02C55.69 61.03 55.78 61.1 55.9 61.1C56.12 61.1 56.35 61.14 56.5 61.33C56.59 61.45 56.64 61.55 56.74 61.46C56.78 61.45 56.83 61.44 56.88 61.43C57.1 61.42 57.2 61.77 57.49 61.58C57.51 61.57 57.48 61.68 57.49 61.69C57.72 61.8 57.92 61.96 58.18 61.98C58.42 62 58.51 62.42 58.87 62.12C58.88 62.11 58.86 62.21 58.87 62.23C59.04 62.45 59.38 62.23 59.5 62.58C59.5 62.58 59.53 62.54 59.54 62.53C59.87 62.26 59.82 63.08 60.25 62.55C60.26 62.54 60.25 62.62 60.25 62.66C60.29 63.23 60.84 62.46 60.84 63.13C60.84 63.15 60.88 63.08 60.9 63.06C61.27 62.72 61.42 63.03 61.58 63.21C61.76 63.4 62.19 62.9 62.22 63.54C62.24 63.76 62.48 63.53 62.55 63.58C62.75 63.72 62.95 63.91 63.23 63.83C63.5 63.75 63.53 64.36 63.93 63.93C63.94 63.92 63.92 64.02 63.92 64.04C64.05 64.37 64.47 63.92 64.53 64.45C64.53 64.47 64.61 64.31 64.63 64.32C64.85 64.38 65.08 64.46 65.3 64.55C65.31 64.55 65.28 64.67 65.29 64.66C65.62 64.47 65.7 64.93 65.99 64.85C66.27 64.76 66.33 65.27 66.68 64.97C66.69 64.96 66.68 65 66.68 65.03C66.64 65.42 66.85 65.14 66.94 65.18C67.15 65.27 67.39 65.29 67.6 65.38C67.84 65.48 68.08 65.56 68.32 65.64C68.54 65.7 68.72 65.87 68.95 65.89C69.06 65.89 69.15 65.97 69.27 65.97C69.49 65.97 69.72 66 69.87 66.2C69.95 66.31 70.07 66.4 70.29 66.31C70.53 66.21 70.61 66.65 70.9 66.46C70.91 66.45 70.89 66.56 70.9 66.57C71.12 66.68 71.33 66.84 71.59 66.86C71.83 66.88 71.92 67.3 72.27 67C72.29 66.99 72.27 67.09 72.27 67.11C72.35 67.21 72.46 67.22 72.57 67.23L72.28 65.9C72.21 66.01 72.14 66.12 71.95 66.1C71.94 66.1 71.97 66.13 71.97 66.14C72.08 66.57 71.39 66.14 71.67 66.77C71.68 66.79 71.61 66.73 71.58 66.72C71.33 66.6 71.31 66.75 71.29 66.9C71.26 67.04 71.22 67.18 70.95 67.01C70.93 67 70.97 67.08 70.98 67.1C71.1 67.61 70.78 67.59 70.58 67.64C70.36 67.7 70.54 68.37 70.05 68.05C69.89 67.94 69.95 68.29 69.88 68.33C69.68 68.44 69.47 68.51 69.4 68.82C69.32 69.12 68.92 68.79 69.01 69.42C69.01 69.44 68.95 69.35 68.94 69.35C68.68 69.26 68.76 69.95 68.41 69.67C68.39 69.66 68.45 69.84 68.44 69.85C68.29 70.02 68.13 70.19 67.98 70.35C67.97 70.36 67.92 70.26 67.92 70.27C67.86 70.71 67.57 70.49 67.47 70.83C67.36 71.15 67.09 70.87 67.04 71.43C67.04 71.44 67.03 71.4 67.02 71.38C66.86 71.08 66.88 71.47 66.81 71.53C66.66 71.68 66.52 71.9 66.37 72.05C66.2 72.21 66.03 72.4 65.86 72.59C65.72 72.76 65.56 72.83 65.41 73.05C65.35 73.15 65.27 73.19 65.2 73.31C65.07 73.53 64.93 73.72 64.79 73.73L64.86 75.22C65 74.99 65.2 75.11 65.34 74.68C65.34 74.67 65.36 74.77 65.37 74.76C65.56 74.61 65.76 74.52 65.94 74.27C66.1 74.04 66.34 74.23 66.45 73.68C66.45 73.66 66.48 73.75 66.49 73.75C66.7 73.73 66.82 73.24 67.06 73.34C67.07 73.35 67.06 73.29 67.06 73.28C67.11 73.02 67.21 73.04 67.32 73.03C67.42 73.01 67.52 72.97 67.52 72.58C67.52 72.55 67.56 72.63 67.57 72.65C67.73 72.82 67.8 72.63 67.87 72.47C67.94 72.3 68 72.14 68.19 72.36C68.2 72.37 68.19 72.28 68.19 72.25C68.22 71.67 68.48 71.72 68.68 71.66C68.91 71.6 68.84 70.87 69.26 71.23C69.41 71.35 69.4 70.97 69.48 70.92C69.68 70.81 69.92 70.72 70.02 70.4C70.12 70.09 70.57 70.39 70.47 69.77C70.47 69.75 70.54 69.83 70.55 69.83C70.87 69.89 70.74 69.23 71.18 69.46C71.2 69.47 71.12 69.31 71.13 69.3C71.3 69.11 71.47 68.93 71.65 68.76C71.66 68.75 71.74 68.84 71.74 68.82C71.74 68.41 72.17 68.56 72.24 68.24C72.3 67.94 72.78 68.11 72.68 67.63C72.68 67.63 72.71 67.65 72.73 67.66C73.05 67.87 72.91 67.55 72.98 67.49C73.14 67.35 73.25 67.17 73.4 67.01L74.24 66.14L73.12 65.76C73.09 65.74 73.06 65.73 73.03 65.72C72.8 65.62 72.56 65.54 72.31 65.46C72.1 65.4 71.92 65.23 71.68 65.21C71.57 65.21 71.48 65.13 71.36 65.13C71.14 65.13 70.91 65.1 70.77 64.9C70.69 64.79 70.56 64.7 70.35 64.79C70.11 64.89 70.03 64.45 69.73 64.64C69.72 64.65 69.75 64.54 69.74 64.53C69.51 64.43 69.31 64.26 69.05 64.24C68.81 64.22 68.71 63.8 68.36 64.1C68.35 64.11 68.37 64.01 68.36 64C68.19 63.77 67.85 63.99 67.73 63.65C67.73 63.64 67.7 63.68 67.69 63.69C67.36 63.96 67.41 63.14 66.98 63.67C66.97 63.68 66.98 63.6 66.98 63.57C66.94 62.99 66.39 63.77 66.39 63.09C66.39 63.07 66.35 63.14 66.33 63.16C65.96 63.5 65.81 63.19 65.65 63.01C65.47 62.82 65.04 63.32 65 62.68C64.99 62.46 64.75 62.69 64.67 62.64C64.47 62.5 64.28 62.31 64 62.39C63.73 62.47 63.69 61.86 63.3 62.29C63.29 62.3 63.31 62.2 63.3 62.18C63.18 61.85 62.75 62.31 62.7 61.77C62.7 61.75 62.62 61.91 62.6 61.9C62.37 61.84 62.15 61.76 61.93 61.67C61.92 61.67 61.95 61.55 61.94 61.56C61.61 61.75 61.52 61.29 61.24 61.38C60.96 61.46 60.9 60.95 60.54 61.25C60.54 61.26 60.55 61.22 60.55 61.2C60.59 60.8 60.38 61.08 60.29 61.04C60.08 60.95 59.84 60.93 59.63 60.84C59.39 60.74 59.15 60.66 58.9 60.58C58.69 60.52 58.51 60.35 58.27 60.33C58.16 60.33 58.08 60.25 57.96 60.25C57.73 60.25 57.51 60.22 57.36 60.02C57.27 59.9 57.22 59.81 57.11 59.9C57.08 59.9 57.03 59.92 56.98 59.92C56.76 59.93 56.65 59.58 56.36 59.78C56.35 59.78 56.37 59.67 56.36 59.67C56.14 59.56 55.93 59.39 55.67 59.37C55.43 59.36 55.34 58.94 54.99 59.23C54.97 59.24 55 59.14 54.99 59.13C54.82 58.9 54.48 59.12 54.35 58.78C54.35 58.77 54.33 58.81 54.32 58.82C53.98 59.1 54.03 58.27 53.61 58.8C53.59 58.82 53.61 58.73 53.61 58.7C53.57 58.12 53.02 58.9 53.02 58.22C53.02 58.2 52.97 58.27 52.96 58.29C52.59 58.63 52.44 58.32 52.27 58.14C52.18 58.04 52.02 58.13 51.88 58.15L51 58.24L51.04 58.55C51.06 58.68 51.01 58.78 50.71 58.81C50.49 58.83 50.73 59.06 50.68 59.14C50.54 59.34 50.36 59.54 50.45 59.82C50.53 60.09 49.93 60.14 50.37 60.52C50.38 60.54 50.27 60.51 50.26 60.52C49.93 60.66 50.4 61.07 49.87 61.13C49.84 61.14 50.01 61.21 50 61.23C49.94 61.46 49.87 61.69 49.79 61.91C49.79 61.92 49.67 61.9 49.68 61.91C49.76 62.04 49.73 62.13 49.68 62.22L49.5 62.48L49.92 63.07C50 63.19 50.05 63.36 50.23 63.37C50.52 63.39 50.42 63.9 50.85 63.73C50.86 63.73 50.84 63.77 50.83 63.79C50.68 64.15 50.96 63.95 51.03 64.02C51.2 64.19 51.43 64.28 51.6 64.45C51.79 64.63 52 64.79 52.21 64.95C52.39 65.09 52.52 65.31 52.74 65.41C52.83 65.45 52.9 65.56 53.01 65.6C53.22 65.67 53.41 65.78 53.51 66.03C53.56 66.16 53.66 66.3 53.87 66.28C54.11 66.26 54.11 66.74 54.4 66.63C54.41 66.62 54.37 66.73 54.38 66.74C54.57 66.92 54.73 67.17 54.96 67.26C55.17 67.36 55.2 67.84 55.55 67.63C55.56 67.62 55.53 67.72 55.54 67.74C55.67 68.04 55.99 67.89 56.07 68.31C56.07 68.32 56.09 68.28 56.1 68.27C56.42 68.07 56.32 68.96 56.73 68.5C56.74 68.49 56.72 68.58 56.72 68.62C56.72 69.27 57.23 68.57 57.21 69.31C57.21 69.34 57.24 69.27 57.26 69.26C57.59 68.99 57.71 69.37 57.84 69.62C58 69.89 58.35 69.44 58.39 70.17C58.41 70.42 58.6 70.23 58.67 70.31C58.84 70.53 59.02 70.79 59.24 70.78C59.46 70.77 59.54 71.46 59.83 71.09C59.84 71.08 59.83 71.19 59.83 71.21C59.97 71.63 60.26 71.21 60.36 71.84C60.37 71.87 60.42 71.71 60.43 71.72C60.62 71.86 60.81 72.01 61 72.16C61.01 72.17 61 72.3 61.01 72.29C61.24 72.16 61.38 72.71 61.59 72.69C61.79 72.67 61.94 73.28 62.16 73.02C62.16 73.01 62.17 73.06 62.17 73.08C62.21 73.53 62.32 73.26 62.4 73.32C62.58 73.49 62.77 73.57 62.95 73.73C63.15 73.91 63.36 74.07 63.56 74.22C63.74 74.35 63.92 74.59 64.1 74.67C64.18 74.71 64.27 74.82 64.36 74.85C64.53 74.91 64.68 74.96 64.85 75.23L64.78 73.74C64.63 73.69 64.45 73.28 64.3 73.43Z" fill="#043C3A" fill-opacity="1.000000" fill-rule="nonzero"/>
		<path id="Vector" d="M43.89 41.41C43.88 41.42 43.94 41.31 43.94 41.3C43.87 41.11 43.84 40.87 43.71 40.76C43.6 40.66 43.73 40.21 43.43 40.37C43.41 40.38 43.47 40.29 43.47 40.27C43.48 39.99 43.21 40.08 43.3 39.7C43.3 39.69 43.27 39.72 43.26 39.73C42.96 39.87 43.38 39.09 42.9 39.44C42.88 39.46 42.94 39.38 42.95 39.35C43.21 38.79 42.53 39.31 42.87 38.68C42.88 38.66 42.82 38.71 42.8 38.72C42.44 38.9 42.51 38.55 42.51 38.32C42.52 38.08 42.01 38.37 42.34 37.78C42.45 37.58 42.19 37.69 42.18 37.61C42.15 37.41 42.15 37.17 41.95 37.13C41.74 37.09 42.08 36.56 41.6 36.76C41.59 36.77 41.66 36.69 41.67 36.67C41.8 36.34 41.28 36.55 41.57 36.08C41.59 36.06 41.44 36.16 41.43 36.15C41.34 36 41.26 35.85 41.18 35.68C41.18 35.68 41.27 35.6 41.26 35.6C40.95 35.61 41.19 35.21 40.97 35.16C40.75 35.1 41.05 34.68 40.63 34.76C40.62 34.76 40.66 34.73 40.67 34.72C40.95 34.44 40.65 34.56 40.62 34.49C40.55 34.33 40.42 34.21 40.35 34.05C40.28 33.87 40.19 33.7 40.09 33.54C40 33.4 40 33.2 39.87 33.08C39.81 33.02 39.81 32.93 39.73 32.87C39.66 32.82 39.6 32.76 39.56 32.69C39.55 32.67 39.54 32.65 39.53 32.64C39.53 32.63 39.53 32.62 39.52 32.61C39.52 32.6 39.52 32.59 39.52 32.59L39.54 32.62C39.58 32.67 39.62 32.75 39.64 32.85C39.67 32.96 39.65 33.1 39.56 33.19C39.47 33.29 39.31 33.35 39.15 33.28C39.07 33.24 39 33.22 38.93 33.2C38.88 33.17 38.92 33.2 38.93 33.22L38.97 33.27C39.02 33.35 39.08 33.41 39.22 33.33C39.24 33.32 39.19 33.43 39.19 33.43C39.35 33.55 39.48 33.72 39.68 33.75C39.87 33.78 39.85 34.19 40.2 33.93C40.22 33.92 40.18 34.02 40.18 34.03C40.27 34.26 40.59 34.07 40.61 34.4C40.61 34.41 40.64 34.37 40.65 34.36C40.99 34.12 40.76 34.91 41.22 34.43C41.24 34.42 41.2 34.5 41.2 34.53C41.1 35.08 41.72 34.37 41.56 35.01C41.56 35.03 41.61 34.97 41.63 34.95C42 34.65 42.06 34.96 42.15 35.14C42.24 35.33 42.71 34.88 42.59 35.49C42.55 35.7 42.79 35.49 42.84 35.55C42.98 35.7 43.09 35.89 43.33 35.83C43.57 35.77 43.46 36.35 43.88 35.97C43.89 35.96 43.85 36.06 43.85 36.07C43.87 36.39 44.32 35.99 44.24 36.5C44.23 36.52 44.34 36.37 44.35 36.38C44.52 36.46 44.68 36.54 44.84 36.64C44.85 36.64 44.8 36.75 44.81 36.74C45.11 36.58 45.08 37.03 45.33 36.96C45.57 36.9 45.5 37.39 45.86 37.12C45.87 37.12 45.85 37.16 45.85 37.18C45.73 37.55 45.95 37.3 46.02 37.34C46.17 37.44 46.36 37.47 46.51 37.57C46.67 37.68 46.85 37.77 47.03 37.86C47.19 37.93 47.3 38.1 47.48 38.14C47.57 38.15 47.62 38.22 47.72 38.23C47.9 38.25 48.07 38.3 48.15 38.49C48.19 38.61 48.21 38.7 48.32 38.62C48.35 38.62 48.39 38.61 48.43 38.61C48.61 38.61 48.62 38.95 48.9 38.79C48.91 38.78 48.86 38.88 48.87 38.89C49.03 39.01 49.15 39.18 49.36 39.21C49.55 39.24 49.53 39.65 49.88 39.39C49.89 39.38 49.85 39.48 49.85 39.49C49.94 39.71 50.26 39.52 50.29 39.86C50.29 39.87 50.31 39.83 50.32 39.82C50.66 39.58 50.43 40.36 50.9 39.89C50.91 39.87 50.87 39.96 50.87 39.98C50.77 40.53 51.39 39.83 51.24 40.47C51.23 40.49 51.28 40.42 51.3 40.41C51.68 40.11 51.73 40.41 51.82 40.59C51.92 40.79 52.38 40.34 52.26 40.95C52.22 41.16 52.47 40.95 52.52 41.01C52.65 41.15 52.76 41.34 53 41.29C53.24 41.23 53.13 41.8 53.55 41.43C53.56 41.41 53.52 41.51 53.52 41.53C53.55 41.85 53.99 41.44 53.91 41.95C53.91 41.98 54.01 41.83 54.02 41.83C54.19 41.91 54.35 42 54.51 42.09C54.52 42.1 54.47 42.21 54.48 42.2C54.79 42.04 54.75 42.48 55 42.42C55.24 42.36 55.18 42.85 55.53 42.58C55.54 42.58 55.53 42.61 55.52 42.63C55.4 43.01 55.63 42.75 55.69 42.79C55.84 42.9 56.03 42.93 56.18 43.03L56.27 43.09L56.65 41.64C56.49 41.63 56.34 41.64 56.18 41.65C56.01 41.67 55.84 41.57 55.67 41.63C55.59 41.66 55.51 41.62 55.42 41.67C55.26 41.74 55.08 41.79 54.94 41.65C54.86 41.58 54.75 41.53 54.61 41.69C54.44 41.86 54.31 41.49 54.13 41.77C54.12 41.78 54.12 41.66 54.11 41.66C53.92 41.64 53.75 41.55 53.55 41.63C53.37 41.69 53.25 41.33 53.01 41.73C53 41.74 53.01 41.64 53 41.63C52.85 41.48 52.61 41.8 52.48 41.53C52.48 41.52 52.47 41.57 52.46 41.58C52.22 41.95 52.2 41.17 51.9 41.8C51.89 41.82 51.9 41.73 51.9 41.7C51.83 41.19 51.44 42.09 51.41 41.47C51.41 41.45 51.38 41.53 51.36 41.56C51.09 41.99 50.95 41.76 50.82 41.65C50.68 41.54 50.33 42.13 50.31 41.57C50.3 41.37 50.11 41.66 50.04 41.64C49.88 41.58 49.73 41.48 49.5 41.64C49.27 41.8 49.28 41.28 48.93 41.79C48.92 41.8 48.94 41.7 48.94 41.69C48.85 41.44 48.47 41.98 48.47 41.53C48.47 41.51 48.39 41.68 48.38 41.68C48.19 41.7 48.01 41.7 47.83 41.7C47.82 41.7 47.86 41.59 47.85 41.6C47.56 41.87 47.53 41.5 47.28 41.67C47.04 41.83 47.05 41.41 46.7 41.79C46.7 41.79 46.71 41.76 46.71 41.74C46.8 41.39 46.59 41.69 46.52 41.69C46.35 41.68 46.14 41.74 45.97 41.73C45.79 41.72 45.59 41.73 45.39 41.75C45.21 41.76 45.09 41.68 44.88 41.74C44.79 41.76 44.73 41.73 44.62 41.77C44.43 41.83 44.25 41.87 44.16 41.76L43.38 43.03C43.59 42.96 43.63 43.22 43.94 42.98C43.95 42.97 43.9 43.07 43.91 43.07C44.1 43.09 44.26 43.17 44.5 43.11C44.71 43.05 44.73 43.38 45.1 43.03C45.11 43.02 45.08 43.11 45.08 43.12C45.2 43.26 45.54 42.97 45.61 43.23C45.61 43.23 45.63 43.19 45.65 43.18C45.99 42.84 45.84 43.56 46.29 42.98C46.3 42.97 46.27 43.05 46.27 43.07C46.24 43.56 46.82 42.72 46.75 43.3C46.75 43.32 46.79 43.25 46.81 43.22C47.17 42.82 47.27 43.04 47.41 43.15C47.55 43.26 47.96 42.69 47.95 43.24C47.95 43.43 48.17 43.15 48.24 43.18C48.41 43.24 48.57 43.34 48.81 43.19C49.05 43.03 49.08 43.56 49.42 43.05C49.43 43.04 49.41 43.14 49.42 43.15C49.53 43.41 49.88 42.86 49.94 43.33C49.94 43.35 50.01 43.18 50.02 43.18C50.21 43.16 50.41 43.16 50.6 43.17C50.61 43.17 50.59 43.28 50.6 43.27C50.86 42.99 50.96 43.38 51.19 43.21C51.42 43.04 51.51 43.5 51.78 43.1C51.78 43.09 51.78 43.13 51.78 43.15C51.78 43.53 51.93 43.2 52 43.21C52.19 43.22 52.39 43.15 52.57 43.17C52.77 43.19 52.98 43.18 53.19 43.17C53.37 43.16 53.54 43.25 53.73 43.19C53.82 43.17 53.9 43.2 54 43.16C54.18 43.09 54.36 43.04 54.51 43.18C54.6 43.25 54.72 43.3 54.87 43.14C55.03 42.97 55.19 43.35 55.37 43.07C55.38 43.06 55.38 43.17 55.39 43.17C55.59 43.2 55.79 43.28 56 43.21C56.18 43.14 56.37 43.51 56.56 43.11C56.56 43.1 56.57 43.2 56.58 43.21C56.61 43.23 56.63 43.24 56.66 43.25L59.36 43.96L57.07 41.69C56.94 41.57 56.7 41.68 56.68 41.39C56.68 41.38 56.65 41.42 56.64 41.43C56.3 41.67 56.53 40.89 56.07 41.36C56.05 41.37 56.09 41.29 56.09 41.26C56.19 40.71 55.57 41.42 55.72 40.78C55.73 40.76 55.68 40.82 55.66 40.84C55.29 41.14 55.23 40.83 55.14 40.65C55.04 40.46 54.58 40.91 54.7 40.3C54.74 40.09 54.49 40.3 54.44 40.24C54.31 40.09 54.2 39.9 53.96 39.96C53.72 40.02 53.83 39.44 53.41 39.82C53.4 39.83 53.44 39.73 53.44 39.72C53.42 39.4 52.97 39.8 53.05 39.29C53.05 39.27 52.95 39.42 52.94 39.41C52.77 39.33 52.61 39.25 52.45 39.15C52.44 39.15 52.49 39.04 52.48 39.05C52.17 39.21 52.21 38.76 51.96 38.83C51.72 38.89 51.78 38.4 51.43 38.67C51.42 38.67 51.44 38.63 51.44 38.61C51.56 38.24 51.33 38.49 51.27 38.45C51.12 38.35 50.93 38.32 50.78 38.22C50.62 38.11 50.44 38.02 50.26 37.93C50.1 37.86 49.99 37.69 49.81 37.65C49.72 37.64 49.67 37.57 49.57 37.56C49.39 37.54 49.21 37.49 49.14 37.3C49.1 37.18 49.07 37.09 48.97 37.17C48.94 37.17 48.9 37.18 48.85 37.18C48.67 37.18 48.67 36.84 48.39 37.01C48.38 37.01 48.43 36.91 48.42 36.9C48.26 36.78 48.13 36.61 47.93 36.58C47.74 36.55 47.76 36.14 47.41 36.4C47.4 36.41 47.44 36.31 47.43 36.3C47.35 36.08 47.02 36.27 47 35.93C47 35.92 46.97 35.96 46.96 35.97C46.63 36.21 46.86 35.43 46.39 35.91C46.38 35.92 46.41 35.84 46.42 35.81C46.52 35.26 45.9 35.96 46.05 35.32C46.06 35.3 46 35.37 45.98 35.38C45.61 35.68 45.56 35.38 45.47 35.2C45.37 35 44.91 35.45 45.03 34.84C45.07 34.63 44.82 34.84 44.77 34.78C44.64 34.64 44.53 34.45 44.28 34.5C44.04 34.56 44.15 33.99 43.74 34.36C43.73 34.38 43.77 34.28 43.77 34.26C43.74 33.94 43.29 34.35 43.38 33.84C43.38 33.81 43.28 33.96 43.27 33.96C43.1 33.88 42.93 33.79 42.77 33.7C42.77 33.69 42.82 33.58 42.8 33.59C42.5 33.75 42.53 33.31 42.29 33.37C42.04 33.43 42.11 32.94 41.75 33.21C41.75 33.22 41.76 33.18 41.77 33.16C41.89 32.79 41.66 33.04 41.6 33C41.45 32.89 41.26 32.86 41.11 32.76C40.94 32.65 40.76 32.56 40.58 32.48C40.42 32.4 40.32 32.23 40.13 32.2C40.05 32.18 39.99 32.11 39.9 32.1C39.8 32.09 39.72 32.08 39.64 32.04C39.62 32.03 39.6 32.02 39.59 32.01C39.58 32 39.58 32 39.57 32L39.52 31.97C39.49 31.95 39.45 31.93 39.42 31.92C39.27 31.85 39.1 31.82 38.92 31.82C38.73 31.82 38.5 31.9 38.34 32.07C38.25 32.16 38.18 32.28 38.15 32.41C38.11 32.54 38.11 32.7 38.15 32.84C38.18 32.92 38.2 32.99 38.23 33.06C38.26 33.12 38.28 33.17 38.31 33.23C38.32 33.27 38.32 33.32 38.32 33.36C38.33 33.46 38.35 33.55 38.51 33.56C38.52 33.56 38.43 33.62 38.43 33.63C38.5 33.82 38.52 34.05 38.67 34.19C38.81 34.32 38.59 34.68 39.01 34.64C39.03 34.64 38.95 34.7 38.94 34.71C38.9 34.97 39.27 34.97 39.12 35.29C39.11 35.3 39.16 35.28 39.17 35.28C39.56 35.23 38.99 35.84 39.61 35.64C39.62 35.63 39.56 35.69 39.54 35.72C39.2 36.19 40.03 35.84 39.61 36.38C39.6 36.39 39.67 36.36 39.69 36.35C40.13 36.25 40.03 36.57 40.03 36.79C40.02 37.04 40.59 36.81 40.23 37.37C40.1 37.56 40.39 37.47 40.4 37.55C40.44 37.77 40.46 38.02 40.67 38.07C40.88 38.13 40.57 38.68 41.04 38.47C41.05 38.47 40.98 38.55 40.98 38.57C40.88 38.92 41.37 38.69 41.12 39.2C41.11 39.22 41.24 39.11 41.25 39.12C41.35 39.28 41.44 39.45 41.53 39.62C41.53 39.63 41.46 39.73 41.47 39.73C41.75 39.68 41.58 40.15 41.79 40.19C41.98 40.22 41.78 40.75 42.13 40.59C42.13 40.59 42.11 40.63 42.1 40.65C41.89 41.02 42.14 40.83 42.17 40.9C42.25 41.08 42.38 41.19 42.46 41.36C42.55 41.56 42.65 41.74 42.76 41.91C42.85 42.06 42.88 42.3 43 42.41C43.06 42.46 43.08 42.56 43.14 42.61C43.27 42.7 43.38 42.77 43.39 43.03L44.17 41.76C44.05 41.7 44.11 41.32 43.89 41.41Z" fill="#043C3A" fill-opacity="1.000000" fill-rule="nonzero"/>
		<path id="Vector" d="M94.42 57.62L94.35 57.5L94.34 57.49C94.22 57.43 94.45 57.12 94.05 57.24C94.04 57.25 94.12 57.18 94.12 57.17C94.17 56.98 93.83 57.06 93.99 56.8C94 56.79 93.96 56.81 93.95 56.82C93.57 56.93 94.15 56.38 93.56 56.65C93.54 56.65 93.61 56.6 93.63 56.58C93.99 56.18 93.16 56.59 93.61 56.12C93.62 56.11 93.55 56.15 93.53 56.16C93.09 56.31 93.22 56.06 93.24 55.9C93.27 55.73 92.69 55.98 93.1 55.54C93.24 55.39 92.95 55.49 92.94 55.44C92.93 55.3 92.94 55.13 92.73 55.12C92.52 55.11 92.91 54.69 92.4 54.9C92.39 54.9 92.47 54.84 92.48 54.82C92.63 54.57 92.08 54.79 92.41 54.41C92.43 54.4 92.27 54.49 92.27 54.48C92.18 54.38 92.11 54.28 92.04 54.18C92.03 54.17 92.13 54.1 92.12 54.1C91.81 54.16 92.07 53.82 91.85 53.82C91.64 53.82 91.94 53.45 91.54 53.58C91.53 53.59 91.56 53.56 91.58 53.54C91.86 53.29 91.56 53.43 91.54 53.39C91.48 53.27 91.35 53.21 91.29 53.1C91.23 52.98 91.15 52.87 91.06 52.77C90.98 52.68 90.99 52.52 90.87 52.46C90.82 52.43 90.81 52.36 90.75 52.33C90.62 52.28 90.52 52.21 90.56 52.05C90.59 51.96 90.59 51.86 90.4 51.88C90.2 51.89 90.45 51.58 90.15 51.64C90.14 51.65 90.23 51.57 90.23 51.57C90.18 51.45 90.17 51.29 90.04 51.22C89.91 51.15 90.14 50.85 89.74 50.97C89.73 50.97 89.81 50.91 89.81 50.9C89.87 50.71 89.53 50.79 89.69 50.52C89.69 50.52 89.65 50.54 89.64 50.54C89.61 50.55 89.59 50.56 89.57 50.56C89.58 50.5 89.6 50.43 89.58 50.38C89.56 50.3 89.48 50.24 89.24 50.34C89.23 50.34 89.29 50.28 89.3 50.25C89.45 50 89.28 49.97 89.14 49.96C89 49.95 88.89 49.96 88.96 49.63C88.97 49.61 88.91 49.67 88.89 49.68C88.68 49.82 88.58 49.82 88.49 49.77C88.4 49.72 88.33 49.61 88.23 49.54C88.14 49.46 87.99 49.57 87.91 49.64C87.85 49.7 87.78 49.71 87.71 49.42C87.67 49.21 87.59 49.52 87.54 49.49C87.42 49.43 87.28 49.32 87.16 49.48C87.03 49.65 86.91 49.1 86.79 49.63C86.78 49.65 86.78 49.54 86.77 49.53C86.65 49.26 86.52 49.83 86.4 49.35C86.39 49.33 86.38 49.51 86.37 49.51C86.25 49.52 86.12 49.52 85.99 49.52C85.99 49.52 85.98 49.4 85.97 49.41C85.85 49.7 85.72 49.3 85.59 49.48C85.47 49.65 85.34 49.19 85.22 49.6C85.22 49.61 85.21 49.57 85.21 49.55C85.16 49.16 85.11 49.5 85.06 49.49C84.94 49.47 84.81 49.54 84.69 49.53C84.55 49.51 84.42 49.52 84.28 49.53C84.16 49.55 84.04 49.45 83.92 49.51C83.86 49.54 83.8 49.51 83.74 49.55C83.63 49.62 83.52 49.7 83.41 49.57L83.41 50.3L78.64 57.66C78.63 57.66 78.63 57.66 78.63 57.66C78.57 57.69 78.52 57.65 78.46 57.69C78.35 57.77 78.24 57.81 78.13 57.68L78.13 59.17C78.23 59.08 78.36 59.37 78.47 59.09C78.48 59.08 78.48 59.2 78.49 59.2C78.62 59.22 78.76 59.31 78.89 59.24C79.01 59.17 79.14 59.53 79.26 59.14C79.26 59.12 79.27 59.23 79.28 59.23C79.4 59.39 79.53 59.06 79.66 59.35C79.66 59.35 79.67 59.3 79.67 59.29C79.79 58.92 79.91 59.71 80.03 59.07C80.03 59.05 80.04 59.14 80.05 59.17C80.17 59.69 80.31 58.78 80.43 59.41C80.43 59.43 80.44 59.35 80.45 59.32C80.57 58.88 80.7 59.12 80.82 59.23C80.94 59.35 81.07 58.74 81.2 59.32C81.25 59.52 81.32 59.22 81.37 59.25C81.5 59.31 81.63 59.42 81.75 59.25C81.88 59.09 82 59.64 82.13 59.11C82.13 59.09 82.14 59.2 82.14 59.21C82.27 59.48 82.39 58.91 82.52 59.39C82.52 59.41 82.53 59.23 82.54 59.23C82.67 59.22 82.8 59.22 82.92 59.22C82.93 59.22 82.93 59.34 82.94 59.33C83.07 59.04 83.19 59.44 83.32 59.26C83.44 59.09 83.57 59.55 83.69 59.14C83.69 59.13 83.7 59.17 83.7 59.19C83.75 59.58 83.8 59.24 83.86 59.25C83.98 59.26 84.1 59.2 84.22 59.21C84.36 59.23 84.5 59.22 84.63 59.21C84.75 59.19 84.87 59.29 85 59.23C85.05 59.2 85.11 59.23 85.17 59.19C85.28 59.12 85.4 59.07 85.51 59.21C85.57 59.28 85.65 59.33 85.74 59.17C85.84 59 85.96 59.38 86.07 59.1C86.08 59.08 86.09 59.2 86.09 59.2C86.22 59.22 86.36 59.31 86.49 59.24C86.61 59.17 86.74 59.54 86.86 59.14C86.86 59.13 86.87 59.23 86.88 59.24C87.01 59.39 87.13 59.07 87.26 59.35C87.26 59.35 87.27 59.31 87.27 59.3C87.39 58.92 87.51 59.72 87.63 59.07C87.63 59.05 87.64 59.14 87.65 59.17C87.77 59.7 87.91 58.78 88.03 59.41C88.03 59.43 88.04 59.35 88.05 59.33C88.17 58.88 88.3 59.12 88.42 59.23C88.54 59.35 88.67 58.74 88.8 59.33C88.85 59.53 88.92 59.23 88.97 59.25C89.1 59.31 89.23 59.42 89.36 59.26C89.48 59.09 89.61 59.64 89.73 59.11C89.73 59.09 89.74 59.2 89.74 59.22C89.87 59.48 89.99 58.91 90.12 59.39C90.12 59.41 90.13 59.24 90.14 59.23C90.27 59.22 90.4 59.22 90.52 59.22C90.53 59.22 90.54 59.34 90.54 59.33C90.67 59.04 90.79 59.44 90.92 59.26C91.04 59.09 91.17 59.55 91.29 59.14C91.29 59.13 91.3 59.17 91.3 59.2C91.35 59.58 91.41 59.24 91.46 59.25C91.58 59.27 91.7 59.2 91.83 59.21C91.96 59.23 92.1 59.22 92.23 59.21C92.35 59.19 92.48 59.29 92.6 59.23C92.65 59.2 92.71 59.24 92.77 59.2C92.88 59.12 93 59.08 93.11 59.21C93.18 59.29 93.22 59.36 93.26 59.24C93.27 59.22 93.3 59.19 93.32 59.17C93.33 59.17 93.33 59.16 93.34 59.16C93.35 59.16 93.35 59.16 93.38 59.16C93.41 59.15 93.46 59.15 93.5 59.15C93.58 59.15 93.67 59.15 93.76 59.13C93.93 59.1 94.1 58.97 94.11 58.76C94.11 58.74 94.21 58.8 94.22 58.79C94.36 58.64 94.47 58.45 94.51 58.24C94.57 58.04 94.54 57.8 94.42 57.62ZM89.52 50.56C89.51 50.55 89.51 50.54 89.51 50.54L89.52 50.56Z" fill="#043C3A" fill-opacity="1.000000" fill-rule="nonzero"/>
	</g>
</svg>
