<svg width="65.000000" height="63.000000" viewBox="0 0 65 63" fill="none" xmlns="http://www.w3.org/2000/svg" xmlns:xlink="http://www.w3.org/1999/xlink">
	<desc>
			Created with Pixso.
	</desc>
	<defs>
		<clipPath id="clip1_533">
			<rect id="Frame" rx="0.000000" width="64.000000" height="62.000000" transform="translate(0.500000 0.500000)" fill="white" fill-opacity="0"/>
		</clipPath>
	</defs>
	<rect id="Frame" rx="0.000000" width="64.000000" height="62.000000" transform="translate(0.500000 0.500000)" fill="#FFFFFF" fill-opacity="0"/>
	<g clip-path="url(#clip1_533)">
		<path id="Vector" d="M0.21 44.68C0.23 44.68 0.08 44.62 0.09 44.61C0.13 44.35 0.15 44.05 0.37 43.89C0.46 43.82 0.45 43.67 0.48 43.56C0.5 43.5 0.53 43.45 0.59 43.43C0.65 43.41 0.73 43.42 0.87 43.47C0.88 43.48 0.79 43.38 0.79 43.36C0.79 43.21 0.91 43.18 1.01 43.14C1.11 43.09 1.19 43.05 1.16 42.84C1.15 42.83 1.2 42.87 1.21 42.88C1.44 43.02 1.42 42.86 1.44 42.72C1.46 42.59 1.52 42.5 1.83 42.81C1.84 42.83 1.79 42.72 1.78 42.69C1.66 42.34 1.82 42.4 1.96 42.45C2.1 42.5 2.22 42.54 2.1 42.13C2.09 42.1 2.15 42.19 2.17 42.22C2.39 42.44 2.5 42.46 2.56 42.4C2.63 42.34 2.65 42.19 2.7 42.1C2.74 41.99 2.89 42.1 3 42.15C3.12 42.2 3.2 42.18 3.14 41.78C3.1 41.5 3.35 41.84 3.4 41.79C3.53 41.65 3.66 41.46 3.89 41.62C4.11 41.79 4.07 41.02 4.42 41.67C4.42 41.69 4.4 41.55 4.4 41.53C4.47 41.13 4.82 41.84 4.83 41.17C4.83 41.14 4.9 41.37 4.91 41.37C5.08 41.36 5.24 41.32 5.41 41.29C5.42 41.29 5.39 41.13 5.4 41.14C5.64 41.49 5.71 40.93 5.92 41.14C6.11 41.34 6.18 40.71 6.42 41.23C6.42 41.24 6.42 41.18 6.42 41.16C6.42 40.64 6.55 41.07 6.61 41.06C6.77 41.02 6.94 41.09 7.1 41.06C7.27 41.02 7.45 41.02 7.63 41.02C7.79 41.03 7.94 40.89 8.1 40.97C8.17 41 8.24 40.95 8.32 41C8.47 41.1 8.63 41.16 8.76 40.98C8.84 40.88 8.94 40.81 9.06 41.02C9.19 41.26 9.36 40.75 9.49 41.13C9.5 41.15 9.51 40.99 9.52 40.99C9.69 40.97 9.87 40.86 10.04 40.96C10.19 41.06 10.39 40.58 10.51 41.12C10.51 41.14 10.53 41.01 10.54 41C10.73 40.8 10.85 41.26 11.06 40.9C11.06 40.89 11.06 40.95 11.06 40.97C11.15 41.48 11.45 40.45 11.49 41.32C11.49 41.35 11.52 41.23 11.53 41.2C11.66 40.86 11.73 41 11.79 41.12C11.86 41.25 11.93 41.35 12.08 40.95C12.09 40.92 12.08 41.03 12.08 41.07C12.14 41.68 12.36 41.39 12.54 41.27C12.74 41.15 12.72 41.99 13.06 41.26C13.18 41.01 13.19 41.43 13.26 41.41C13.45 41.37 13.66 41.27 13.76 41.54C13.85 41.8 14.24 41.14 14.17 41.87C14.17 41.89 14.23 41.76 14.24 41.74C14.38 41.6 14.43 41.73 14.48 41.82C14.54 41.91 14.61 41.97 14.81 41.69C14.82 41.67 14.75 41.9 14.76 41.9C14.92 41.99 15.08 42.05 15.24 42.12C15.24 42.13 15.32 41.99 15.32 42C15.31 42.43 15.71 42.02 15.77 42.32C15.79 42.46 15.91 42.42 16.02 42.42C16.13 42.42 16.22 42.45 16.15 42.73C16.14 42.74 16.18 42.7 16.2 42.68C16.54 42.29 16.37 42.71 16.43 42.74C16.51 42.79 16.58 42.86 16.64 42.93C16.71 43.01 16.77 43.08 16.85 43.13C17.02 43.26 17.18 43.43 17.31 43.62C17.34 43.67 17.38 43.7 17.41 43.74L17.53 43.86C17.61 43.94 17.67 44.04 17.69 44.16C17.71 44.26 17.8 44.35 17.79 44.48C17.77 44.73 17.76 44.94 17.96 45.15C18.08 45.28 18.18 45.39 18.01 45.46C17.98 45.5 17.94 45.54 17.91 45.59C17.84 45.69 17.88 45.81 17.9 45.93C17.9 46.05 17.87 46.17 17.66 46.2C17.64 46.2 17.78 46.27 17.77 46.28C17.76 46.35 17.74 46.41 17.73 46.48C17.71 46.54 17.7 46.6 17.67 46.66C17.63 46.79 17.56 46.89 17.46 46.96C17.35 47.02 17.37 47.17 17.33 47.28C17.29 47.39 17.21 47.47 16.95 47.34C16.93 47.33 17.02 47.44 17.02 47.46C17.01 47.6 16.9 47.63 16.8 47.67C16.7 47.7 16.61 47.76 16.65 47.96C16.65 47.97 16.61 47.92 16.59 47.91C16.37 47.77 16.38 47.93 16.36 48.06C16.34 48.19 16.28 48.29 15.98 47.96C15.96 47.95 16.02 48.05 16.03 48.09C16.13 48.43 15.98 48.38 15.84 48.32C15.71 48.27 15.59 48.22 15.7 48.64C15.71 48.67 15.65 48.58 15.62 48.55C15.21 48.1 15.19 48.46 15.1 48.66C15.05 48.77 14.91 48.65 14.8 48.6C14.68 48.55 14.6 48.57 14.66 48.97C14.69 49.24 14.45 48.9 14.4 48.96C14.27 49.09 14.14 49.29 13.91 49.12C13.69 48.95 13.72 49.71 13.38 49.06C13.37 49.04 13.4 49.19 13.4 49.21C13.32 49.59 12.98 48.89 12.97 49.55C12.96 49.58 12.9 49.35 12.89 49.35C12.72 49.37 12.55 49.4 12.39 49.43C12.38 49.43 12.4 49.59 12.4 49.58C12.16 49.23 12.09 49.79 11.88 49.58C11.69 49.37 11.61 50.01 11.38 49.48C11.38 49.47 11.38 49.53 11.38 49.56C11.37 50.07 11.25 49.64 11.19 49.66C11.03 49.7 10.86 49.62 10.7 49.65C10.69 49.66 10.67 49.66 10.66 49.66C10.66 49.71 10.7 49.75 10.85 49.76C10.86 49.76 10.8 49.78 10.79 49.79C10.35 50.06 11.41 49.88 10.62 50.25C10.6 50.27 10.71 50.24 10.75 50.23C11.47 50.15 10.33 50.65 11.18 50.53C11.21 50.53 11.11 50.57 11.08 50.58C10.55 50.88 10.9 50.93 11.08 51C11.27 51.08 10.52 51.45 11.32 51.36C11.59 51.32 11.23 51.52 11.28 51.56C11.4 51.67 11.58 51.76 11.41 51.96C11.23 52.15 11.99 52.06 11.34 52.4C11.32 52.41 11.46 52.37 11.48 52.37C11.86 52.4 11.17 52.76 11.83 52.69C11.86 52.69 11.63 52.77 11.63 52.78C11.65 52.92 11.69 53.05 11.73 53.18C11.74 53.18 11.89 53.14 11.88 53.15C11.55 53.4 12.11 53.37 11.92 53.57C11.74 53.77 12.37 53.71 11.88 54C11.87 54.01 11.93 53.99 11.95 53.99C12.46 53.89 12.05 54.08 12.07 54.13C12.13 54.25 12.08 54.4 12.14 54.52C12.21 54.66 12.24 54.8 12.27 54.95C12.29 55.08 12.45 55.16 12.41 55.31C12.39 55.38 12.45 55.43 12.42 55.51C12.36 55.65 12.34 55.79 12.55 55.85C12.66 55.88 12.75 55.95 12.58 56.1C12.39 56.28 12.91 56.25 12.59 56.48C12.57 56.49 12.72 56.45 12.73 56.45C12.8 56.58 12.95 56.69 12.9 56.85C12.86 57 13.37 56.99 12.9 57.27C12.88 57.28 13.01 57.25 13.03 57.25C13.26 57.32 12.89 57.58 13.29 57.6C13.3 57.6 13.24 57.62 13.23 57.63C12.78 57.9 13.84 57.72 13.05 58.09C13.03 58.11 13.15 58.08 13.19 58.07C13.9 57.99 12.77 58.49 13.62 58.37C13.65 58.37 13.55 58.41 13.52 58.42C12.99 58.72 13.34 58.77 13.52 58.84C13.71 58.92 12.96 59.29 13.76 59.2C14.03 59.17 13.67 59.36 13.72 59.41C13.84 59.51 14.02 59.6 13.85 59.8C13.67 59.99 14.42 59.9 13.78 60.24C13.76 60.25 13.9 60.21 13.92 60.21C14.3 60.24 13.6 60.6 14.26 60.53C14.29 60.53 14.07 60.61 14.07 60.62C14.09 60.76 14.13 60.89 14.17 61.02C14.17 61.03 14.33 60.99 14.32 60.99C13.98 61.24 14.54 61.21 14.36 61.41C14.17 61.61 14.8 61.56 14.32 61.84C14.31 61.85 14.36 61.84 14.39 61.83C14.9 61.73 14.49 61.92 14.51 61.97C14.57 62.09 14.52 62.24 14.58 62.36C14.64 62.5 14.68 62.64 14.7 62.79C14.72 62.92 14.88 63 14.84 63.15C14.82 63.22 14.89 63.27 14.86 63.35C14.8 63.49 14.78 63.62 14.98 63.68L13.07 64.27C13.14 64.12 12.73 64.11 13.05 63.88C13.07 63.87 12.92 63.91 12.91 63.91C12.84 63.78 12.69 63.68 12.74 63.51C12.78 63.36 12.27 63.37 12.74 63.09C12.76 63.08 12.63 63.11 12.62 63.11C12.38 63.04 12.75 62.78 12.35 62.76C12.34 62.76 12.4 62.74 12.42 62.73C12.86 62.46 11.8 62.64 12.59 62.27C12.61 62.26 12.49 62.28 12.45 62.29C11.74 62.37 12.87 61.87 12.02 61.99C12 61.99 12.1 61.95 12.12 61.94C12.65 61.64 12.3 61.6 12.12 61.52C11.93 61.44 12.68 61.07 11.88 61.16C11.61 61.2 11.97 61 11.92 60.96C11.8 60.85 11.62 60.76 11.79 60.56C11.97 60.37 11.22 60.46 11.86 60.12C11.88 60.11 11.74 60.15 11.72 60.15C11.34 60.13 12.04 59.77 11.38 59.83C11.35 59.83 11.57 59.75 11.57 59.74C11.55 59.61 11.51 59.47 11.47 59.34C11.47 59.34 11.31 59.38 11.33 59.37C11.66 59.12 11.1 59.15 11.29 58.95C11.47 58.75 10.84 58.81 11.33 58.52C11.33 58.51 11.28 58.53 11.25 58.53C10.75 58.63 11.16 58.44 11.13 58.39C11.07 58.27 11.12 58.12 11.06 58C11 57.86 10.96 57.72 10.94 57.57C10.92 57.44 10.76 57.36 10.8 57.21C10.82 57.14 10.75 57.09 10.78 57.02C10.84 56.87 10.86 56.73 10.66 56.67C10.54 56.64 10.46 56.57 10.63 56.42C10.82 56.24 10.29 56.27 10.62 56.04C10.63 56.04 10.48 56.07 10.48 56.07C10.4 55.94 10.25 55.84 10.3 55.67C10.35 55.52 9.84 55.53 10.31 55.25C10.33 55.24 10.19 55.27 10.18 55.27C9.94 55.2 10.32 54.94 9.91 54.92C9.91 54.92 9.97 54.9 9.98 54.89C10.42 54.62 9.36 54.8 10.15 54.43C10.17 54.42 10.06 54.44 10.02 54.45C9.3 54.53 10.43 54.03 9.58 54.15C9.56 54.15 9.66 54.11 9.69 54.1C10.22 53.8 9.87 53.75 9.69 53.68C9.49 53.6 10.25 53.23 9.45 53.32C9.17 53.36 9.53 53.16 9.49 53.12C9.36 53.01 9.18 52.92 9.36 52.72C9.53 52.53 8.78 52.62 9.43 52.28C9.45 52.27 9.31 52.31 9.29 52.31C8.9 52.29 9.6 51.93 8.94 51.99C8.91 51.99 9.14 51.91 9.14 51.9C9.11 51.76 9.08 51.63 9.03 51.5C9.03 51.5 8.88 51.54 8.89 51.53C8.94 51.49 8.96 51.47 8.98 51.44C8.84 51.47 8.61 51.47 9.04 51.72C9.06 51.73 8.96 51.7 8.92 51.7C8.32 51.6 8.57 51.85 8.66 52.02C8.77 52.21 7.94 52.03 8.63 52.45C8.86 52.6 8.45 52.53 8.46 52.59C8.49 52.75 8.58 52.93 8.32 52.97C8.06 53.02 8.7 53.41 7.99 53.27C7.97 53.27 8.1 53.33 8.11 53.34C8.4 53.6 7.63 53.45 8.18 53.81C8.21 53.82 7.98 53.75 7.98 53.76C7.91 53.88 7.85 54 7.81 54.13C7.8 54.14 7.95 54.2 7.93 54.2C7.52 54.19 7.97 54.51 7.7 54.56C7.44 54.59 7.96 54.94 7.4 54.87C7.39 54.87 7.44 54.89 7.47 54.9C7.93 55.14 7.49 55.03 7.48 55.09C7.45 55.22 7.31 55.31 7.28 55.44C7.25 55.59 7.18 55.72 7.11 55.85C7.05 55.96 7.12 56.13 6.99 56.22C6.93 56.27 6.96 56.34 6.88 56.38C6.75 56.46 6.64 56.55 6.76 56.73C6.83 56.83 6.86 56.93 6.63 56.94C6.37 56.96 6.8 57.27 6.4 57.24C6.39 57.24 6.53 57.31 6.53 57.31C6.5 57.46 6.56 57.63 6.42 57.73C6.28 57.82 6.69 58.13 6.15 58.05C6.13 58.05 6.25 58.11 6.26 58.12C6.4 58.32 5.94 58.29 6.25 58.56C6.25 58.56 6.19 58.54 6.18 58.54C5.66 58.48 6.6 58.99 5.75 58.79C5.73 58.79 5.84 58.84 5.87 58.86C6.48 59.24 5.28 58.93 6.02 59.36C6.04 59.37 5.94 59.34 5.9 59.34C5.3 59.24 5.55 59.49 5.64 59.66C5.74 59.85 4.92 59.67 5.61 60.09C5.84 60.24 5.43 60.17 5.44 60.23C5.47 60.39 5.56 60.57 5.3 60.61C5.04 60.66 5.68 61.05 4.97 60.91C4.95 60.91 5.08 60.97 5.09 60.98C5.38 61.24 4.61 61.09 5.16 61.45C5.19 61.47 4.96 61.39 4.96 61.4C4.89 61.52 4.83 61.64 4.79 61.77C4.78 61.78 4.93 61.84 4.91 61.84C4.5 61.83 4.95 62.15 4.68 62.2C4.42 62.23 4.94 62.58 4.38 62.51C4.37 62.51 4.42 62.53 4.45 62.54C4.91 62.78 4.47 62.67 4.46 62.73C4.42 62.86 4.29 62.95 4.26 63.08C4.23 63.23 4.16 63.36 4.09 63.49C4.03 63.6 4.1 63.77 3.97 63.86C3.91 63.9 3.94 63.98 3.86 64.02C3.73 64.1 3.58 64.17 3.71 64.34L1.84 63.61C1.99 63.55 1.72 63.3 2.12 63.32C2.13 63.32 1.99 63.26 1.99 63.25C2.02 63.11 1.96 62.93 2.1 62.83C2.24 62.74 1.83 62.44 2.37 62.51C2.39 62.51 2.27 62.45 2.26 62.44C2.12 62.24 2.58 62.27 2.27 62.01C2.27 62 2.33 62.02 2.34 62.02C2.86 62.09 1.92 61.57 2.77 61.77C2.79 61.77 2.68 61.72 2.65 61.7C2.04 61.32 3.24 61.63 2.5 61.2C2.48 61.19 2.58 61.22 2.62 61.22C3.22 61.32 2.97 61.07 2.88 60.9C2.77 60.72 3.6 60.89 2.91 60.47C2.68 60.33 3.09 60.4 3.07 60.34C3.05 60.18 2.96 59.99 3.22 59.95C3.48 59.91 2.84 59.51 3.55 59.65C3.57 59.65 3.44 59.59 3.43 59.58C3.14 59.32 3.91 59.48 3.35 59.11C3.33 59.1 3.56 59.17 3.56 59.17C3.63 59.04 3.69 58.92 3.73 58.79C3.73 58.79 3.59 58.72 3.6 58.72C4.02 58.73 3.56 58.41 3.84 58.37C4.1 58.33 3.58 57.98 4.14 58.06C4.15 58.06 4.1 58.03 4.07 58.02C3.61 57.78 4.05 57.89 4.06 57.84C4.09 57.7 4.23 57.61 4.26 57.48C4.29 57.34 4.36 57.2 4.43 57.07C4.49 56.96 4.42 56.79 4.55 56.7C4.6 56.66 4.58 56.58 4.66 56.54C4.79 56.47 4.9 56.37 4.77 56.19C4.71 56.1 4.68 55.99 4.91 55.98C5.17 55.96 4.74 55.66 5.14 55.68C5.15 55.68 5.01 55.62 5.01 55.61C5.04 55.47 4.98 55.29 5.12 55.19C5.26 55.1 4.85 54.8 5.39 54.87C5.41 54.87 5.29 54.81 5.28 54.8C5.14 54.6 5.6 54.63 5.29 54.37C5.29 54.36 5.35 54.38 5.36 54.38C5.88 54.45 4.94 53.93 5.79 54.13C5.81 54.13 5.7 54.08 5.67 54.06C5.06 53.68 6.26 53.99 5.52 53.56C5.5 53.55 5.6 53.58 5.64 53.58C6.24 53.68 5.99 53.43 5.9 53.26C5.79 53.08 6.62 53.25 5.93 52.83C5.7 52.69 6.11 52.76 6.09 52.7C6.07 52.54 5.98 52.35 6.24 52.31C6.5 52.27 5.86 51.87 6.57 52.01C6.59 52.01 6.46 51.95 6.45 51.94C6.16 51.68 6.93 51.84 6.37 51.47C6.35 51.46 6.58 51.53 6.58 51.53C6.65 51.4 6.71 51.28 6.75 51.15C6.75 51.15 6.61 51.08 6.62 51.08C7.04 51.09 6.58 50.77 6.86 50.73C7.12 50.69 6.6 50.34 7.16 50.42C7.17 50.42 7.12 50.39 7.09 50.38C6.63 50.14 7.07 50.25 7.08 50.2C7.11 50.06 7.25 49.97 7.28 49.84C7.29 49.79 7.31 49.74 7.33 49.69C7.32 49.65 7.31 49.62 7.3 49.57C7.29 49.55 7.27 49.68 7.26 49.69C7.07 49.88 6.95 49.44 6.75 49.79C6.74 49.8 6.75 49.73 6.74 49.72C6.65 49.2 6.35 50.24 6.32 49.36C6.32 49.34 6.29 49.45 6.27 49.49C6.14 49.82 6.08 49.69 6.01 49.56C5.94 49.44 5.88 49.33 5.73 49.73C5.72 49.76 5.72 49.65 5.72 49.61C5.67 49 5.44 49.29 5.27 49.4C5.07 49.53 5.1 48.69 4.74 49.41C4.62 49.66 4.61 49.25 4.54 49.26C4.36 49.3 4.15 49.4 4.05 49.13C4 49 3.88 49.1 3.78 49.14C3.68 49.17 3.6 49.16 3.64 48.79C3.64 48.77 3.58 48.9 3.57 48.92C3.43 49.06 3.38 48.93 3.32 48.84C3.27 48.75 3.2 48.69 3 48.96C2.98 48.98 3.06 48.75 3.05 48.75C2.89 48.66 2.73 48.59 2.57 48.52C2.56 48.52 2.49 48.65 2.49 48.64C2.49 48.42 2.4 48.42 2.29 48.43C2.18 48.44 2.06 48.46 2.04 48.31C2.02 48.17 1.9 48.2 1.79 48.2C1.68 48.2 1.59 48.16 1.67 47.89C1.67 47.88 1.64 47.92 1.62 47.94C1.26 48.32 1.45 47.9 1.38 47.87C1.22 47.77 1.13 47.58 0.97 47.45C0.8 47.32 0.65 47.14 0.52 46.94C0.41 46.75 0.18 46.62 0.16 46.36C0.16 46.3 0.13 46.26 0.11 46.2C0.09 46.15 0.08 46.09 0.09 46.02C0.1 45.9 0.14 45.78 0.13 45.68C0.14 45.57 0.12 45.47 0.02 45.35C0.09 45.25 0.02 45.13 0 45C-0.02 44.87 0 44.73 0.21 44.68ZM8.8 51.17C8.8 51.16 8.81 51.16 8.81 51.15C8.8 51.15 8.78 51.15 8.77 51.14C8.75 51.14 8.78 51.15 8.8 51.17ZM2.04 45.4C2.07 45.42 2.06 45.43 1.89 45.51C1.89 45.52 1.92 45.51 1.96 45.5C1.99 45.49 2.03 45.48 2.03 45.48C2.08 45.53 2.21 45.53 2.17 45.65C2.15 45.7 2.26 45.68 2.32 45.68C2.38 45.69 2.39 45.72 2.23 45.94C2.22 45.95 2.32 45.87 2.34 45.86C2.44 45.83 2.44 45.9 2.45 45.96C2.47 46.03 2.51 46.07 2.67 45.96C2.68 45.96 2.64 46.01 2.63 46.02C2.51 46.25 2.65 46.18 2.75 46.13C2.85 46.09 2.93 46.07 2.74 46.47C2.73 46.49 2.8 46.39 2.83 46.37C3.07 46.1 3.05 46.24 3.05 46.37C3.04 46.5 3.06 46.62 3.32 46.28C3.33 46.26 3.29 46.35 3.28 46.39C3.19 46.68 3.23 46.77 3.3 46.78C3.37 46.79 3.48 46.71 3.57 46.66C3.66 46.62 3.66 46.8 3.69 46.91C3.72 47.01 3.78 47.05 3.99 46.71C4.13 46.48 4.07 46.88 4.13 46.87C4.29 46.84 4.47 46.74 4.53 47C4.61 47.25 4.94 46.58 4.88 47.3C4.88 47.32 4.93 47.19 4.94 47.17C5.16 46.86 5.12 47.64 5.4 47.05C5.42 47.02 5.37 47.25 5.38 47.26C5.52 47.31 5.66 47.34 5.8 47.37C5.81 47.37 5.85 47.21 5.85 47.23C5.92 47.64 6.16 47.13 6.26 47.39C6.37 47.64 6.6 47.05 6.66 47.62C6.66 47.63 6.67 47.57 6.68 47.55C6.81 47.05 6.81 47.49 6.87 47.49C7.01 47.49 7.14 47.6 7.29 47.59C7.45 47.59 7.6 47.61 7.76 47.64C7.9 47.66 8.04 47.54 8.18 47.63C8.25 47.68 8.31 47.63 8.38 47.68C8.51 47.79 8.65 47.85 8.78 47.68C8.85 47.58 8.94 47.52 9.05 47.72C9.17 47.95 9.3 47.45 9.44 47.82C9.45 47.83 9.45 47.68 9.46 47.68C9.61 47.64 9.76 47.52 9.92 47.61C10.07 47.69 10.18 47.19 10.36 47.71C10.36 47.73 10.36 47.59 10.37 47.58C10.5 47.36 10.68 47.78 10.79 47.39C10.79 47.38 10.81 47.45 10.81 47.46C11.01 47.94 11.02 46.87 11.26 47.71C11.27 47.73 11.26 47.61 11.27 47.58C11.29 47.22 11.38 47.34 11.47 47.44C11.56 47.54 11.65 47.62 11.65 47.19C11.65 47.17 11.68 47.27 11.69 47.3C11.92 47.87 12.03 47.52 12.12 47.35C12.23 47.17 12.55 47.94 12.52 47.14C12.51 46.87 12.69 47.24 12.73 47.19C12.85 47.08 12.95 46.89 13.15 47.08C13.35 47.25 13.25 46.5 13.6 47.14C13.61 47.16 13.58 47.02 13.58 47C13.59 46.81 13.68 46.89 13.77 46.92C13.86 46.96 13.94 46.97 13.88 46.64C13.88 46.61 13.98 46.83 13.99 46.83C14.12 46.8 14.25 46.75 14.37 46.69C14.38 46.69 14.32 46.54 14.33 46.55C14.62 46.84 14.5 46.3 14.72 46.45C14.83 46.52 14.84 46.41 14.87 46.33C14.89 46.25 14.93 46.21 15.13 46.4C15.14 46.41 15.11 46.36 15.1 46.34C14.86 45.88 15.14 46.23 15.18 46.19C15.22 46.15 15.28 46.13 15.33 46.11C15.39 46.09 15.44 46.07 15.48 46.03C15.55 45.93 15.64 45.86 15.71 45.79C15.73 45.78 15.74 45.76 15.75 45.74C15.75 45.72 15.75 45.69 15.76 45.67C15.77 45.63 15.77 45.6 15.82 45.59C15.88 45.58 15.83 45.53 15.9 45.53C15.95 45.52 16 45.5 16.01 45.47C16.02 45.45 16 45.41 15.91 45.39C15.8 45.35 15.71 45.35 15.86 45.34C15.89 45.33 15.93 45.32 15.96 45.31C16.02 45.28 15.94 45.26 15.9 45.25C15.85 45.23 15.85 45.22 16.02 45.12C16.03 45.12 15.88 45.17 15.88 45.17C15.87 45.15 15.85 45.14 15.83 45.13C15.81 45.12 15.79 45.12 15.77 45.11C15.74 45.09 15.7 45.06 15.72 44.99C15.73 44.93 15.63 44.96 15.57 44.96C15.5 44.95 15.49 44.92 15.64 44.69C15.65 44.68 15.55 44.77 15.54 44.77C15.42 44.81 15.43 44.74 15.41 44.67C15.39 44.61 15.35 44.56 15.19 44.68C15.18 44.68 15.22 44.63 15.22 44.62C15.33 44.38 15.2 44.46 15.09 44.51C14.99 44.55 14.93 44.57 15.1 44.17C15.11 44.15 15.04 44.24 15.01 44.27C14.77 44.54 14.79 44.4 14.79 44.27C14.79 44.14 14.77 44.02 14.52 44.37C14.5 44.39 14.55 44.29 14.55 44.26C14.71 43.67 14.42 43.89 14.26 43.99C14.16 44.03 14.17 43.86 14.13 43.75C14.1 43.64 14.03 43.6 13.83 43.95C13.69 44.18 13.75 43.78 13.68 43.79C13.52 43.83 13.35 43.92 13.28 43.67C13.21 43.41 12.87 44.09 12.93 43.36C12.93 43.34 12.89 43.48 12.87 43.49C12.65 43.81 12.69 43.02 12.41 43.63C12.39 43.65 12.43 43.42 12.42 43.41C12.29 43.36 12.15 43.33 12 43.31C12 43.3 11.96 43.46 11.96 43.45C11.89 43.03 11.65 43.55 11.54 43.29C11.44 43.04 11.21 43.62 11.14 43.07C11.14 43.06 11.13 43.11 11.12 43.14C11 43.64 11 43.19 10.94 43.19C10.79 43.19 10.66 43.09 10.52 43.1C10.36 43.1 10.2 43.08 10.05 43.05C9.91 43.03 9.76 43.15 9.62 43.06C9.56 43.02 9.49 43.07 9.42 43.01C9.3 42.91 9.15 42.85 9.03 43.02C8.96 43.12 8.87 43.19 8.76 42.98C8.63 42.74 8.51 43.26 8.36 42.89C8.36 42.87 8.35 43.02 8.35 43.03C8.19 43.06 8.05 43.19 7.89 43.1C7.74 43.02 7.63 43.52 7.45 43C7.44 42.98 7.45 43.12 7.44 43.13C7.31 43.35 7.12 42.93 7.02 43.32C7.02 43.33 7 43.26 7 43.25C6.8 42.77 6.79 43.84 6.54 43.01C6.54 42.98 6.54 43.1 6.54 43.14C6.52 43.5 6.43 43.38 6.34 43.28C6.25 43.18 6.16 43.1 6.16 43.53C6.16 43.55 6.14 43.45 6.12 43.42C5.88 42.86 5.78 43.21 5.69 43.38C5.59 43.56 5.26 42.79 5.29 43.59C5.31 43.86 5.13 43.49 5.08 43.54C4.96 43.66 4.87 43.84 4.67 43.66C4.57 43.57 4.54 43.72 4.5 43.8C4.46 43.89 4.4 43.92 4.22 43.6C4.21 43.58 4.25 43.72 4.24 43.74C4.24 43.93 4.14 43.86 4.05 43.82C3.96 43.78 3.89 43.78 3.95 44.1C3.95 44.13 3.85 43.92 3.84 43.92C3.7 43.95 3.58 44 3.46 44.06C3.45 44.07 3.52 44.21 3.51 44.2C3.36 44.06 3.31 44.12 3.28 44.2C3.25 44.28 3.23 44.38 3.12 44.3C3.01 44.24 3 44.35 2.98 44.43C2.96 44.51 2.92 44.55 2.72 44.36C2.71 44.35 2.74 44.4 2.75 44.43C3 44.87 2.71 44.54 2.67 44.57C2.59 44.65 2.45 44.65 2.39 44.74C2.32 44.84 2.25 44.91 2.17 44.97C2.11 45.03 2.18 45.15 2.09 45.17C2.07 45.17 2.06 45.19 2.06 45.2C2.06 45.21 2.05 45.22 2.02 45.23C1.96 45.24 1.93 45.26 1.91 45.28C1.9 45.31 1.94 45.34 2.02 45.36C1.96 45.36 2.01 45.39 2.04 45.4Z" fill="#000000" fill-opacity="1.000000" fill-rule="nonzero"/>
		<path id="Vector" d="M4.21 16.4C4.19 16.29 4.18 16.17 4.18 16.06C4.18 15.95 4.19 15.85 4.2 15.75C4.22 15.56 4.16 15.37 4.24 15.2C4.28 15.12 4.26 15.03 4.31 14.94C4.4 14.79 4.48 14.63 4.4 14.44C4.36 14.34 4.35 14.21 4.52 14.12C4.72 14.03 4.44 13.75 4.74 13.68C4.75 13.68 4.66 13.63 4.66 13.63C4.7 13.44 4.7 13.22 4.84 13.07C4.96 12.93 4.75 12.63 5.14 12.62C5.16 12.62 5.08 12.57 5.08 12.56C5.04 12.33 5.38 12.3 5.25 12.02C5.25 12.02 5.29 12.03 5.3 12.03C5.49 12.04 5.45 11.92 5.44 11.81C5.43 11.7 5.45 11.61 5.74 11.69C5.75 11.69 5.69 11.64 5.67 11.62C5.52 11.42 5.64 11.39 5.76 11.35C5.87 11.31 5.98 11.27 5.79 11.04C5.78 11.03 5.85 11.06 5.87 11.06C6.3 11.15 6.23 10.87 6.25 10.68C6.27 10.47 6.81 10.67 6.53 10.2C6.43 10.03 6.71 10.11 6.74 10.05C6.82 9.88 6.87 9.66 7.1 9.64C7.22 9.62 7.22 9.5 7.25 9.4C7.28 9.31 7.34 9.24 7.57 9.35C7.59 9.35 7.53 9.28 7.52 9.26C7.49 8.96 7.98 9.22 7.82 8.78C7.81 8.75 7.93 8.86 7.94 8.86C8.09 8.75 8.23 8.63 8.38 8.52C8.38 8.51 8.33 8.42 8.34 8.42C8.64 8.51 8.58 8.12 8.83 8.14C8.95 8.15 8.99 8.05 9.05 7.97C9.1 7.88 9.18 7.82 9.35 7.94C9.36 7.94 9.34 7.91 9.34 7.89C9.23 7.55 9.45 7.77 9.51 7.73C9.67 7.63 9.86 7.6 10.03 7.51C10.21 7.42 10.42 7.35 10.62 7.29C10.71 7.27 10.8 7.23 10.89 7.19C10.94 7.17 10.99 7.15 11.05 7.14C11.07 7.12 11.1 7.1 11.14 7.08C11.16 7.07 11.01 7.04 11.01 7.03C11.01 6.76 10.94 6.46 11.08 6.2C11.16 6.09 11.09 5.94 11.08 5.8C11.07 5.67 11.11 5.54 11.41 5.5C11.43 5.49 11.3 5.44 11.3 5.42C11.25 5.27 11.35 5.16 11.43 5.05C11.51 4.93 11.56 4.82 11.45 4.62C11.45 4.61 11.51 4.63 11.52 4.63C11.81 4.62 11.73 4.45 11.7 4.29C11.69 4.21 11.69 4.14 11.74 4.1C11.8 4.05 11.92 4.05 12.14 4.1C12.16 4.11 12.07 4.04 12.04 4.01C11.8 3.72 11.99 3.66 12.15 3.61C12.31 3.55 12.48 3.51 12.21 3.16C12.19 3.13 12.29 3.18 12.33 3.19C12.64 3.27 12.77 3.21 12.83 3.09C12.89 2.98 12.89 2.81 12.91 2.67C12.94 2.53 13.15 2.54 13.3 2.51C13.46 2.49 13.56 2.41 13.4 2.02C13.3 1.76 13.68 1.94 13.74 1.86C13.82 1.75 13.89 1.62 13.99 1.52C14.09 1.43 14.21 1.36 14.39 1.39C14.56 1.41 14.6 1.24 14.68 1.11C14.72 1.04 14.77 0.99 14.84 0.99C14.91 0.99 15.01 1.04 15.15 1.17C15.17 1.19 15.12 1.05 15.12 1.03C15.16 0.81 15.33 0.85 15.47 0.85C15.61 0.85 15.74 0.84 15.75 0.49C15.75 0.46 15.86 0.68 15.88 0.67C16.01 0.64 16.13 0.6 16.26 0.56C16.39 0.52 16.52 0.49 16.64 0.45C16.65 0.45 16.63 0.29 16.64 0.3C16.82 0.46 16.94 0.39 17.06 0.3C17.18 0.23 17.3 0.13 17.45 0.23C17.6 0.33 17.71 0.21 17.84 0.14C17.96 0.08 18.1 0.05 18.23 0.32C18.24 0.33 18.24 0.28 18.25 0.25C18.34 -0.27 18.47 0.17 18.57 0.16C18.83 0.15 19.08 0.25 19.34 0.25C19.62 0.27 19.91 0.31 20.18 0.39C20.42 0.47 20.7 0.4 20.92 0.56C21.02 0.64 21.15 0.63 21.25 0.72C21.34 0.81 21.44 0.88 21.54 0.94C21.65 1 21.76 1.02 21.9 0.99C22.06 0.96 22.25 0.97 22.31 1.25C22.34 1.41 22.47 1.41 22.6 1.43C22.73 1.45 22.85 1.48 22.83 1.7C22.83 1.72 22.93 1.61 22.94 1.61C23.18 1.75 23.49 1.82 23.63 2.09C23.69 2.21 23.86 2.22 23.99 2.28C24.11 2.34 24.19 2.45 24.08 2.72C24.08 2.74 24.19 2.66 24.2 2.66C24.37 2.69 24.42 2.83 24.48 2.95C24.53 3.08 24.6 3.19 24.83 3.19C24.84 3.19 24.79 3.23 24.78 3.24C24.65 3.49 24.85 3.5 24.99 3.56C25.14 3.62 25.26 3.71 24.95 4.03C24.93 4.05 25.04 4 25.08 4C25.45 3.93 25.41 4.12 25.37 4.29C25.33 4.46 25.3 4.62 25.74 4.56C25.77 4.56 25.68 4.62 25.65 4.64C25.44 4.88 25.42 5.02 25.48 5.13C25.55 5.24 25.71 5.32 25.82 5.41C25.94 5.51 25.81 5.69 25.76 5.83C25.71 5.98 25.73 6.1 26.15 6.16C26.44 6.2 26.06 6.44 26.11 6.53C26.18 6.66 26.25 6.78 26.29 6.92C26.34 7.05 26.31 7.19 26.21 7.32C26.1 7.46 26.24 7.58 26.31 7.71C26.35 7.78 26.37 7.84 26.34 7.89C26.3 7.95 26.21 8 26.03 8.06C26.01 8.06 26.16 8.08 26.18 8.09C26.54 8.31 25.76 8.54 26.41 8.76C26.44 8.77 26.2 8.79 26.2 8.81C26.18 9.03 26.18 9.26 26.18 9.49C26.18 9.5 26.34 9.51 26.33 9.52C25.93 9.75 26.48 9.98 26.24 10.21C26.01 10.43 26.63 10.65 26.07 10.87C26.07 10.88 26.12 10.88 26.15 10.89C26.66 10.98 26.22 11.08 26.22 11.17C26.24 11.39 26.15 11.61 26.17 11.83C26.19 12.08 26.18 12.32 26.17 12.56C26.15 12.78 26.28 13 26.19 13.22C26.15 13.32 26.2 13.42 26.15 13.53C26.05 13.73 25.99 13.94 26.17 14.14C26.28 14.26 26.37 14.34 26.21 14.4C26.18 14.43 26.15 14.47 26.12 14.52C26 14.71 26.39 14.92 26.02 15.12C26 15.13 26.16 15.14 26.16 15.15C26.19 15.39 26.31 15.63 26.21 15.87C26.12 16.09 26.61 16.31 26.08 16.53C26.06 16.54 26.2 16.55 26.21 16.57C26.41 16.79 25.98 17.02 26.36 17.25C26.36 17.26 26.3 17.26 26.28 17.27C25.78 17.48 26.85 17.71 25.98 17.92C25.96 17.92 26.08 17.94 26.11 17.95C26.82 18.17 25.59 18.41 26.44 18.63C26.47 18.64 26.36 18.66 26.33 18.67C25.73 18.88 26.05 19.13 26.2 19.33C26.36 19.55 25.53 19.78 26.33 20.02C26.59 20.1 26.19 20.24 26.23 20.33C26.31 20.55 26.46 20.79 26.23 21.01C26.01 21.24 26.75 21.46 26.03 21.68C26.01 21.69 26.16 21.7 26.18 21.71C26.54 21.93 25.76 22.16 26.41 22.38C26.44 22.39 26.2 22.41 26.2 22.43C26.18 22.66 26.18 22.89 26.18 23.11C26.18 23.12 26.34 23.13 26.33 23.14C25.93 23.37 26.48 23.6 26.24 23.83C26.01 24.05 26.63 24.28 26.07 24.5C26.07 24.5 26.12 24.51 26.15 24.51C26.66 24.6 26.22 24.7 26.22 24.79C26.24 25.01 26.15 25.23 26.17 25.45C26.19 25.7 26.18 25.94 26.17 26.19C26.15 26.4 26.28 26.62 26.19 26.84C26.15 26.94 26.2 27.04 26.15 27.15C26.05 27.35 25.99 27.57 26.17 27.76C26.26 27.87 26.33 28.01 26.12 28.18C25.88 28.36 26.39 28.58 26.02 28.78C26 28.79 26.16 28.8 26.16 28.81C26.19 29.05 26.31 29.29 26.21 29.53C26.12 29.75 26.61 29.97 26.08 30.19C26.06 30.2 26.2 30.21 26.21 30.22C26.41 30.45 25.98 30.68 26.36 30.91C26.36 30.91 26.3 30.92 26.28 30.93C25.78 31.14 26.85 31.36 25.98 31.57C25.96 31.58 26.08 31.6 26.11 31.61C26.82 31.83 25.59 32.07 26.44 32.29C26.47 32.3 26.36 32.32 26.33 32.33C25.73 32.54 26.05 32.78 26.2 32.99C26.36 33.21 25.53 33.43 26.33 33.68C26.59 33.76 26.19 33.9 26.23 33.99C26.31 34.21 26.46 34.45 26.23 34.67C26.01 34.89 26.75 35.12 26.03 35.34C26.01 35.34 26.16 35.36 26.18 35.37C26.54 35.59 25.76 35.82 26.41 36.04C26.44 36.05 26.2 36.07 26.2 36.09C26.18 36.32 26.18 36.54 26.18 36.77C26.18 36.78 26.34 36.79 26.33 36.8C25.93 37.03 26.48 37.26 26.24 37.49C26.01 37.71 26.63 37.94 26.07 38.15C26.07 38.16 26.12 38.16 26.15 38.17C26.66 38.26 26.22 38.36 26.22 38.45C26.24 38.62 26.19 38.79 26.17 38.96C26.28 38.88 26.38 38.8 26.49 38.72C26.63 38.63 26.76 38.54 26.87 38.42C26.98 38.31 27.08 38.18 27.14 38C27.15 37.99 27.2 38.03 27.22 38.03C27.61 38.05 27.77 37.76 27.99 37.5C28.21 37.25 28.49 37.03 28.96 37.28C28.99 37.3 28.97 37.17 28.99 37.12C29.14 36.66 29.56 36.64 29.94 36.65C30.13 36.65 30.33 36.66 30.49 36.62C30.64 36.57 30.78 36.47 30.9 36.23C30.92 36.21 30.98 36.3 31.01 36.33C31.36 36.58 31.69 36.61 32.01 36.57C32.33 36.53 32.66 36.42 32.96 36.37C33.3 36.31 33.6 36.52 33.89 36.65C34.19 36.79 34.49 36.86 34.88 36.53C35.15 36.32 35.45 36.79 35.68 36.82C36.3 36.89 36.96 36.92 37.46 37.32C37.71 37.52 38.03 37.5 38.34 37.53C38.62 37.56 38.85 37.62 39 38.04C39.01 38.06 39.08 37.93 39.11 37.92C39.41 37.82 39.64 37.98 39.89 38.1C40.13 38.22 40.4 38.29 40.68 37.99C40.7 37.96 40.72 38.21 40.76 38.21C40.96 38.24 41.16 38.25 41.33 38.24C41.32 38.24 41.32 38.24 41.31 38.23C41.32 38.24 41.32 38.24 41.33 38.24C41.36 38.24 41.4 38.24 41.43 38.24C41.46 38.21 41.48 38.19 41.49 38.15C41.51 38.11 41.52 38.07 41.52 38.01C41.52 37.96 41.51 37.91 41.51 37.85C41.48 37.62 41.41 37.37 41.53 37.11C41.64 36.86 41.53 36.59 41.45 36.33C41.37 36.07 41.33 35.8 41.57 35.5C41.58 35.49 41.53 35.48 41.5 35.47C40.96 35.3 41.37 35.01 41.34 34.78C41.24 34.23 41.25 33.66 41.16 33.08C41.1 32.76 41.06 32.43 41.04 32.09C41.02 31.75 41.01 31.43 41.01 31.1C41.01 30.53 40.88 29.96 40.97 29.39C41.01 29.13 40.96 28.86 41.02 28.58C41.12 28.06 41.2 27.5 41.04 26.99C40.93 26.68 40.85 26.47 41.01 26.31C41.04 26.23 41.09 26.13 41.12 26.01C41.14 25.95 41.15 25.89 41.15 25.82C41.15 25.79 41.15 25.76 41.15 25.73L41.15 25.68L41.15 25.65C41.14 25.52 41.11 25.38 41.1 25.24C41.08 25.11 41.08 24.97 41.11 24.83C41.14 24.68 41.19 24.55 41.3 24.42C41.32 24.4 41.17 24.34 41.18 24.31C41.22 23.64 41.24 22.95 41.53 22.32C41.59 22.18 41.63 22.03 41.66 21.87C41.68 21.71 41.7 21.55 41.74 21.4C41.78 21.24 41.82 21.09 41.92 20.96C42.01 20.83 42.14 20.71 42.32 20.63C42.35 20.61 42.24 20.52 42.25 20.49C42.28 20.32 42.34 20.17 42.42 20.03C42.51 19.89 42.61 19.76 42.71 19.63C42.91 19.37 43.09 19.11 43.12 18.74C43.12 18.72 43.19 18.75 43.21 18.74C43.3 18.72 43.38 18.68 43.44 18.63C43.5 18.58 43.55 18.52 43.59 18.46C43.68 18.33 43.72 18.17 43.79 18.02C43.85 17.87 43.93 17.73 44.05 17.63C44.18 17.54 44.36 17.5 44.61 17.54C44.64 17.55 44.59 17.43 44.58 17.38C44.57 17.15 44.65 17 44.77 16.89C44.89 16.77 45.06 16.72 45.22 16.65C45.38 16.58 45.54 16.53 45.66 16.42C45.72 16.36 45.77 16.29 45.8 16.2C45.84 16.12 45.86 16.01 45.86 15.88C45.87 15.85 45.96 15.91 46.01 15.92C46.22 15.95 46.4 15.94 46.56 15.9C46.72 15.86 46.86 15.78 46.99 15.69C47.12 15.6 47.24 15.49 47.35 15.38C47.47 15.28 47.58 15.16 47.69 15.07C47.94 14.86 48.3 14.87 48.63 14.84C48.79 14.83 48.95 14.79 49.09 14.71C49.24 14.62 49.36 14.47 49.47 14.24C49.54 14.08 49.71 14.07 49.88 14.09C50.05 14.11 50.23 14.16 50.35 14.12C50.96 13.9 51.63 13.66 52.28 13.85C52.6 13.96 52.91 13.81 53.23 13.76C53.55 13.69 53.88 13.72 54.15 14.1C54.17 14.12 54.22 13.98 54.25 13.97C54.42 13.9 54.58 13.9 54.74 13.93C54.89 13.97 55.04 14.04 55.2 14.1C55.35 14.16 55.49 14.22 55.66 14.23C55.73 14.24 55.82 14.23 55.91 14.21C55.99 14.19 56.08 14.15 56.18 14.1C56.22 14.08 56.21 14.32 56.25 14.34C56.86 14.53 57.46 14.75 58.05 15.02C58.07 15.03 58.17 14.9 58.19 14.92C58.29 15.08 58.42 15.19 58.56 15.27C58.7 15.35 58.85 15.41 59.01 15.46C59.17 15.51 59.32 15.57 59.46 15.65C59.61 15.72 59.74 15.82 59.84 15.96C60.04 16.23 60.34 16.34 60.63 16.49C60.9 16.65 61.17 16.84 61.2 17.25C61.2 17.27 61.26 17.24 61.29 17.23C61.56 17.13 61.67 17.22 61.73 17.35C61.79 17.47 61.8 17.64 61.9 17.73C62.34 18.18 62.66 18.73 63.02 19.24C63.42 19.81 63.75 20.43 64 21.09C64.21 21.66 64.52 22.23 64.56 22.86C64.57 23.01 64.6 23.15 64.63 23.29C64.66 23.44 64.67 23.59 64.66 23.75C64.63 24.33 64.59 24.93 64.73 25.49C64.75 25.57 64.77 25.65 64.78 25.74C64.79 25.83 64.8 25.92 64.79 26.01C64.77 26.2 64.72 26.4 64.59 26.61C64.44 26.84 64.47 27.12 64.48 27.39C64.49 27.67 64.48 27.95 64.25 28.18C64.23 28.2 64.37 28.26 64.37 28.29C64.28 28.92 64.26 29.56 64.02 30.15C63.8 30.69 64.12 31.38 63.46 31.8C63.43 31.82 63.56 31.88 63.56 31.92C63.6 32.54 63.02 33 63.22 33.67C63.23 33.68 63.16 33.68 63.14 33.69C62.51 34.08 63.37 34.94 62.38 35.22C62.36 35.23 62.46 35.3 62.49 35.34C62.62 35.52 62.63 35.68 62.58 35.82C62.54 35.97 62.43 36.11 62.33 36.25C62.22 36.38 62.11 36.52 62.07 36.68C62.02 36.83 62.04 37.01 62.17 37.25C62.19 37.28 62.07 37.27 62.02 37.29C61.91 37.34 61.81 37.39 61.73 37.45C61.81 37.55 61.93 37.65 61.54 37.61C61.53 37.62 61.53 37.62 61.52 37.63C61.54 37.64 61.56 37.65 61.57 37.65C62.22 37.95 61 37.77 61.79 38.1C61.81 38.11 61.71 38.09 61.67 38.09C61.07 38.06 61.34 38.27 61.46 38.42C61.59 38.58 60.75 38.5 61.49 38.82C61.74 38.93 61.33 38.91 61.35 38.96C61.4 39.11 61.51 39.27 61.26 39.34C61.01 39.4 61.7 39.7 60.98 39.65C60.95 39.65 61.09 39.69 61.11 39.7C61.43 39.91 60.65 39.85 61.25 40.12C61.28 40.13 61.04 40.09 61.04 40.1C60.99 40.22 60.95 40.34 60.93 40.46C60.92 40.47 61.08 40.51 61.06 40.51C60.65 40.54 61.15 40.8 60.89 40.87C60.63 40.93 61.2 41.2 60.64 41.19C60.63 41.19 60.68 41.2 60.71 41.21C61.2 41.38 60.75 41.33 60.75 41.38C60.74 41.51 60.62 41.61 60.61 41.73C60.6 41.87 60.56 42 60.51 42.13C60.47 42.24 60.56 42.39 60.46 42.49C60.41 42.53 60.44 42.6 60.37 42.65C60.25 42.73 60.17 42.84 60.32 42.98C60.4 43.06 60.44 43.15 60.22 43.2C59.97 43.25 60.44 43.48 60.05 43.51C60.03 43.51 60.18 43.55 60.18 43.55C60.18 43.69 60.27 43.85 60.15 43.96C60.03 44.06 60.48 44.28 59.94 44.29C59.92 44.29 60.05 44.33 60.06 44.33C60.24 44.5 59.78 44.54 60.13 44.74C60.13 44.74 60.07 44.73 60.06 44.73C59.54 44.75 60.56 45.08 59.69 45.02C59.66 45.02 59.78 45.05 59.81 45.07C60.48 45.33 59.25 45.22 60.05 45.51C60.08 45.52 59.97 45.5 59.94 45.5C59.33 45.5 59.62 45.7 59.74 45.84C59.88 45.99 59.04 45.96 59.79 46.24C60.05 46.33 59.64 46.33 59.66 46.39C59.72 46.53 59.84 46.68 59.6 46.76C59.35 46.84 60.06 47.1 59.33 47.09C59.31 47.09 59.45 47.12 59.47 47.13C59.8 47.32 59.02 47.31 59.64 47.54C59.67 47.55 59.43 47.52 59.42 47.53C59.38 47.65 59.36 47.77 59.34 47.9C59.34 47.9 59.49 47.94 59.48 47.94C59.07 48 59.59 48.21 59.33 48.3C59.08 48.38 59.67 48.6 59.11 48.63C59.1 48.63 59.15 48.65 59.18 48.65C59.68 48.78 59.23 48.77 59.23 48.82C59.23 48.94 59.12 49.05 59.13 49.17C59.13 49.31 59.1 49.44 59.06 49.57C59.03 49.69 59.13 49.82 59.04 49.93C58.99 49.97 59.04 50.04 58.98 50.09C58.87 50.19 58.79 50.3 58.96 50.42C59.06 50.5 59.15 50.55 58.99 50.57C58.96 50.58 58.92 50.6 58.89 50.62C58.76 50.72 59.14 50.86 58.75 50.94C58.74 50.94 58.89 50.96 58.89 50.97C58.91 51.1 59.02 51.24 58.91 51.35C58.82 51.47 59.3 51.61 58.76 51.7C58.74 51.7 58.87 51.72 58.89 51.72C59.08 51.85 58.64 51.96 59.01 52.09C59.02 52.1 58.95 52.1 58.94 52.1C58.69 52.15 58.83 52.21 58.93 52.26C59.02 52.32 59.07 52.37 58.64 52.43C58.62 52.43 58.73 52.44 58.77 52.44C59.13 52.5 59 52.56 58.88 52.62C58.77 52.68 58.67 52.74 59.1 52.78C59.12 52.79 59.02 52.8 58.98 52.81C58.69 52.87 58.62 52.94 58.64 52.99C58.67 53.05 58.79 53.1 58.87 53.16C59.04 53.26 58.23 53.45 59.03 53.51C59.3 53.54 58.9 53.64 58.94 53.69C59.03 53.8 59.19 53.91 58.98 54.06C58.76 54.2 59.52 54.24 58.82 54.44C58.8 54.44 58.94 54.43 58.96 54.44C59.34 54.52 58.58 54.73 59.24 54.77C59.27 54.77 59.03 54.81 59.03 54.82C59.03 54.95 59.04 55.07 59.06 55.19C59.06 55.2 59.22 55.18 59.21 55.19C58.84 55.37 59.39 55.42 59.18 55.57C58.96 55.73 59.59 55.75 59.07 55.96C59.06 55.96 59.11 55.96 59.14 55.95C59.66 55.92 59.22 56.04 59.24 56.09C59.28 56.21 59.21 56.34 59.25 56.46C59.3 56.59 59.31 56.72 59.32 56.85C59.32 56.97 59.47 57.07 59.41 57.2C59.38 57.26 59.44 57.31 59.4 57.37C59.33 57.5 59.29 57.63 59.49 57.7C59.6 57.74 59.68 57.8 59.49 57.93C59.28 58.08 59.8 58.09 59.46 58.28C59.45 58.28 59.6 58.26 59.6 58.26C59.67 58.38 59.81 58.49 59.75 58.63C59.69 58.77 60.19 58.78 59.7 59.02C59.68 59.03 59.82 59 59.83 59.01C60.06 59.08 59.67 59.31 60.07 59.34C60.08 59.34 60.01 59.36 60 59.36C59.54 59.6 60.61 59.46 59.8 59.78C59.78 59.79 59.89 59.77 59.93 59.77C60.65 59.71 59.49 60.15 60.34 60.05C60.37 60.04 60.26 60.08 60.23 60.1C59.69 60.36 60.04 60.41 60.21 60.48C60.4 60.55 59.63 60.9 60.43 60.81C60.7 60.78 60.34 60.96 60.38 61C60.5 61.1 60.68 61.18 60.5 61.36C60.32 61.54 61.07 61.44 60.42 61.77C60.4 61.78 60.54 61.74 60.56 61.74C60.94 61.75 60.24 62.1 60.89 62.03C60.92 62.02 60.7 62.1 60.7 62.11C60.72 62.24 60.75 62.36 60.79 62.48C60.79 62.48 60.95 62.44 60.94 62.45C60.6 62.69 61.16 62.64 60.98 62.83C60.79 63.02 61.42 62.94 60.94 63.23C60.93 63.23 60.98 63.22 61.01 63.21C61.51 63.09 61.11 63.29 61.13 63.33C61.19 63.44 61.14 63.58 61.2 63.69C61.27 63.81 61.31 63.93 61.34 64.06C61.36 64.18 61.52 64.24 61.49 64.37C61.47 64.44 61.54 64.47 61.51 64.53C61.5 64.54 61.5 64.55 61.5 64.56C61.5 64.56 61.5 64.56 61.5 64.55L60 65.87C59.97 65.79 59.92 65.72 59.86 65.65C59.83 65.62 59.8 65.59 59.77 65.55C59.75 65.53 59.74 65.53 59.72 65.51C59.66 65.46 59.63 65.4 59.77 65.26C59.79 65.25 59.64 65.3 59.64 65.3C59.55 65.17 59.39 65.08 59.42 64.91C59.46 64.76 58.96 64.81 59.41 64.5C59.43 64.49 59.29 64.53 59.28 64.53C59.04 64.47 59.41 64.2 59 64.2C59 64.2 59.05 64.18 59.07 64.17C59.5 63.89 58.45 64.11 59.23 63.72C59.25 63.71 59.13 63.74 59.1 63.74C58.38 63.85 59.51 63.33 58.66 63.47C58.64 63.48 58.74 63.43 58.76 63.42C59.29 63.11 58.94 63.08 58.76 63.02C58.57 62.95 59.32 62.57 58.52 62.68C58.25 62.71 58.61 62.52 58.57 62.48C58.44 62.38 58.27 62.29 58.45 62.1C58.63 61.92 57.87 62 58.53 61.68C58.55 61.67 58.41 61.71 58.39 61.7C58 61.68 58.71 61.34 58.05 61.4C58.02 61.4 58.25 61.32 58.25 61.31C58.23 61.18 58.2 61.06 58.16 60.93C58.16 60.93 58 60.96 58.02 60.95C58.36 60.72 57.8 60.74 57.99 60.55C58.19 60.37 57.56 60.4 58.06 60.14C58.07 60.13 58.01 60.14 57.98 60.15C57.47 60.22 57.89 60.06 57.87 60.01C57.82 59.89 57.88 59.75 57.83 59.63C57.77 59.5 57.75 59.36 57.74 59.22C57.72 59.09 57.57 59 57.62 58.86C57.65 58.8 57.59 58.75 57.62 58.68C57.69 58.54 57.73 58.41 57.53 58.34C57.42 58.3 57.34 58.23 57.53 58.09C57.74 57.94 57.21 57.92 57.56 57.74C57.57 57.73 57.42 57.75 57.42 57.74C57.36 57.62 57.21 57.5 57.28 57.35C57.35 57.21 56.84 57.17 57.35 56.95C57.37 56.94 57.23 56.96 57.22 56.95C56.99 56.86 57.4 56.65 57 56.59C56.99 56.59 57.05 56.57 57.07 56.57C57.54 56.36 56.47 56.41 57.3 56.15C57.33 56.14 57.21 56.15 57.17 56.15C56.45 56.13 57.65 55.81 56.79 55.8C56.76 55.8 56.87 55.78 56.9 55.77C57.47 55.56 57.13 55.47 56.97 55.37C56.79 55.26 57.6 55.03 56.8 54.99C56.52 54.97 56.91 54.84 56.88 54.8C56.78 54.67 56.61 54.55 56.82 54.4C57.03 54.25 56.28 54.19 56.98 54C57 53.99 56.86 53.99 56.84 53.99C56.47 53.89 57.23 53.69 56.57 53.61C56.54 53.61 56.78 53.58 56.78 53.57C56.79 53.44 56.79 53.31 56.77 53.17C56.77 53.17 56.61 53.17 56.63 53.16C57.01 53.01 56.47 52.89 56.71 52.74C56.94 52.6 56.32 52.46 56.87 52.33C56.88 52.32 56.82 52.32 56.79 52.31C56.28 52.25 56.73 52.2 56.72 52.14C56.7 52 56.8 51.88 56.79 51.75C56.78 51.6 56.8 51.46 56.82 51.32C56.85 51.19 56.73 51.05 56.82 50.93C56.86 50.87 56.82 50.81 56.88 50.75C56.99 50.64 57.07 50.53 56.9 50.4C56.8 50.32 56.71 50.26 56.87 50.24C56.9 50.23 56.94 50.21 56.98 50.18C57.1 50.09 56.73 49.92 57.11 49.85C57.13 49.85 56.98 49.82 56.98 49.82C56.96 49.68 56.86 49.52 56.98 49.4C57.09 49.29 56.62 49.09 57.16 49.04C57.18 49.04 57.05 49.01 57.04 49C56.85 48.84 57.3 48.78 56.95 48.59C56.94 48.59 57.01 48.59 57.02 48.59C57.54 48.55 56.5 48.26 57.37 48.27C57.4 48.27 57.28 48.24 57.25 48.23C56.57 47.99 57.81 48.05 56.99 47.79C56.96 47.78 57.07 47.79 57.11 47.79C57.71 47.77 57.42 47.58 57.29 47.44C57.16 47.29 57.99 47.3 57.24 47.03C56.98 46.94 57.39 46.93 57.37 46.88C57.3 46.73 57.18 46.57 57.43 46.49C57.68 46.4 56.97 46.14 57.7 46.15C57.72 46.15 57.58 46.12 57.56 46.11C57.23 45.92 58.02 45.93 57.4 45.69C57.37 45.68 57.61 45.71 57.61 45.7C57.66 45.58 57.69 45.45 57.71 45.33C57.71 45.32 57.55 45.28 57.57 45.28C57.98 45.23 57.47 44.99 57.73 44.91C57.99 44.84 57.41 44.59 57.97 44.58C57.98 44.58 57.93 44.56 57.9 44.55C57.41 44.4 57.86 44.44 57.86 44.38C57.86 44.26 57.98 44.15 57.99 44.03C57.99 43.88 58.03 43.75 58.08 43.62C58.12 43.5 58.03 43.36 58.13 43.25C58.18 43.21 58.15 43.14 58.21 43.09C58.34 43 58.42 42.9 58.27 42.75C58.19 42.67 58.14 42.58 58.37 42.53C58.62 42.48 58.15 42.25 58.54 42.22C58.56 42.22 58.41 42.18 58.41 42.17C58.41 42.03 58.33 41.87 58.45 41.77C58.57 41.66 58.12 41.43 58.67 41.43C58.69 41.43 58.55 41.39 58.55 41.38C58.37 41.21 58.83 41.18 58.49 40.97C58.48 40.96 58.54 40.98 58.56 40.98C59.07 40.98 58.07 40.61 58.94 40.69C58.96 40.69 58.85 40.66 58.81 40.64C58.74 40.61 58.69 40.58 58.65 40.56C58.61 40.56 58.56 40.56 58.51 40.56C58.3 40.53 58.1 40.48 57.95 40.51C57.85 40.53 57.76 40.54 57.66 40.56L57.4 40.6C57.25 40.62 57.1 40.64 56.95 40.65C56.66 40.67 56.36 40.65 56.07 40.54C55.49 40.31 54.9 41.06 54.35 40.35C54.34 40.32 54.31 40.47 54.28 40.49C54.15 40.58 54.03 40.6 53.9 40.6C53.77 40.6 53.63 40.56 53.5 40.54C53.24 40.5 52.96 40.51 52.77 40.87C52.76 40.91 52.66 40.68 52.63 40.68C52.11 40.77 51.6 40.91 51.12 41.11C51.09 41.12 51.13 41.28 51.1 41.27C50.94 41.23 50.81 41.25 50.68 41.29C50.56 41.34 50.45 41.42 50.35 41.51C50.24 41.59 50.14 41.68 50.04 41.76C49.93 41.83 49.81 41.89 49.67 41.91C49.39 41.94 49.23 42.17 49.06 42.37C48.98 42.47 48.89 42.56 48.77 42.62C48.66 42.69 48.53 42.72 48.34 42.7C48.32 42.7 48.35 42.75 48.36 42.78C48.55 43.31 48.09 43.12 47.95 43.29C47.62 43.66 47.22 44.01 46.95 44.44C46.65 44.92 46.38 45.41 46.14 45.93C45.92 46.38 45.89 46.89 45.7 47.36C45.6 47.57 45.61 47.82 45.51 48.05C45.35 48.5 45.21 48.96 45.38 49.42C45.26 49.91 45.66 50.49 45.28 51.01C45.26 51.03 45.42 51.06 45.42 51.09C45.45 51.71 45.57 52.32 45.47 52.94C45.38 53.51 45.87 54.08 45.34 54.64C45.32 54.66 45.46 54.7 45.47 54.73C45.57 55.02 45.52 55.31 45.48 55.61C45.53 55.64 45.58 55.67 45.52 55.73C45.44 55.8 45.91 55.75 45.44 55.91L45.44 55.92C45.48 55.91 45.54 55.9 45.55 55.9C45.76 55.91 45.35 56.06 45.73 56.03C45.74 56.03 45.67 56.05 45.66 56.05C45.18 56.21 46.24 56.04 45.4 56.27C45.4 56.27 45.4 56.27 45.4 56.27C45.41 56.27 45.5 56.26 45.53 56.25C46.24 56.16 45.04 56.48 45.88 56.35C45.91 56.35 45.8 56.37 45.77 56.38C45.21 56.56 45.53 56.55 45.69 56.57C45.86 56.59 45.06 56.82 45.84 56.71C46.11 56.67 45.73 56.79 45.76 56.81C45.86 56.85 46.01 56.87 45.8 56.97C45.59 57.07 46.33 56.97 45.64 57.17C45.62 57.18 45.77 57.15 45.78 57.15C46.15 57.13 45.4 57.35 46.05 57.27C46.08 57.26 45.85 57.32 45.85 57.32C45.84 57.38 45.85 57.44 45.86 57.49C45.86 57.49 45.9 57.49 45.94 57.48C45.98 57.47 46.01 57.47 46.01 57.47C45.64 57.61 46.18 57.55 45.96 57.65C45.74 57.76 46.36 57.68 45.83 57.85C45.82 57.85 45.88 57.84 45.9 57.84C46.41 57.76 45.98 57.87 45.99 57.89C46.02 57.94 45.94 58.01 45.97 58.06C46.01 58.12 46.01 58.18 46.01 58.24C46 58.3 46.14 58.32 46.07 58.39C46.03 58.42 46.09 58.44 46.04 58.48C45.95 58.55 45.9 58.61 46.09 58.62C46.19 58.63 46.26 58.65 46.06 58.73C45.84 58.82 46.35 58.78 46 58.9C45.98 58.9 46.13 58.87 46.14 58.88C46.18 58.93 46.31 58.96 46.22 59.04C46.15 59.11 46.64 59.07 46.13 59.23C46.11 59.23 46.25 59.21 46.26 59.21C46.47 59.22 46.05 59.37 46.44 59.35C46.45 59.35 46.38 59.36 46.37 59.36C45.89 59.51 46.95 59.36 46.11 59.58C46.08 59.59 46.2 59.57 46.24 59.56C46.95 59.48 45.75 59.78 46.6 59.67C46.62 59.66 46.52 59.69 46.48 59.7C45.91 59.86 46.24 59.86 46.4 59.88C46.57 59.9 45.76 60.12 46.55 60.02C46.82 59.99 46.43 60.1 46.47 60.12C46.57 60.16 46.72 60.19 46.51 60.28C46.3 60.38 47.05 60.29 46.35 60.48C46.33 60.49 46.47 60.46 46.49 60.46C46.86 60.45 46.11 60.66 46.76 60.58C46.77 60.58 46.72 60.59 46.67 60.6C46.64 60.61 46.61 60.61 46.59 60.62C46.57 60.62 46.55 60.63 46.55 60.63C46.54 60.68 46.55 60.73 46.57 60.77C46.57 60.77 46.61 60.77 46.64 60.76C46.68 60.76 46.72 60.75 46.71 60.75C46.34 60.88 46.88 60.81 46.66 60.91C46.44 61.02 47.06 60.92 46.53 61.1C46.53 61.1 46.58 61.09 46.61 61.09C47.11 60.98 46.68 61.11 46.7 61.13C46.73 61.17 46.65 61.25 46.69 61.29C46.72 61.34 46.73 61.4 46.72 61.46C46.72 61.51 46.86 61.53 46.79 61.6C46.76 61.63 46.81 61.64 46.77 61.68C46.69 61.75 46.64 61.82 46.83 61.81C46.94 61.81 47.04 61.8 46.89 61.86C46.87 61.88 46.83 61.9 46.81 61.91C46.71 61.99 47.1 61.93 46.75 62.08C46.74 62.09 46.89 62.05 46.89 62.05C46.94 62.09 47.06 62.11 46.99 62.2C46.92 62.27 47.4 62.18 46.91 62.39C46.89 62.4 47.02 62.36 47.03 62.36C47.25 62.35 46.85 62.53 47.23 62.47C47.23 62.47 47.17 62.49 47.16 62.5C46.7 62.7 47.73 62.42 46.92 62.74C46.9 62.74 47.01 62.71 47.05 62.7C47.74 62.54 46.59 62.97 47.41 62.76C47.44 62.75 47.33 62.79 47.3 62.8C46.76 63.04 47.08 62.99 47.24 62.99C47.41 62.99 46.63 63.3 47.4 63.11C47.67 63.04 47.29 63.2 47.33 63.21C47.43 63.24 47.59 63.25 47.39 63.37C47.19 63.49 47.92 63.31 47.26 63.59C47.24 63.59 47.37 63.55 47.39 63.55C47.75 63.48 47.04 63.79 47.67 63.63C47.69 63.62 47.64 63.64 47.58 63.66C47.56 63.67 47.53 63.68 47.51 63.69C47.49 63.7 47.47 63.71 47.47 63.71C47.47 63.77 47.49 63.82 47.51 63.87C47.51 63.87 47.55 63.86 47.58 63.85C47.62 63.84 47.66 63.83 47.65 63.83C47.3 64.01 47.83 63.88 47.62 64.01C47.42 64.14 48.02 63.99 47.52 64.22C47.51 64.23 47.56 64.21 47.59 64.2C48.08 64.05 47.67 64.22 47.68 64.24C47.72 64.28 47.65 64.37 47.69 64.41C47.73 64.46 47.74 64.52 47.74 64.58C47.74 64.64 47.88 64.64 47.82 64.72C47.79 64.76 47.85 64.76 47.81 64.81C47.73 64.89 47.69 64.96 47.87 64.94C47.97 64.93 48.05 64.94 47.86 65.05C47.66 65.17 48.16 65.05 47.82 65.22C47.8 65.23 47.95 65.18 47.95 65.19C48 65.23 48.13 65.25 48.06 65.33C48 65.41 48.47 65.3 47.99 65.53C47.98 65.54 48.1 65.5 48.12 65.49C48.33 65.48 47.94 65.68 48.31 65.6C48.32 65.6 48.26 65.62 48.25 65.63C47.79 65.85 48.82 65.54 48.02 65.88C48 65.89 48.11 65.85 48.15 65.84C48.83 65.65 47.7 66.13 48.51 65.89C48.54 65.88 48.44 65.92 48.41 65.94C47.87 66.19 48.19 66.14 48.35 66.13C48.52 66.13 47.76 66.46 48.52 66.24C48.78 66.17 48.41 66.34 48.45 66.35C48.55 66.37 48.71 66.38 48.52 66.51C48.33 66.64 49.04 66.43 48.39 66.73C48.37 66.74 48.51 66.69 48.53 66.69C48.88 66.61 48.18 66.93 48.81 66.76C48.82 66.75 48.77 66.77 48.72 66.8C48.69 66.81 48.67 66.82 48.65 66.83C48.63 66.84 48.61 66.84 48.61 66.84C48.61 66.9 48.63 66.96 48.65 67.01C48.65 67.01 48.69 66.99 48.73 66.98C48.76 66.97 48.8 66.96 48.79 66.96C48.44 67.15 48.97 67.01 48.77 67.15C48.57 67.28 49.17 67.11 48.67 67.36C48.66 67.36 48.71 67.34 48.74 67.34C49.23 67.18 48.82 67.36 48.83 67.37C48.87 67.42 48.81 67.5 48.84 67.54C48.89 67.59 48.9 67.65 48.9 67.71C48.91 67.77 49.04 67.77 48.98 67.85C48.96 67.89 49.01 67.9 48.97 67.94C48.9 68.02 48.81 68.1 48.99 68.08L47.13 68.81C47.22 68.72 46.88 68.79 47.21 68.61C47.22 68.6 47.08 68.65 47.08 68.65C47.02 68.61 46.89 68.59 46.96 68.5C47.03 68.42 46.55 68.54 47.03 68.3C47.05 68.29 46.92 68.34 46.91 68.34C46.69 68.36 47.08 68.15 46.7 68.24C46.7 68.24 46.76 68.21 46.77 68.21C47.22 67.98 46.2 68.31 46.99 67.95C47.02 67.94 46.9 67.98 46.87 67.99C46.18 68.19 47.31 67.7 46.5 67.94C46.47 67.95 46.57 67.91 46.6 67.9C47.14 67.64 46.82 67.69 46.66 67.7C46.49 67.7 47.25 67.36 46.49 67.58C46.23 67.66 46.59 67.49 46.55 67.48C46.45 67.45 46.29 67.45 46.49 67.32C46.68 67.19 45.96 67.4 46.61 67.1C46.63 67.09 46.5 67.13 46.48 67.14C46.12 67.21 46.83 66.89 46.2 67.06C46.17 67.07 46.39 66.98 46.39 66.98C46.39 66.92 46.38 66.86 46.35 66.81C46.35 66.81 46.32 66.82 46.28 66.84C46.24 66.85 46.21 66.86 46.21 66.86C46.56 66.67 46.03 66.8 46.24 66.67C46.43 66.53 45.84 66.69 46.33 66.45C46.34 66.45 46.29 66.47 46.26 66.48C45.77 66.63 46.18 66.45 46.17 66.44C46.13 66.39 46.2 66.31 46.16 66.26C46.12 66.21 46.11 66.15 46.11 66.09C46.1 66.03 45.97 66.03 46.03 65.95C46.05 65.91 46 65.9 46.04 65.86C46.11 65.78 46.15 65.71 45.97 65.72C45.87 65.73 45.8 65.72 45.98 65.61C46.18 65.49 45.69 65.61 46.02 65.44C46.04 65.43 45.89 65.48 45.89 65.48C45.84 65.43 45.71 65.41 45.78 65.32C45.85 65.24 45.37 65.35 45.85 65.13C45.87 65.12 45.74 65.16 45.73 65.16C45.51 65.17 45.9 64.98 45.53 65.05C45.52 65.05 45.58 65.03 45.59 65.02C46.05 64.81 45.02 65.1 45.82 64.77C45.85 64.76 45.73 64.8 45.7 64.8C45.01 64.98 46.15 64.52 45.33 64.75C45.31 64.75 45.41 64.72 45.44 64.7C45.98 64.46 45.66 64.51 45.5 64.51C45.33 64.51 46.1 64.18 45.33 64.38C45.07 64.45 45.43 64.29 45.4 64.28C45.3 64.25 45.14 64.24 45.34 64.12C45.53 63.99 44.81 64.18 45.47 63.9C45.49 63.89 45.35 63.93 45.33 63.93C44.97 63.99 45.69 63.7 45.05 63.85C45.02 63.85 45.25 63.77 45.25 63.77C45.25 63.71 45.24 63.65 45.22 63.6C45.22 63.6 45.18 63.61 45.14 63.62C45.11 63.63 45.07 63.64 45.08 63.64C45.43 63.46 44.9 63.58 45.11 63.45C45.31 63.32 44.7 63.46 45.21 63.24C45.22 63.23 45.17 63.25 45.14 63.26C44.64 63.39 45.06 63.23 45.05 63.21C45.01 63.17 45.08 63.08 45.05 63.04C45.01 62.98 45 62.92 45 62.86C45 62.8 44.86 62.79 44.92 62.71C44.95 62.67 44.9 62.66 44.94 62.62C45.02 62.54 45.06 62.48 44.88 62.48C44.76 62.48 44.67 62.49 44.81 62.43C44.84 62.41 44.87 62.39 44.9 62.37C45 62.29 44.6 62.35 44.95 62.2C44.97 62.19 44.82 62.23 44.81 62.23C44.76 62.18 44.64 62.15 44.71 62.07C44.78 61.99 44.29 62.06 44.79 61.87C44.81 61.86 44.68 61.89 44.67 61.89C44.45 61.89 44.86 61.72 44.48 61.75C44.47 61.75 44.53 61.74 44.55 61.73C45.02 61.56 43.97 61.76 44.79 61.5C44.82 61.49 44.7 61.51 44.66 61.52C43.96 61.63 45.14 61.28 44.31 61.41C44.28 61.42 44.38 61.39 44.41 61.38C44.98 61.19 44.65 61.2 44.5 61.17C44.32 61.14 45.13 60.92 44.33 61.01C44.06 61.04 44.45 60.93 44.42 60.92C44.32 60.88 44.17 60.85 44.38 60.75C44.59 60.66 43.84 60.75 44.53 60.56C44.55 60.55 44.41 60.58 44.39 60.58C44.03 60.59 44.78 60.39 44.13 60.46C44.11 60.46 44.16 60.45 44.22 60.44C44.25 60.43 44.27 60.42 44.3 60.42C44.32 60.41 44.33 60.41 44.33 60.41C44.34 60.35 44.33 60.29 44.32 60.24C44.32 60.24 44.28 60.24 44.24 60.25C44.2 60.26 44.17 60.26 44.17 60.26C44.55 60.13 44 60.18 44.22 60.08C44.44 59.98 43.82 60.05 44.35 59.89C44.36 59.88 44.31 59.89 44.28 59.9C43.77 59.98 44.2 59.87 44.19 59.85C44.16 59.8 44.24 59.73 44.21 59.68C44.18 59.62 44.17 59.56 44.18 59.5C44.19 59.44 44.05 59.42 44.12 59.35C44.15 59.32 44.1 59.3 44.15 59.27C44.23 59.2 44.28 59.13 44.1 59.12C43.99 59.12 43.93 59.1 44.12 59.01C44.34 58.92 43.83 58.97 44.19 58.85C44.21 58.84 44.05 58.87 44.05 58.87C44.01 58.82 43.88 58.78 43.96 58.71C44.04 58.64 43.55 58.68 44.06 58.52C44.08 58.52 43.94 58.54 43.93 58.54C43.72 58.53 44.13 58.38 43.75 58.41C43.74 58.41 43.81 58.39 43.82 58.39C44.3 58.23 43.25 58.4 44.08 58.17C44.11 58.16 43.99 58.18 43.95 58.19C43.25 58.28 44.44 57.97 43.6 58.09C43.57 58.09 43.68 58.07 43.71 58.06C44.28 57.89 43.95 57.89 43.8 57.88C43.63 57.86 44.43 57.63 43.64 57.74C43.37 57.77 43.76 57.66 43.72 57.64C43.63 57.61 43.47 57.58 43.68 57.48C43.89 57.38 43.15 57.48 43.84 57.28C43.86 57.27 43.72 57.3 43.7 57.3C43.34 57.32 44.08 57.11 43.44 57.19C43.4 57.19 43.64 57.14 43.64 57.13C43.65 57.08 43.64 57.02 43.63 56.97C43.63 56.97 43.59 56.97 43.55 56.98C43.51 56.98 43.47 56.99 43.48 56.99C43.84 56.85 43.33 56.91 43.52 56.81C43.51 56.79 43.51 56.78 43.5 56.77C42.95 56.27 42.36 57.33 41.82 56.47C41.81 56.45 41.77 56.56 41.74 56.6C41.16 57.31 40.54 56.08 39.97 56.92C39.95 56.95 39.91 56.84 39.88 56.81C39.32 56.22 38.7 56.54 38.17 56.69C38 56.74 37.82 56.69 37.64 56.63C37.66 56.67 37.67 56.71 37.6 56.7C37.51 56.69 37.91 56.97 37.43 56.73C37.41 56.72 37.53 56.79 37.54 56.8C37.7 56.94 37.3 56.75 37.61 56.98C37.62 56.98 37.56 56.95 37.55 56.94C37.1 56.72 38 57.29 37.23 56.89C37.21 56.88 37.31 56.94 37.34 56.96C37.93 57.35 36.85 56.76 37.56 57.22C37.59 57.24 37.49 57.18 37.46 57.17C36.93 56.9 37.19 57.1 37.3 57.2C37.42 57.32 36.68 56.93 37.35 57.37C37.57 57.52 37.21 57.33 37.23 57.36C37.29 57.44 37.39 57.55 37.18 57.47C36.96 57.39 37.59 57.8 36.95 57.47C36.93 57.46 37.05 57.53 37.07 57.54C37.36 57.76 36.67 57.4 37.22 57.76C37.24 57.78 37.03 57.66 37.03 57.66C36.99 57.68 36.97 57.72 36.95 57.75C36.95 57.75 37.09 57.83 37.08 57.83C36.72 57.67 37.17 57.97 36.94 57.89C36.72 57.8 37.23 58.15 36.74 57.9C36.73 57.9 36.78 57.93 36.8 57.94C37.24 58.21 36.84 58 36.84 58.02C36.84 58.06 36.74 58.05 36.74 58.09C36.74 58.14 36.71 58.17 36.67 58.19C36.64 58.22 36.73 58.31 36.64 58.3C36.6 58.3 36.63 58.34 36.57 58.33C36.47 58.31 36.4 58.31 36.54 58.43C36.61 58.49 36.66 58.54 36.46 58.46C36.24 58.37 36.66 58.66 36.32 58.5C36.31 58.5 36.44 58.57 36.44 58.58C36.45 58.63 36.53 58.72 36.42 58.71C36.32 58.69 36.73 58.97 36.25 58.74C36.23 58.73 36.35 58.8 36.36 58.81C36.52 58.94 36.12 58.76 36.43 58.98C36.43 58.99 36.38 58.96 36.37 58.95C35.91 58.73 36.81 59.3 36.05 58.89C36.03 58.88 36.13 58.94 36.16 58.96C36.75 59.35 35.67 58.77 36.38 59.23C36.4 59.24 36.31 59.19 36.28 59.18C35.75 58.91 36.01 59.11 36.12 59.21C36.24 59.32 35.5 58.94 36.16 59.37C36.39 59.52 36.03 59.34 36.05 59.37C36.11 59.45 36.21 59.55 36 59.47C35.78 59.39 36.41 59.8 35.77 59.47C35.75 59.46 35.87 59.54 35.89 59.55C36.18 59.76 35.49 59.41 36.04 59.77C36.06 59.78 35.85 59.66 35.85 59.67C35.81 59.69 35.79 59.72 35.77 59.76C35.77 59.76 35.91 59.84 35.89 59.83C35.54 59.67 35.99 59.98 35.76 59.89C35.54 59.81 36.05 60.15 35.56 59.91C35.55 59.9 35.6 59.93 35.62 59.95C36.06 60.22 35.66 60.01 35.66 60.02C35.66 60.07 35.56 60.05 35.56 60.1C35.56 60.14 35.53 60.17 35.49 60.2C35.46 60.22 35.55 60.32 35.46 60.31C35.41 60.3 35.45 60.34 35.39 60.33C35.29 60.31 35.22 60.31 35.35 60.43C35.44 60.51 35.52 60.57 35.37 60.49C35.34 60.49 35.31 60.47 35.28 60.46C35.16 60.43 35.48 60.66 35.14 60.5C35.13 60.5 35.26 60.58 35.26 60.58C35.27 60.63 35.35 60.72 35.24 60.71C35.15 60.7 35.55 60.98 35.07 60.74C35.05 60.73 35.17 60.8 35.18 60.81C35.34 60.95 34.94 60.76 35.25 60.98C35.26 60.99 35.2 60.96 35.19 60.95C34.74 60.73 35.64 61.3 34.87 60.89C34.85 60.88 34.95 60.94 34.98 60.96C35.57 61.35 34.49 60.77 35.2 61.23C35.23 61.24 35.13 61.19 35.1 61.18C34.57 60.91 34.83 61.11 34.94 61.21C35.06 61.33 34.32 60.94 34.99 61.37C35.21 61.52 34.85 61.34 34.87 61.37C34.93 61.45 35.03 61.56 34.82 61.47C34.6 61.39 35.23 61.8 34.59 61.47C34.57 61.46 34.69 61.54 34.71 61.55C35 61.76 34.31 61.41 34.86 61.77C34.88 61.78 34.67 61.67 34.67 61.67C34.63 61.69 34.61 61.72 34.59 61.76C34.59 61.76 34.73 61.84 34.72 61.84C34.36 61.67 34.81 61.98 34.58 61.89C34.36 61.81 34.87 62.15 34.38 61.91C34.37 61.9 34.42 61.93 34.44 61.95C34.88 62.22 34.48 62.01 34.48 62.03C34.48 62.07 34.38 62.05 34.38 62.1C34.38 62.14 34.35 62.18 34.31 62.2C34.28 62.22 34.37 62.32 34.28 62.31C34.24 62.31 34.27 62.35 34.21 62.33C34.11 62.31 34.04 62.31 34.18 62.43C34.25 62.5 34.3 62.55 34.1 62.47C33.88 62.38 34.3 62.67 33.96 62.51C33.95 62.5 34.08 62.58 34.08 62.58C34.09 62.63 34.17 62.73 34.06 62.71C33.96 62.7 34.37 62.98 33.89 62.74C33.87 62.73 33.99 62.81 34 62.81C34.16 62.95 33.76 62.76 34.07 62.99C34.07 62.99 34.02 62.96 34.01 62.96C33.55 62.73 34.45 63.3 33.69 62.9C33.67 62.89 33.77 62.95 33.8 62.97C34.39 63.36 33.31 62.77 34.02 63.23C34.04 63.25 33.95 63.2 33.92 63.18C33.39 62.91 33.65 63.11 33.76 63.22C33.88 63.33 33.14 62.95 33.8 63.38C34.03 63.53 33.67 63.35 33.69 63.38C33.75 63.45 33.85 63.56 33.64 63.48C33.42 63.4 34.05 63.81 33.41 63.48C33.39 63.47 33.51 63.54 33.53 63.55C33.82 63.77 33.13 63.41 33.68 63.77C33.7 63.79 33.49 63.67 33.49 63.67C33.45 63.7 33.43 63.73 33.41 63.76C33.41 63.77 33.55 63.85 33.53 63.84C33.18 63.68 33.63 63.99 33.4 63.9C33.18 63.81 33.69 64.16 33.2 63.91C33.19 63.91 33.24 63.94 33.26 63.95C33.7 64.22 33.3 64.01 33.3 64.03C33.3 64.07 33.2 64.06 33.2 64.1C33.2 64.15 33.17 64.18 33.13 64.21C33.1 64.23 33.19 64.33 33.1 64.32C33.05 64.31 33.09 64.35 33.03 64.34C32.93 64.32 32.82 64.29 32.96 64.41L31.23 63.4C31.35 63.43 31.07 63.22 31.41 63.38C31.42 63.39 31.29 63.31 31.29 63.31C31.28 63.26 31.2 63.16 31.31 63.18C31.41 63.19 31 62.91 31.48 63.15C31.5 63.16 31.38 63.09 31.37 63.08C31.21 62.94 31.61 63.13 31.3 62.9C31.3 62.9 31.35 62.93 31.36 62.94C31.82 63.16 30.92 62.59 31.68 62.99C31.7 63 31.6 62.94 31.57 62.92C30.98 62.53 32.06 63.12 31.35 62.66C31.33 62.64 31.42 62.7 31.45 62.71C31.98 62.98 31.72 62.78 31.61 62.67C31.49 62.56 32.23 62.95 31.57 62.51C31.34 62.36 31.7 62.55 31.68 62.52C31.63 62.44 31.52 62.33 31.73 62.41C31.95 62.49 31.32 62.08 31.96 62.41C31.98 62.42 31.86 62.35 31.84 62.34C31.55 62.12 32.24 62.48 31.7 62.12C31.67 62.1 31.88 62.22 31.88 62.22C31.92 62.2 31.94 62.16 31.96 62.13C31.96 62.13 31.82 62.04 31.84 62.05C32.19 62.21 31.74 61.91 31.97 61.99C32.19 62.08 31.68 61.73 32.17 61.98C32.18 61.98 32.13 61.95 32.11 61.94C31.67 61.67 32.07 61.88 32.07 61.86C32.07 61.82 32.17 61.83 32.17 61.79C32.17 61.74 32.2 61.71 32.24 61.68C32.27 61.66 32.18 61.57 32.27 61.58C32.32 61.58 32.28 61.54 32.34 61.55C32.44 61.57 32.51 61.57 32.38 61.45C32.3 61.39 32.26 61.34 32.45 61.42C32.67 61.51 32.25 61.22 32.59 61.38C32.6 61.38 32.47 61.31 32.47 61.3C32.46 61.25 32.39 61.16 32.49 61.17C32.59 61.18 32.18 60.9 32.66 61.14C32.68 61.15 32.56 61.08 32.55 61.07C32.39 60.93 32.79 61.12 32.48 60.9C32.48 60.89 32.53 60.92 32.55 60.93C33 61.15 32.1 60.58 32.86 60.99C32.88 61 32.78 60.94 32.75 60.92C32.16 60.53 33.24 61.11 32.53 60.65C32.51 60.64 32.6 60.69 32.63 60.7C33.16 60.97 32.91 60.77 32.8 60.67C32.67 60.55 33.41 60.94 32.75 60.51C32.52 60.36 32.88 60.54 32.86 60.51C32.81 60.43 32.7 60.33 32.91 60.41C33.13 60.49 32.51 60.08 33.14 60.41C33.16 60.42 33.04 60.34 33.02 60.33C32.73 60.12 33.42 60.47 32.88 60.11C32.85 60.1 33.06 60.21 33.06 60.21C33.1 60.19 33.12 60.16 33.14 60.12C33.14 60.12 33 60.04 33.02 60.04C33.38 60.21 32.93 59.9 33.15 59.99C33.37 60.07 32.86 59.73 33.35 59.97C33.36 59.98 33.31 59.95 33.29 59.93C32.85 59.66 33.25 59.87 33.25 59.85C33.25 59.81 33.35 59.83 33.35 59.78C33.35 59.74 33.38 59.7 33.42 59.68C33.46 59.66 33.36 59.56 33.46 59.57C33.5 59.57 33.46 59.54 33.52 59.55C33.62 59.57 33.69 59.57 33.56 59.45C33.47 59.37 33.4 59.31 33.54 59.38C33.57 59.39 33.6 59.41 33.63 59.41C33.75 59.45 33.43 59.22 33.77 59.38C33.78 59.38 33.65 59.3 33.65 59.3C33.64 59.25 33.56 59.16 33.67 59.17C33.77 59.18 33.36 58.9 33.84 59.14C33.86 59.15 33.74 59.08 33.73 59.07C33.57 58.93 33.97 59.12 33.66 58.9C33.66 58.89 33.71 58.92 33.72 58.93C34.18 59.15 33.28 58.58 34.04 58.99C34.06 59 33.96 58.94 33.93 58.91C33.34 58.53 34.42 59.11 33.71 58.65C33.69 58.64 33.78 58.69 33.81 58.7C34.34 58.97 34.08 58.77 33.97 58.67C33.85 58.55 34.59 58.94 33.93 58.5C33.7 58.36 34.06 58.54 34.04 58.51C33.99 58.43 33.88 58.32 34.09 58.4C34.31 58.49 33.68 58.08 34.32 58.41C34.34 58.42 34.22 58.34 34.2 58.33C33.91 58.12 34.6 58.47 34.06 58.11C34.03 58.09 34.24 58.21 34.24 58.21C34.28 58.19 34.3 58.16 34.32 58.12C34.32 58.12 34.18 58.04 34.2 58.04C34.55 58.21 34.1 57.9 34.33 57.99C34.55 58.07 34.04 57.73 34.53 57.97C34.54 57.98 34.49 57.95 34.47 57.93C34.03 57.66 34.43 57.87 34.43 57.85C34.43 57.81 34.53 57.83 34.53 57.78C34.53 57.74 34.56 57.7 34.6 57.68C34.63 57.66 34.54 57.56 34.63 57.57C34.68 57.57 34.64 57.53 34.7 57.55C34.8 57.57 34.87 57.57 34.74 57.45C34.66 57.38 34.62 57.33 34.81 57.41C35.03 57.5 34.61 57.21 34.95 57.37C34.96 57.38 34.83 57.3 34.83 57.3C34.82 57.24 34.75 57.15 34.85 57.17C34.95 57.18 34.54 56.9 35.02 57.14C35.04 57.14 34.92 57.07 34.91 57.07C34.75 56.93 35.15 57.11 34.84 56.89C34.84 56.89 34.89 56.92 34.91 56.92C35.36 57.15 34.46 56.57 35.22 56.98C35.24 56.99 35.14 56.93 35.11 56.91C35.04 56.86 34.99 56.83 34.96 56.81C34.58 56.85 34.2 56.86 33.83 56.72C33.25 56.49 32.67 57.24 32.1 56.52C32.09 56.5 32.05 56.64 32.02 56.66C31.45 57.02 30.85 56.25 30.28 56.9C30.25 56.93 30.2 56.69 30.16 56.69C29.87 56.68 29.57 56.67 29.28 56.67L28.84 56.66L28.62 56.66L28.51 56.66L28.37 56.66C28.34 56.66 28.29 56.82 28.26 56.8C28.17 56.75 28.08 56.71 27.99 56.68C27.9 56.64 27.81 56.62 27.72 56.6C27.63 56.58 27.53 56.57 27.44 56.56C27.4 56.56 27.35 56.55 27.31 56.55C27.32 56.58 27.3 56.59 27.16 56.53C27.15 56.53 27.15 56.53 27.15 56.53C27.17 56.54 27.26 56.6 27.26 56.6C27.26 56.66 27.34 56.77 27.23 56.76C27.12 56.76 27.52 57.05 27.04 56.82C27.02 56.82 27.14 56.89 27.14 56.89C27.3 57.04 26.89 56.87 27.2 57.1C27.2 57.11 27.15 57.07 27.13 57.07C26.67 56.85 27.57 57.43 26.8 57.04C26.78 57.03 26.88 57.09 26.91 57.11C27.49 57.51 26.41 56.94 27.11 57.41C27.13 57.42 27.04 57.37 27.01 57.35C26.47 57.1 26.72 57.3 26.83 57.42C26.94 57.54 26.2 57.17 26.86 57.61C27.08 57.76 26.72 57.58 26.74 57.62C26.78 57.7 26.88 57.82 26.66 57.75C26.44 57.68 27.06 58.1 26.42 57.78C26.4 57.77 26.52 57.84 26.54 57.86C26.82 58.08 26.13 57.73 26.67 58.1C26.69 58.12 26.48 58 26.48 58.01C26.43 58.04 26.41 58.08 26.38 58.12C26.38 58.13 26.52 58.21 26.51 58.2C26.14 58.05 26.59 58.37 26.35 58.29C26.13 58.22 26.64 58.57 26.14 58.33C26.13 58.33 26.17 58.36 26.2 58.37C26.63 58.65 26.24 58.44 26.23 58.47C26.22 58.52 26.12 58.51 26.11 58.56C26.1 58.62 26.07 58.66 26.02 58.7C25.98 58.73 26.07 58.84 25.97 58.84C25.93 58.84 25.96 58.88 25.9 58.88C25.79 58.86 25.72 58.87 25.85 59C25.92 59.07 25.96 59.13 25.76 59.06C25.54 58.97 25.95 59.27 25.61 59.12C25.59 59.11 25.72 59.19 25.72 59.2C25.72 59.26 25.8 59.36 25.69 59.36C25.58 59.36 25.98 59.65 25.5 59.42C25.48 59.41 25.6 59.48 25.6 59.49C25.76 59.64 25.35 59.46 25.66 59.7C25.66 59.7 25.61 59.67 25.59 59.66C25.13 59.45 26.03 60.03 25.26 59.63C25.24 59.62 25.34 59.69 25.37 59.71C25.95 60.11 24.87 59.53 25.57 60C25.59 60.02 25.5 59.96 25.47 59.95C24.93 59.69 25.18 59.9 25.29 60.01C25.4 60.14 24.66 59.76 25.32 60.21C25.54 60.36 25.18 60.18 25.2 60.21C25.24 60.3 25.34 60.42 25.13 60.35C24.9 60.28 25.52 60.7 24.88 60.37C24.86 60.36 24.98 60.44 25 60.45C25.28 60.67 24.59 60.33 25.13 60.7C25.15 60.72 24.94 60.6 24.94 60.6C24.89 60.64 24.87 60.68 24.84 60.72C24.84 60.72 24.98 60.81 24.97 60.8C24.6 60.65 25.05 60.96 24.82 60.89C24.59 60.81 25.1 61.17 24.6 60.93C24.59 60.92 24.64 60.96 24.66 60.97C25.09 61.25 24.7 61.04 24.69 61.06C24.68 61.11 24.58 61.11 24.57 61.16C24.57 61.22 24.53 61.26 24.48 61.3C24.44 61.33 24.53 61.43 24.43 61.43C24.39 61.43 24.42 61.48 24.36 61.47C24.25 61.46 24.18 61.47 24.31 61.6C24.39 61.68 24.47 61.74 24.32 61.67C24.29 61.66 24.25 61.65 24.23 61.65C24.1 61.62 24.42 61.86 24.07 61.71C24.06 61.7 24.19 61.78 24.19 61.79C24.19 61.85 24.26 61.95 24.15 61.95C24.05 61.95 24.45 62.24 23.96 62.01C23.95 62 24.06 62.07 24.07 62.08C24.22 62.23 23.82 62.05 24.12 62.29C24.13 62.29 24.07 62.26 24.06 62.25C23.6 62.04 24.5 62.62 23.72 62.22C23.7 62.21 23.8 62.28 23.83 62.3C24.42 62.7 23.33 62.12 24.04 62.59C24.06 62.61 23.96 62.55 23.93 62.54C23.4 62.28 23.65 62.49 23.75 62.6C23.87 62.73 23.13 62.35 23.78 62.8C24.01 62.95 23.64 62.77 23.66 62.8C23.71 62.89 23.81 63.01 23.59 62.94C23.37 62.87 23.99 63.29 23.35 62.96C23.33 62.95 23.45 63.03 23.46 63.04C23.75 63.26 23.06 62.92 23.59 63.29C23.62 63.31 23.41 63.19 23.4 63.19C23.36 63.23 23.33 63.27 23.31 63.31C23.31 63.31 23.44 63.4 23.43 63.39C23.07 63.24 23.51 63.55 23.28 63.48C23.05 63.4 23.56 63.76 23.06 63.52C23.05 63.52 23.1 63.55 23.12 63.56C23.56 63.84 23.16 63.63 23.16 63.65C23.15 63.7 23.05 63.7 23.04 63.75C23.03 63.81 22.99 63.85 22.95 63.89C22.91 63.92 23 64.02 22.9 64.02C22.85 64.02 22.89 64.07 22.83 64.06C22.72 64.05 22.64 64.06 22.77 64.19C22.85 64.26 22.89 64.32 22.69 64.24C22.46 64.16 22.88 64.46 22.53 64.31C22.52 64.3 22.65 64.38 22.65 64.38C22.65 64.44 22.72 64.55 22.61 64.55C22.51 64.54 22.91 64.83 22.42 64.61C22.41 64.6 22.52 64.67 22.53 64.68C22.68 64.82 22.28 64.65 22.58 64.88C22.59 64.89 22.53 64.86 22.52 64.85C22.06 64.64 22.96 65.22 22.18 64.82C22.16 64.81 22.26 64.87 22.29 64.89C22.88 65.29 21.79 64.72 22.5 65.19C22.52 65.2 22.42 65.15 22.39 65.14C21.86 64.88 22.11 65.09 22.21 65.2C22.33 65.32 21.59 64.95 22.24 65.39C22.47 65.54 22.1 65.37 22.12 65.4C22.17 65.49 22.27 65.61 22.05 65.53C21.83 65.46 22.45 65.88 21.81 65.56C21.79 65.55 21.91 65.63 21.92 65.64C22.21 65.86 21.52 65.51 22.05 65.89C22.08 65.9 21.87 65.79 21.86 65.79C21.82 65.82 21.79 65.86 21.77 65.91C21.77 65.91 21.9 65.99 21.89 65.99C21.53 65.83 21.97 66.15 21.74 66.07C21.52 66 22.02 66.35 21.52 66.12C21.52 66.11 21.56 66.14 21.59 66.16C22.02 66.43 21.62 66.23 21.62 66.25C21.61 66.3 21.51 66.29 21.5 66.35C21.49 66.4 21.45 66.45 21.41 66.48C21.37 66.51 21.46 66.62 21.36 66.62C21.31 66.62 21.35 66.67 21.29 66.66C21.18 66.65 21.06 66.63 21.2 66.76L19.47 65.75C19.59 65.77 19.32 65.55 19.66 65.7C19.68 65.71 19.55 65.63 19.55 65.63C19.55 65.57 19.47 65.46 19.58 65.46C19.68 65.47 19.29 65.18 19.77 65.4C19.79 65.41 19.67 65.34 19.67 65.33C19.51 65.19 19.92 65.36 19.61 65.13C19.61 65.12 19.66 65.15 19.68 65.16C20.13 65.37 19.24 64.79 20.01 65.19C20.03 65.2 19.93 65.14 19.9 65.12C19.32 64.72 20.4 65.29 19.7 64.82C19.68 64.81 19.77 64.86 19.8 64.87C20.34 65.13 20.09 64.92 19.98 64.81C19.87 64.69 20.61 65.06 19.95 64.62C19.73 64.46 20.09 64.64 20.07 64.61C20.03 64.52 19.92 64.4 20.14 64.48C20.37 64.55 19.75 64.13 20.39 64.45C20.41 64.46 20.29 64.38 20.27 64.37C19.99 64.15 20.68 64.5 20.14 64.12C20.12 64.11 20.33 64.22 20.33 64.22C20.37 64.19 20.4 64.15 20.43 64.1C20.43 64.1 20.29 64.02 20.3 64.02C20.67 64.18 20.22 63.86 20.45 63.94C20.68 64.01 20.17 63.66 20.67 63.89C20.68 63.9 20.63 63.87 20.61 63.85C20.18 63.58 20.57 63.78 20.58 63.76C20.58 63.71 20.69 63.71 20.7 63.66C20.7 63.61 20.74 63.56 20.78 63.53C20.82 63.49 20.74 63.39 20.83 63.39C20.88 63.39 20.85 63.34 20.91 63.35C21.01 63.36 21.09 63.35 20.96 63.23C20.89 63.15 20.85 63.1 21.05 63.17C21.27 63.25 20.86 62.95 21.2 63.11C21.22 63.11 21.09 63.03 21.09 63.03C21.08 62.97 21.01 62.86 21.12 62.87C21.22 62.87 20.83 62.58 21.31 62.81C21.33 62.82 21.21 62.74 21.2 62.74C21.05 62.59 21.45 62.76 21.15 62.53C21.14 62.53 21.2 62.56 21.21 62.56C21.67 62.78 20.78 62.2 21.55 62.59C21.57 62.6 21.47 62.54 21.44 62.52C20.85 62.12 21.94 62.7 21.24 62.22C21.21 62.21 21.31 62.26 21.34 62.28C21.88 62.54 21.62 62.33 21.52 62.21C21.41 62.09 22.15 62.47 21.49 62.02C21.27 61.87 21.63 62.05 21.61 62.01C21.56 61.93 21.46 61.81 21.68 61.88C21.9 61.95 21.28 61.53 21.93 61.85C21.95 61.86 21.82 61.79 21.81 61.78C21.52 61.55 22.22 61.9 21.68 61.53C21.66 61.51 21.87 61.63 21.87 61.62C21.91 61.59 21.94 61.55 21.96 61.51C21.97 61.5 21.83 61.42 21.84 61.43C22.2 61.58 21.76 61.26 21.99 61.34C22.22 61.41 21.71 61.06 22.21 61.3C22.22 61.3 22.17 61.27 22.15 61.26C21.72 60.98 22.11 61.19 22.11 61.17C22.12 61.11 22.23 61.12 22.23 61.07C22.24 61.01 22.28 60.97 22.32 60.93C22.36 60.9 22.28 60.79 22.37 60.79C22.42 60.79 22.39 60.75 22.44 60.75C22.55 60.77 22.63 60.76 22.5 60.63C22.42 60.55 22.34 60.49 22.49 60.55C22.52 60.56 22.55 60.58 22.58 60.58C22.7 60.6 22.39 60.36 22.73 60.52C22.75 60.52 22.62 60.44 22.62 60.44C22.62 60.38 22.54 60.27 22.65 60.28C22.76 60.28 22.36 59.99 22.84 60.22C22.86 60.23 22.74 60.15 22.74 60.15C22.58 60 22.99 60.17 22.68 59.94C22.68 59.94 22.73 59.97 22.75 59.97C23.21 60.19 22.31 59.61 23.08 60C23.1 60.01 23 59.95 22.97 59.93C22.39 59.53 23.47 60.11 22.77 59.63C22.75 59.62 22.84 59.67 22.87 59.69C23.41 59.95 23.16 59.74 23.05 59.62C22.94 59.5 23.68 59.88 23.02 59.43C22.8 59.28 23.16 59.46 23.14 59.42C23.1 59.34 23 59.22 23.22 59.29C23.44 59.36 22.82 58.94 23.46 59.26C23.48 59.27 23.36 59.2 23.34 59.19C23.06 58.96 23.75 59.31 23.21 58.94C23.19 58.92 23.4 59.04 23.4 59.03C23.45 59 23.47 58.96 23.5 58.92C23.5 58.91 23.36 58.83 23.37 58.84C23.74 58.99 23.29 58.67 23.53 58.75C23.75 58.82 23.24 58.47 23.74 58.71C23.75 58.71 23.71 58.68 23.68 58.67C23.25 58.39 23.64 58.6 23.65 58.58C23.66 58.52 23.76 58.53 23.77 58.48C23.78 58.42 23.81 58.38 23.85 58.34C23.89 58.31 23.81 58.2 23.91 58.2C23.95 58.2 23.92 58.16 23.98 58.16C24.09 58.18 24.16 58.17 24.03 58.04C23.96 57.97 23.92 57.91 24.12 57.98C24.34 58.07 23.93 57.77 24.27 57.92C24.29 57.93 24.16 57.85 24.16 57.84C24.16 57.78 24.08 57.68 24.19 57.68C24.29 57.68 23.9 57.39 24.38 57.62C24.4 57.63 24.28 57.56 24.27 57.55C24.12 57.4 24.52 57.58 24.22 57.34C24.22 57.34 24.27 57.37 24.29 57.38C24.74 57.59 23.85 57.01 24.62 57.41C24.64 57.42 24.54 57.35 24.51 57.33C23.92 56.93 25.01 57.51 24.31 57.04C24.28 57.02 24.38 57.08 24.41 57.09C24.95 57.35 24.7 57.14 24.59 57.03C24.48 56.9 25.22 57.28 24.56 56.83C24.34 56.68 24.7 56.86 24.68 56.83C24.64 56.74 24.54 56.62 24.75 56.69C24.98 56.76 24.36 56.35 25 56.67C25.02 56.68 24.9 56.6 24.88 56.59C24.6 56.37 25.29 56.71 24.75 56.34C24.73 56.32 24.94 56.44 24.94 56.44C24.99 56.41 25.01 56.36 25.04 56.32C25.04 56.32 24.9 56.23 24.91 56.24C25.28 56.39 24.83 56.08 25.06 56.15C25.29 56.23 24.78 55.87 25.28 56.11C25.29 56.12 25.24 56.09 25.22 56.07C24.79 55.79 25.18 56 25.19 55.98C25.2 55.93 25.3 55.93 25.31 55.88C25.31 55.82 25.35 55.78 25.39 55.74C25.41 55.73 25.41 55.71 25.4 55.69C25.33 55.65 25.25 55.61 25.17 55.57C25.02 55.47 24.86 55.36 24.75 55.22C24.65 55.07 24.56 54.89 24.57 54.67C24.57 54.65 24.51 54.67 24.48 54.68C24.19 54.71 24.06 54.59 24.02 54.44C23.98 54.28 23.99 54.09 23.92 53.97C23.56 53.34 23.45 52.61 23.38 51.91C23.34 51.48 23.35 51.21 23.35 50.89C23.35 50.57 23.36 50.26 23.37 49.94C23.38 49.39 23.26 48.83 23.34 48.27C23.38 48.02 23.33 47.75 23.38 47.47C23.48 46.95 23.54 46.4 23.36 45.9C23.31 45.76 23.27 45.61 23.28 45.4C23.28 45.2 23.32 44.98 23.45 44.75C23.58 44.5 23.56 44.21 23.55 43.91C23.56 43.76 23.56 43.61 23.6 43.47C23.65 43.33 23.72 43.19 23.85 43.08C23.87 43.06 23.74 42.98 23.74 42.95C23.88 42.43 24.02 41.88 24.29 41.4L24.15 41.4C24.27 41.21 23.88 40.98 24.25 40.78C24.27 40.78 24.12 40.76 24.11 40.75C24.08 40.51 23.96 40.27 24.06 40.03C24.15 39.81 23.66 39.59 24.19 39.37C24.21 39.36 24.08 39.35 24.07 39.34C23.86 39.11 24.3 38.88 23.92 38.65C23.91 38.65 23.97 38.64 23.99 38.64C24.49 38.42 23.42 38.2 24.29 37.99C24.31 37.98 24.19 37.97 24.16 37.95C23.45 37.73 24.68 37.49 23.83 37.27C23.81 37.26 23.92 37.25 23.95 37.23C24.54 37.02 24.22 36.78 24.07 36.57C23.91 36.35 24.74 36.13 23.95 35.89C23.68 35.8 24.08 35.66 24.05 35.58C23.96 35.35 23.81 35.11 24.04 34.89C24.27 34.67 23.52 34.44 24.24 34.22C24.26 34.22 24.12 34.2 24.1 34.19C23.74 33.97 24.51 33.74 23.86 33.52C23.83 33.51 24.07 33.49 24.07 33.47C24.09 33.24 24.1 33.02 24.09 32.79C24.09 32.78 23.93 32.77 23.95 32.76C24.34 32.53 23.79 32.3 24.03 32.07C24.26 31.85 23.65 31.63 24.2 31.41C24.21 31.4 24.15 31.4 24.12 31.39C23.61 31.3 24.06 31.2 24.05 31.11C24.03 30.89 24.12 30.67 24.1 30.45C24.08 30.2 24.09 29.96 24.11 29.71C24.12 29.5 24 29.28 24.08 29.06C24.12 28.96 24.07 28.86 24.12 28.75C24.22 28.55 24.28 28.34 24.11 28.14C24.01 28.03 23.94 27.89 24.15 27.73C24.39 27.54 23.88 27.33 24.25 27.13C24.27 27.12 24.11 27.11 24.11 27.09C24.08 26.86 23.96 26.62 24.06 26.38C24.15 26.16 23.66 25.93 24.19 25.71C24.21 25.7 24.07 25.69 24.06 25.68C23.86 25.45 24.29 25.22 23.92 24.99C23.91 24.99 23.97 24.98 23.99 24.98C24.49 24.77 23.42 24.54 24.29 24.33C24.31 24.32 24.19 24.31 24.16 24.3C23.45 24.07 24.68 23.83 23.83 23.61C23.81 23.6 23.91 23.59 23.95 23.58C24.54 23.36 24.22 23.12 24.07 22.92C23.91 22.69 24.74 22.47 23.95 22.23C23.68 22.15 24.08 22.01 24.05 21.92C23.96 21.69 23.81 21.46 24.04 21.23C24.26 21.01 23.52 20.78 24.24 20.57C24.26 20.56 24.11 20.55 24.09 20.53C23.74 20.31 24.51 20.08 23.86 19.86C23.83 19.85 24.07 19.83 24.07 19.81C24.09 19.59 24.09 19.36 24.09 19.13C24.09 19.12 23.93 19.11 23.95 19.1C24.34 18.87 23.79 18.64 24.03 18.41C24.26 18.19 23.65 17.97 24.2 17.75C24.21 17.75 24.15 17.74 24.12 17.73C23.61 17.64 24.06 17.55 24.05 17.45C24.03 17.23 24.12 17.01 24.1 16.79C24.08 16.55 24.09 16.3 24.11 16.06C24.12 15.84 24 15.62 24.08 15.41C24.12 15.31 24.07 15.2 24.12 15.09C24.22 14.89 24.28 14.68 24.1 14.48C23.99 14.36 23.9 14.28 24.06 14.22C24.09 14.19 24.12 14.15 24.15 14.1C24.27 13.91 23.88 13.7 24.25 13.5C24.27 13.5 24.11 13.48 24.11 13.47C24.08 13.23 23.96 12.99 24.06 12.76C24.15 12.53 23.66 12.31 24.19 12.09C24.21 12.08 24.07 12.07 24.06 12.06C23.86 11.83 24.29 11.6 23.91 11.37C23.91 11.37 23.97 11.36 23.99 11.36C24.49 11.14 23.42 10.92 24.29 10.71C24.31 10.7 24.19 10.69 24.16 10.67C23.45 10.45 24.68 10.21 23.83 9.99C23.8 9.98 23.91 9.97 23.94 9.95C24.54 9.74 24.22 9.5 24.07 9.29C23.91 9.07 24.74 8.85 23.94 8.61C23.67 8.52 24.08 8.38 24.04 8.3C24 8.18 23.94 8.07 23.92 7.95C23.92 7.89 23.92 7.83 23.93 7.78C23.95 7.73 23.98 7.69 24.03 7.64C24.14 7.54 24 7.45 23.93 7.36C23.89 7.32 23.88 7.28 23.91 7.23C23.93 7.18 24.01 7.13 24.18 7.06C24.2 7.05 24.06 7.06 24.04 7.05C23.85 6.98 23.94 6.88 23.99 6.77C24.04 6.66 24.04 6.56 23.7 6.55C23.67 6.55 23.9 6.47 23.9 6.46C23.89 6.37 23.87 6.27 23.85 6.18C23.82 6.09 23.79 6 23.75 5.91C23.75 5.9 23.6 5.94 23.61 5.93C23.76 5.78 23.69 5.69 23.6 5.63C23.5 5.57 23.4 5.52 23.46 5.38C23.52 5.25 23.41 5.2 23.3 5.15C23.21 5.1 23.15 5.03 23.33 4.81C23.34 4.8 23.29 4.82 23.26 4.83C22.79 5.05 23.13 4.73 23.07 4.68C23.01 4.61 22.97 4.53 22.93 4.44C22.88 4.36 22.85 4.26 22.77 4.21C22.61 4.07 22.49 3.9 22.35 3.76C22.22 3.62 22.01 3.59 21.91 3.42C21.87 3.34 21.77 3.33 21.72 3.23C21.64 3.05 21.5 2.9 21.28 2.97C21.15 3 21.02 3.02 20.98 2.77C20.96 2.63 20.85 2.65 20.76 2.66C20.65 2.67 20.56 2.68 20.55 2.47C20.55 2.46 20.48 2.6 20.47 2.59C20.37 2.58 20.27 2.57 20.16 2.56C20.06 2.56 19.96 2.54 19.88 2.47C19.8 2.4 19.69 2.47 19.59 2.5C19.49 2.53 19.4 2.51 19.35 2.23C19.34 2.21 19.31 2.34 19.3 2.35C19.19 2.44 19.11 2.37 19.02 2.33C18.92 2.29 18.82 2.27 18.72 2.46C18.72 2.46 18.72 2.4 18.71 2.38C18.63 2.13 18.53 2.26 18.44 2.37C18.35 2.47 18.27 2.52 18.15 2.1C18.15 2.07 18.14 2.19 18.13 2.23C18.1 2.41 18.06 2.46 18.01 2.46C17.96 2.47 17.91 2.41 17.85 2.37C17.75 2.27 17.62 2.19 17.61 2.62C17.61 2.65 17.58 2.54 17.56 2.51C17.42 2.23 17.3 2.19 17.21 2.24C17.12 2.29 17.06 2.43 17 2.52C16.93 2.61 16.8 2.49 16.67 2.44C16.55 2.4 16.44 2.42 16.5 2.82C16.54 3.09 16.28 2.78 16.23 2.84C16.16 2.92 16.1 3.01 16.02 3.07C15.95 3.13 15.86 3.16 15.72 3.11C15.58 3.07 15.57 3.22 15.53 3.33C15.5 3.44 15.44 3.5 15.14 3.27C15.13 3.25 15.2 3.38 15.21 3.4C15.24 3.6 15.1 3.56 14.99 3.58C14.88 3.59 14.78 3.64 14.93 3.94C14.95 3.96 14.77 3.8 14.76 3.81C14.72 3.84 14.68 3.86 14.64 3.89L14.54 4C14.47 4.07 14.41 4.13 14.35 4.21C14.34 4.21 14.46 4.33 14.44 4.32C14.22 4.26 14.2 4.38 14.19 4.48C14.17 4.6 14.18 4.71 14.02 4.72C13.88 4.73 13.91 4.87 13.91 4.98C13.91 5.08 13.88 5.16 13.59 5.11C13.58 5.11 13.62 5.14 13.65 5.16C14.07 5.47 13.64 5.33 13.61 5.41C13.58 5.49 13.52 5.57 13.46 5.65C13.42 5.73 13.37 5.81 13.35 5.9C13.32 6 13.28 6.1 13.25 6.19C13.23 6.29 13.2 6.39 13.16 6.49C13.09 6.66 13.2 6.86 13.08 7.03C13.06 7.07 13.05 7.12 13.04 7.17C13.1 7.18 13.15 7.2 13.2 7.24C13.28 7.3 13.4 7.26 13.5 7.27C13.6 7.27 13.69 7.32 13.71 7.51C13.71 7.53 13.76 7.45 13.77 7.45C14.01 7.4 14.06 7.74 14.34 7.61C14.35 7.61 14.33 7.65 14.33 7.66C14.33 7.85 14.45 7.81 14.56 7.8C14.67 7.8 14.77 7.82 14.69 8.1C14.69 8.12 14.74 8.06 14.76 8.04C14.97 7.9 15 8.02 15.04 8.14C15.08 8.25 15.11 8.36 15.35 8.19C15.37 8.18 15.34 8.24 15.33 8.27C15.24 8.68 15.51 8.63 15.71 8.66C15.92 8.7 15.68 9.23 16.18 8.97C16.35 8.88 16.25 9.15 16.32 9.19C16.49 9.27 16.69 9.34 16.71 9.57C16.72 9.81 17.22 9.61 16.97 10.05C16.96 10.07 17.04 10.01 17.06 10.01C17.21 10 17.21 10.11 17.24 10.21C17.26 10.31 17.3 10.39 17.53 10.32C17.55 10.32 17.43 10.43 17.44 10.44C17.54 10.59 17.65 10.74 17.76 10.88C17.76 10.89 17.86 10.83 17.85 10.84C17.74 11.14 18.15 11.08 18.12 11.33C18.09 11.56 18.53 11.49 18.31 11.84C18.31 11.84 18.34 11.83 18.36 11.82C18.69 11.71 18.48 11.93 18.52 11.99C18.62 12.14 18.65 12.32 18.75 12.47C18.85 12.64 18.93 12.82 19 13C19.07 13.16 19.21 13.29 19.23 13.48C19.23 13.56 19.29 13.63 19.29 13.72C19.29 13.9 19.3 14.08 19.46 14.19C19.55 14.26 19.62 14.36 19.53 14.53C19.41 14.71 19.78 14.81 19.57 15.03C19.56 15.04 19.66 15.03 19.66 15.04C19.69 15.14 19.73 15.23 19.76 15.33C19.79 15.43 19.8 15.53 19.78 15.64C19.76 15.73 19.83 15.83 19.86 15.93C19.88 15.97 19.89 16.02 19.86 16.07C19.84 16.13 19.79 16.18 19.7 16.23C19.69 16.23 19.78 16.25 19.79 16.26C19.85 16.38 19.79 16.48 19.76 16.59C19.72 16.69 19.68 16.79 19.78 16.93C19.79 16.93 19.74 16.93 19.73 16.93C19.54 16.99 19.61 17.1 19.63 17.22C19.66 17.34 19.64 17.46 19.35 17.43C19.33 17.43 19.4 17.47 19.41 17.49C19.58 17.69 19.45 17.76 19.33 17.81C19.21 17.87 19.11 17.92 19.28 18.16C19.29 18.18 19.22 18.15 19.2 18.14C18.98 18.12 18.88 18.17 18.83 18.25C18.78 18.34 18.77 18.47 18.74 18.57C18.7 18.68 18.55 18.68 18.43 18.7C18.32 18.72 18.24 18.77 18.3 19.05C18.35 19.25 18.08 19.1 18.02 19.16C17.87 19.32 17.7 19.51 17.44 19.45C17.32 19.42 17.25 19.53 17.16 19.61C17.07 19.68 16.97 19.71 16.83 19.5C16.82 19.49 16.83 19.58 16.82 19.6C16.75 19.73 16.63 19.68 16.53 19.66C16.42 19.63 16.33 19.62 16.26 19.84C16.25 19.86 16.22 19.71 16.2 19.71L15.64 19.73C15.63 19.73 15.62 19.83 15.62 19.83C15.43 19.57 15.25 19.93 15.07 19.77C14.9 19.62 14.73 20.03 14.57 19.66C14.57 19.65 14.56 19.69 14.56 19.71C14.48 20.05 14.41 19.75 14.34 19.76C14.18 19.77 14.01 19.71 13.84 19.72C13.66 19.73 13.47 19.73 13.29 19.71C13.12 19.7 12.96 19.78 12.79 19.73C12.72 19.7 12.64 19.73 12.56 19.7C12.4 19.63 12.24 19.59 12.09 19.7C12 19.78 11.94 19.84 11.9 19.73C11.87 19.71 11.84 19.69 11.81 19.67C11.66 19.59 11.5 19.85 11.35 19.6C11.35 19.59 11.34 19.69 11.33 19.69C11.15 19.71 10.96 19.79 10.78 19.72C10.62 19.66 10.44 19.99 10.28 19.63C10.27 19.62 10.26 19.71 10.26 19.72C10.08 19.86 9.91 19.57 9.74 19.82C9.73 19.82 9.73 19.78 9.72 19.77C9.56 19.43 9.39 20.14 9.23 19.57C9.23 19.55 9.22 19.63 9.21 19.65C9.03 20.12 8.86 19.3 8.67 19.86C8.67 19.88 8.66 19.81 8.65 19.79C8.49 19.39 8.29 19.59 8.12 19.68C8.02 19.73 7.94 19.61 7.85 19.54C7.76 19.47 7.67 19.46 7.53 19.7C7.44 19.87 7.36 19.58 7.28 19.59C7.08 19.61 6.84 19.66 6.69 19.45C6.62 19.35 6.5 19.39 6.38 19.4C6.27 19.41 6.16 19.36 6.18 19.11C6.18 19.09 6.13 19.17 6.11 19.18C5.96 19.23 5.9 19.12 5.83 19.03C5.77 18.93 5.7 18.87 5.48 18.97C5.46 18.98 5.54 18.84 5.53 18.83C5.45 18.76 5.37 18.69 5.29 18.62C5.21 18.55 5.14 18.47 5.07 18.39C5.06 18.38 4.97 18.44 4.98 18.43C5 18.26 4.92 18.2 4.82 18.13C4.73 18.07 4.62 18 4.63 17.87C4.65 17.74 4.54 17.68 4.46 17.6C4.38 17.52 4.32 17.42 4.46 17.26C4.46 17.25 4.43 17.26 4.41 17.26C4.05 17.29 4.31 17.1 4.28 17.02C4.22 16.82 4.24 16.6 4.21 16.4ZM35.26 56.76C35.23 56.76 35.19 56.77 35.16 56.78C35.35 56.87 35.33 56.82 35.26 56.76ZM35.1 56.79C35.07 56.79 35.05 56.79 35.03 56.79C35.11 56.82 35.19 56.85 35.1 56.79ZM25.41 47.62C25.41 47.69 25.42 47.76 25.42 47.83C25.47 47.85 25.52 47.89 25.59 47.94C25.61 47.96 25.51 47.85 25.51 47.83C25.33 47.51 25.94 47.99 25.57 47.45C25.55 47.42 25.72 47.59 25.73 47.59C25.82 47.53 25.9 47.46 25.97 47.38C25.97 47.38 25.87 47.26 25.88 47.27C26.22 47.48 25.94 47.01 26.18 47.12C26.41 47.23 26.09 46.69 26.52 47.04C26.53 47.05 26.49 47.01 26.48 46.98C26.18 46.56 26.5 46.88 26.53 46.84C26.59 46.76 26.73 46.77 26.8 46.69C26.87 46.59 26.97 46.54 27.07 46.48C27.16 46.44 27.16 46.28 27.29 46.28C27.35 46.29 27.36 46.22 27.43 46.23C27.56 46.25 27.68 46.25 27.65 46.05C27.63 45.94 27.65 45.85 27.83 45.98C28.04 46.12 27.83 45.65 28.12 45.91C28.13 45.92 28.05 45.79 28.05 45.79C28.13 45.7 28.16 45.54 28.3 45.56C28.43 45.58 28.26 45.11 28.63 45.51C28.64 45.52 28.58 45.4 28.57 45.39C28.56 45.16 28.88 45.48 28.77 45.1C28.77 45.09 28.81 45.15 28.82 45.16C29.15 45.54 28.71 44.57 29.23 45.27C29.24 45.29 29.19 45.18 29.17 45.15C28.92 44.48 29.61 45.5 29.29 44.71C29.28 44.68 29.34 44.77 29.36 44.8C29.73 45.28 29.68 44.95 29.69 44.77C29.71 44.58 30.18 45.27 29.92 44.52C29.84 44.26 30.07 44.59 30.1 44.54C30.15 44.42 30.19 44.24 30.38 44.4C30.57 44.56 30.36 43.84 30.74 44.46C30.75 44.48 30.7 44.34 30.7 44.32C30.65 43.95 31.05 44.62 30.89 43.98C30.89 43.95 30.99 44.17 31 44.17C31.1 44.15 31.2 44.11 31.29 44.06C31.3 44.06 31.24 43.91 31.25 43.92C31.49 44.25 31.4 43.71 31.58 43.9C31.76 44.08 31.65 43.47 31.93 43.95C31.93 43.96 31.92 43.9 31.91 43.88C31.78 43.38 31.97 43.78 32.01 43.76C32.1 43.71 32.22 43.76 32.31 43.71C32.42 43.66 32.53 43.63 32.64 43.62C32.74 43.61 32.8 43.46 32.92 43.51C32.98 43.54 33.01 43.48 33.07 43.51C33.19 43.59 33.3 43.62 33.34 43.42C33.37 43.3 33.38 43.2 33.45 43.35C33.47 43.37 33.49 43.41 33.52 43.43C33.63 43.52 33.64 43.12 33.81 43.47C33.82 43.48 33.79 43.33 33.8 43.33C33.9 43.27 33.98 43.13 34.11 43.2C34.23 43.27 34.24 42.76 34.44 43.27C34.44 43.29 34.43 43.15 34.43 43.14C34.5 42.92 34.68 43.33 34.72 42.94C34.72 42.93 34.73 43 34.74 43.01C34.91 43.49 34.85 42.42 35.08 43.26C35.09 43.28 35.08 43.17 35.08 43.13C35.08 42.41 35.36 43.61 35.35 42.76C35.35 42.73 35.37 42.84 35.38 42.87C35.55 43.44 35.62 43.12 35.7 42.96C35.78 42.79 35.97 43.6 36 42.81C36.02 42.54 36.12 42.93 36.15 42.89C36.25 42.8 36.35 42.64 36.47 42.86C36.59 43.08 36.65 42.33 36.79 43.04C36.79 43.06 36.79 42.92 36.8 42.9C36.89 42.54 37.02 43.31 37.1 42.65C37.1 42.62 37.12 42.86 37.13 42.87C37.23 42.88 37.34 42.88 37.44 42.88C37.45 42.88 37.45 42.72 37.46 42.73C37.57 43.12 37.67 42.57 37.78 42.81C37.88 43.05 37.99 42.43 38.08 42.98C38.08 42.99 38.09 42.94 38.09 42.91C38.15 42.4 38.18 42.85 38.22 42.84C38.32 42.83 38.42 42.92 38.52 42.9C38.64 42.89 38.75 42.9 38.86 42.93C38.96 42.96 39.07 42.84 39.16 42.93C39.21 42.97 39.26 42.93 39.3 42.99C39.39 43.09 39.48 43.17 39.59 43C39.65 42.91 39.72 42.85 39.77 43.07C39.83 43.31 39.99 42.82 40.03 43.2C40.03 43.22 40.06 43.07 40.07 43.07C40.18 43.05 40.31 42.95 40.4 43.06C40.48 43.17 40.67 42.71 40.68 43.25C40.68 43.27 40.71 43.13 40.72 43.12C40.86 42.94 40.88 43.39 41.06 43.04C41.06 43.03 41.05 43.09 41.05 43.11C41.05 43.62 41.37 42.6 41.28 43.46C41.28 43.49 41.32 43.37 41.33 43.34C41.59 42.67 41.42 43.89 41.71 43.09C41.72 43.07 41.7 43.18 41.7 43.21C41.66 43.8 41.84 43.52 41.97 43.4C42.11 43.27 41.99 44.1 42.31 43.36C42.42 43.12 42.37 43.52 42.42 43.5C42.54 43.45 42.69 43.34 42.73 43.59C42.76 43.83 43.09 43.16 42.96 43.87C42.96 43.89 43.01 43.76 43.02 43.74C43.23 43.43 43.08 44.19 43.39 43.61C43.41 43.59 43.34 43.82 43.34 43.82C43.44 43.88 43.53 43.91 43.63 43.95C43.64 43.95 43.7 43.8 43.7 43.82C43.66 44.22 43.95 43.75 43.96 44.01C43.97 44.26 44.3 43.73 44.19 44.28C44.19 44.29 44.21 44.24 44.22 44.21C44.46 43.76 44.33 44.19 44.37 44.2C44.42 44.2 44.45 44.24 44.49 44.27C44.59 44.13 44.73 44.02 44.93 43.95C44.96 43.94 44.86 43.84 44.87 43.8C44.95 43.47 45.18 43.22 45.4 42.98C45.51 42.85 45.62 42.73 45.71 42.6C45.79 42.46 45.86 42.3 45.9 42.12C45.9 42.11 45.96 42.13 45.98 42.13C46.18 42.1 46.3 42 46.39 41.88C46.49 41.76 46.55 41.6 46.63 41.46C46.72 41.32 46.8 41.18 46.94 41.1C47.08 41.02 47.26 40.99 47.51 41.06C47.54 41.07 47.49 40.95 47.5 40.91C47.51 40.67 47.61 40.52 47.74 40.43C47.88 40.33 48.05 40.28 48.22 40.24C48.39 40.2 48.55 40.15 48.68 40.05C48.81 39.96 48.91 39.81 48.95 39.54C48.95 39.51 49.04 39.58 49.09 39.59C49.3 39.65 49.48 39.66 49.64 39.64C49.81 39.61 49.96 39.56 50.1 39.49C50.38 39.34 50.63 39.11 50.88 38.96C51.02 38.87 51.18 38.84 51.34 38.84C51.51 38.84 51.68 38.85 51.84 38.86C52.18 38.87 52.49 38.82 52.77 38.38C52.86 38.23 53.03 38.24 53.2 38.29C53.37 38.33 53.54 38.41 53.66 38.39C53.83 38.35 53.99 38.32 54.15 38.3L54.4 38.26C54.48 38.25 54.55 38.24 54.62 38.24C54.92 38.22 55.22 38.24 55.51 38.35C56.09 38.58 56.67 37.83 57.23 38.55C57.25 38.57 57.28 38.43 57.31 38.41C57.35 38.39 57.38 38.37 57.42 38.35C57.44 38.35 57.46 38.34 57.47 38.33L57.51 38.32C57.56 38.3 57.61 38.3 57.66 38.3C57.77 38.31 57.86 38.33 57.97 38.35C58.07 38.36 58.17 38.35 58.26 38.3C58.34 38.24 58.41 38.14 58.41 37.95C58.41 37.92 58.55 38.11 58.58 38.1C58.75 38.02 58.92 37.89 59.08 37.75C59.23 37.6 59.38 37.43 59.51 37.23C59.52 37.21 59.41 37.1 59.43 37.1C59.51 37.08 59.57 37.04 59.62 37C59.24 36.84 59.64 36.9 59.65 36.85C59.66 36.72 59.78 36.62 59.8 36.5C59.81 36.36 59.85 36.23 59.91 36.1C59.96 35.98 59.87 35.83 59.98 35.74C60.03 35.69 60 35.62 60.07 35.58C60.19 35.49 60.33 35.41 60.18 35.26L60.35 35.3C60.36 35.22 60.36 35.13 60.37 35.04C60.4 34.75 60.46 34.47 60.81 34.28C60.82 34.27 60.77 34.24 60.75 34.22C60.32 33.85 60.82 33.74 60.88 33.51C61.02 32.96 61.26 32.45 61.39 31.9C61.54 31.29 61.71 30.69 61.88 30.1C62.02 29.57 62.03 29.02 62.22 28.5C62.31 28.27 62.31 28.01 62.41 27.75C62.6 27.28 62.73 26.76 62.61 26.26C62.58 26.12 62.55 25.97 62.57 25.8C62.57 25.71 62.59 25.62 62.62 25.53C62.65 25.45 62.69 25.36 62.74 25.27C62.88 25.06 62.8 24.82 62.75 24.59C62.68 24.36 62.64 24.13 62.79 23.88C62.8 23.86 62.65 23.85 62.64 23.83C62.53 23.29 62.3 22.79 62.21 22.25C62.19 22.13 62.13 22.01 62.06 21.9C61.99 21.8 61.9 21.7 61.83 21.59C61.77 21.48 61.7 21.38 61.67 21.25C61.65 21.19 61.65 21.12 61.65 21.05C61.65 20.98 61.67 20.9 61.69 20.81C61.7 20.78 61.57 20.82 61.54 20.81C61.49 20.76 61.44 20.71 61.4 20.66C61.36 20.61 61.32 20.56 61.29 20.5C61.22 20.39 61.17 20.27 61.11 20.15C61.04 20.03 60.98 19.92 60.88 19.82C60.79 19.73 60.67 19.65 60.52 19.61C60.51 19.61 60.55 19.56 60.55 19.54C60.56 19.37 60.5 19.26 60.4 19.17C60.31 19.09 60.17 19.04 60.05 18.98C59.93 18.92 59.81 18.87 59.74 18.76C59.67 18.66 59.65 18.5 59.69 18.26C59.7 18.23 59.59 18.3 59.55 18.31C59.12 18.41 59 18.15 58.85 17.9C58.77 17.78 58.69 17.66 58.57 17.59C58.44 17.53 58.28 17.53 58.07 17.65C58.04 17.66 58.07 17.55 58.06 17.51C57.99 17.13 57.78 16.93 57.53 16.84C57.28 16.73 56.98 16.74 56.74 16.72C56.6 16.71 56.49 16.64 56.38 16.55C56.27 16.47 56.16 16.37 56.05 16.29C55.94 16.2 55.81 16.14 55.67 16.14C55.52 16.13 55.36 16.19 55.18 16.35C55.06 16.46 54.94 16.4 54.83 16.31C54.71 16.23 54.6 16.11 54.49 16.11C53.95 16.11 53.42 16.22 52.9 15.99C52.64 15.88 52.38 16.02 52.13 16.11C52 16.15 51.88 16.18 51.75 16.17C51.62 16.15 51.48 16.07 51.33 15.92C51.31 15.9 51.3 16.05 51.28 16.07C51.17 16.19 51.04 16.22 50.91 16.24C50.78 16.26 50.65 16.25 50.51 16.24C50.24 16.25 49.97 16.29 49.83 16.68C49.82 16.72 49.7 16.51 49.66 16.51C49.16 16.67 48.67 16.89 48.21 17.14C48.19 17.16 48.24 17.31 48.21 17.31C48.05 17.29 47.91 17.32 47.8 17.38C47.68 17.45 47.58 17.54 47.48 17.63C47.39 17.74 47.3 17.84 47.2 17.92C47.1 18.01 47 18.09 46.85 18.12C46.71 18.15 46.61 18.23 46.53 18.33C46.44 18.43 46.37 18.54 46.29 18.65C46.14 18.87 45.99 19.06 45.61 19.06C45.59 19.06 45.62 19.11 45.64 19.14C45.88 19.64 45.4 19.5 45.28 19.68C44.97 20.09 44.61 20.47 44.38 20.93C44.12 21.44 43.88 21.95 43.67 22.49C43.58 22.72 43.54 22.97 43.49 23.22C43.45 23.47 43.4 23.71 43.32 23.95C43.23 24.18 43.26 24.42 43.17 24.66C43.11 24.9 43.04 25.13 43.04 25.39C43.03 25.45 43.03 25.52 43.03 25.58L43.04 25.67L43.04 25.74L43.04 25.79C43.06 25.92 43.08 26.05 43.12 26.17C43.22 26.49 43.31 26.69 43.14 26.84C43.11 26.93 43.07 27.02 43.04 27.14C42.91 27.63 43.29 28.16 42.91 28.66C42.89 28.69 43.04 28.72 43.04 28.75C43.07 29.36 43.18 29.96 43.1 30.56C43.06 30.84 43.17 31.11 43.22 31.38C43.28 31.65 43.28 31.91 43.04 32.2C43.03 32.22 43.16 32.23 43.18 32.26C43.44 32.78 43.09 33.42 43.55 33.95C43.56 33.97 43.5 33.99 43.48 34C43.27 34.31 43.45 34.58 43.58 34.85C43.71 35.13 43.8 35.42 43.39 35.74C43.37 35.75 43.49 35.78 43.53 35.81C43.91 36.08 43.81 36.41 43.71 36.74C43.61 37.07 43.51 37.38 43.92 37.74C43.94 37.77 43.83 37.81 43.79 37.84C43.47 38.16 43.36 38.48 43.24 38.89C43.17 39.09 43.11 39.32 42.95 39.57C42.79 39.82 42.52 40.07 42.21 40.2C41.97 40.31 41.76 40.32 41.56 40.29C41.36 40.26 41.19 40.2 41.02 40.15C40.67 40.05 40.36 40.01 39.96 40.35C39.68 40.58 39.35 40.1 39.11 40.08C38.79 40.05 38.46 40.02 38.14 39.94C37.98 39.9 37.83 39.86 37.68 39.79C37.64 39.77 37.6 39.75 37.57 39.73C37.54 39.72 37.51 39.7 37.48 39.68C37.42 39.64 37.36 39.59 37.3 39.54C37.08 39.35 36.77 39.38 36.48 39.37C36.2 39.35 35.94 39.28 35.78 38.86C35.77 38.84 35.69 38.97 35.66 38.98C35.05 39.18 34.68 38.31 34 38.84C33.97 38.87 33.97 38.62 33.93 38.61C33.39 38.49 32.87 38.42 32.37 38.42C32.35 38.42 32.32 38.58 32.31 38.57C31.79 38.19 31.3 38.8 30.76 38.67C30.52 38.6 30.33 38.76 30.14 38.9C29.95 39.03 29.76 39.15 29.41 39.03C29.4 39.03 29.41 39.08 29.42 39.11C29.46 39.39 29.38 39.45 29.27 39.47C29.16 39.49 29.01 39.45 28.93 39.52C28.52 39.82 28.05 40.1 27.68 40.46C27.28 40.87 26.9 41.28 26.58 41.72C26.28 42.11 26.17 42.59 25.92 42.99C25.8 43.18 25.77 43.42 25.66 43.63C25.44 44.04 25.29 44.53 25.44 44.99C25.53 45.25 25.58 45.53 25.37 45.98C25.14 46.46 25.65 47.01 25.27 47.52C25.25 47.56 25.41 47.59 25.41 47.62ZM11.99 18.9C14.26 18.9 18.55 18.64 18.55 17.68C18.55 16.71 14.26 16.45 11.99 16.45C9.71 16.45 5.42 16.71 5.42 17.68C5.42 18.64 9.71 18.9 11.99 18.9Z" fill="#000000" fill-opacity="1.000000" fill-rule="nonzero"/>
	</g>
</svg>
