<svg width="119.841064" height="63.820801" viewBox="0 0 119.841 63.8208" fill="none" xmlns="http://www.w3.org/2000/svg" xmlns:xlink="http://www.w3.org/1999/xlink">
	<desc>
			Created with Pixso.
	</desc>
	<defs/>
	<path id="Vector" d="M67.53 0.5C61.76 2.24 57.96 8.79 58.52 16.01C58.98 21.85 61.23 25.49 69.48 33.76C78.15 42.44 79.88 45.35 79.88 51.32C79.9 66.84 64.79 63.5 61.62 47.27C60.79 43.06 60.3 41.79 59.58 42.02C58.5 42.35 58.61 63.12 59.69 63.12C60.17 63.12 60.57 62.87 60.57 62.57C60.57 59.85 63.24 59.38 66.71 61.48C78.37 68.54 90.58 55.81 86.49 40.88C85.03 35.57 82.7 32.32 74.41 24.08C68.1 17.8 66.27 14.95 65.92 10.85C65.45 5.28 67.63 2.12 71.72 2.44C76.84 2.84 80.13 7.88 81.62 17.65C82.11 20.83 82.3 21.32 83.04 21.32C83.85 21.32 83.89 20.91 84 10.81C84.11 1 84.07 0.31 83.35 0.32C82.91 0.32 82.29 0.9 81.92 1.65C81.01 3.48 79.82 3.5 76.98 1.73C74.14 -0.04 70.77 -0.47 67.53 0.5ZM0 1.04C0 1.51 0.53 1.96 1.45 2.27C3.52 2.97 3.21 1.87 10.51 34.14L17.17 63.57L18.92 63.45L20.66 63.33L21.63 58.64C22.16 56.06 23.89 47.43 25.48 39.47C28.79 22.87 28.81 22.78 29.2 24.78C29.36 25.57 30.63 31.35 32.02 37.63C33.41 43.91 35.26 52.26 36.12 56.19L37.69 63.33L39.08 63.45C40.83 63.61 39.06 70.52 51.19 16.01C53.79 4.31 54.16 3.29 56.04 2.45C59.48 0.91 58.12 0.31 51.2 0.31C45.3 0.31 44.88 0.36 44.88 1.08C44.88 1.65 45.31 1.93 46.52 2.14C50.76 2.87 50.73 4.07 45.92 26.36C43.86 35.93 42.14 43.79 42.09 43.84C42.05 43.88 41.16 39.85 40.13 34.86C39.1 29.88 37.39 21.67 36.34 16.63C33.71 3.97 33.79 2.77 37.39 2.1C38.36 1.92 38.78 1.61 38.78 1.08C38.78 0.35 38.29 0.31 29.85 0.31C21.54 0.31 20.91 0.36 20.91 1.04C20.91 1.51 21.46 1.96 22.42 2.29C24.18 2.88 24.23 3.03 25.99 11.26C27.04 16.16 27.1 16.96 26.64 19.22C25.93 22.65 21.79 43.56 21.76 43.89C21.68 44.56 13.54 6.49 13.52 5.4C13.5 3.75 14.52 2.48 16.12 2.15C17.02 1.96 17.43 1.63 17.43 1.09C17.43 0.35 17.02 0.31 8.71 0.31C0.61 0.31 0 0.36 0 1.04ZM100.66 1.09C100.66 1.68 101.17 1.98 102.85 2.35C106.05 3.07 105.89 1.66 105.89 29.88C105.89 60.47 105.8 61.08 101.1 61.08C95.72 61.08 94.24 57.59 98.25 54.38C102.25 51.19 102.49 47.13 98.79 45.44C92.84 42.72 88.18 50.25 91.48 57.25C95.55 65.86 109.62 65.46 113.69 56.62C115.26 53.2 115.46 49.78 115.47 26.69C115.48 2.34 115.4 3.03 118.1 2.35C119.38 2.03 119.84 1.7 119.84 1.11C119.84 0.34 119.48 0.31 110.25 0.31C101.12 0.31 100.66 0.35 100.66 1.09Z" fill="#000000" fill-opacity="1.000000" fill-rule="evenodd"/>
</svg>
